<?xml version="1.0" encoding="utf-8"?>
<!-- Generator: Adobe Illustrator 22.1.0, SVG Export Plug-In . SVG Version: 6.00 Build 0)  -->
<svg version="1.1" id="Capa_1" xmlns="http://www.w3.org/2000/svg" xmlns:xlink="http://www.w3.org/1999/xlink" x="0px" y="0px"
	 viewBox="0 0 512 512" style="enable-background:new 0 0 512 512;" xml:space="preserve">
<style type="text/css">
	.st0{fill:#1272AF;}
</style>
<g>
	<path class="st0" d="M512,341.6l-0.5-144c-0.1-23.4-19.4-42.8-43.2-43.2c-11.7-0.2-22.7,4.2-30.9,12.3
		c-7.9,7.8-12.3,18.2-12.5,29.3l-3.7,42.4c-24.1-48.8-64-88.2-113.8-111.7V89.9l35.9-74.6h-23.9c-1.5,0-1.7,0-5.1-3.4
		C309.9,7.5,302.2,0,288.3,0s-21.5,7.5-26.1,11.9c-3.4,3.4-3.6,3.4-5.1,3.4c-1.5,0-1.7,0-5.1-3.4C247.4,7.5,239.8,0,225.9,0
		s-21.5,7.5-26.1,11.9c-3.4,3.4-3.6,3.4-5.1,3.4h-23.4l34.1,74.4v37C155.3,150,115,189.6,90.8,238.7l-3.7-42.8
		c-0.2-11.1-4.6-21.5-12.5-29.3c-8.2-8.1-19.2-12.5-30.9-12.3C20,154.8,0.6,174.1,0.5,197.6L0,341.6L72.2,457l-24,55h114.2L190,459
		l0.3-0.8c0.4-1.1,0.8-2.1,1.1-3.2c20.4,8.1,42.3,12.3,64.3,12.3c22.2,0,44.3-4.3,64.7-12.5c0.4,1.1,0.8,2.2,1.2,3.3l0.3,0.8
		l27.5,52.9h114.2l-24-55L512,341.6z M235.4,101.4h42.1v20h-42.1V101.4z M220.8,33.4c3.4-3.4,3.6-3.4,5.1-3.4c1.5,0,1.7,0,5.1,3.4
		c4.6,4.5,12.2,11.9,26.1,11.9c13.9,0,21.5-7.5,26.1-11.9c3.4-3.4,3.6-3.4,5.1-3.4s1.7,0,5.1,3.4c1.5,1.5,3.3,3.2,5.6,5l-16,33.1
		h-53L215,38.5C217.3,36.7,219.2,34.9,220.8,33.4z M162.5,446.9L144.3,482H94l12-27.5L30,333l0.5-135.4c0-7.2,6.2-13.2,13.7-13.3
		c3.6-0.1,6.9,1.2,9.4,3.7c2.3,2.3,3.6,5.3,3.6,8.6l0,0.7l9,104.3c-3.4,4.6-5.8,9.9-7.1,15.5c-2.6,11.2-0.7,22.6,5.3,32.2l40.9,69.2
		l25.8-15.3L90,333.7l-0.3-0.5c-1.8-2.8-2.3-6.1-1.6-9.3c0.8-3.6,3.1-6.6,6.4-8.5c6.2-3.6,14.1-2,17.9,3.6l44,74l0.3,0.4
		C166.9,409.4,169.1,428.8,162.5,446.9L162.5,446.9z M196.1,424.5c-0.3-16.6-5-32.9-14.1-47L138,303.4l-0.3-0.4
		c-7.5-11.6-19.7-18.4-32.6-19.4c0.2-0.6,0.4-1.1,0.5-1.7c18.6-58.6,61.5-106,117.9-130.4h65.9c56.2,24.6,98.8,72.2,117.3,130.9
		c0.1,0.4,0.3,0.8,0.4,1.2c-13,1-25.2,7.7-32.7,19.4l-44.3,74.5c-9,14.1-13.7,30.3-14.1,46.8c-18.7,8.6-39.3,13.1-60.1,13.1
		C235.2,437.4,214.7,432.9,196.1,424.5L196.1,424.5z M367.7,482l-18.3-35.1c-6.5-18.1-4.4-37.5,5.9-53.4l44.3-74.5
		c3.7-5.6,11.7-7.2,17.9-3.6c3.3,1.9,5.5,4.9,6.4,8.5c0.8,3.3,0.2,6.6-1.6,9.3l-41.4,69.9l25.8,15.3l40.9-69.2
		c6.1-9.6,8-21,5.3-32.2c-1.3-5.6-3.8-10.8-7.1-15.5l9-104.3l0-0.7c0-3.3,1.3-6.3,3.6-8.6c2.5-2.4,5.8-3.7,9.4-3.7
		c7.5,0.1,13.6,6.1,13.7,13.3L482,333l-76,121.5l12,27.5L367.7,482z"/>
	<path class="st0" d="M245.2,264.3c0-3.6,3.3-6.5,13.5-6.5c9.1,0,18.7,2.5,28.9,7.7l10.5-25.4c-8.5-4.8-19.1-7.6-30.1-8.6v-15.9
		h-20.9v16.2c-24.3,3.4-36.5,17.5-36.5,34.3c0,38.7,57.4,28.2,57.4,41.3c0,3.6-3.6,5.6-13.5,5.6c-11.4,0-24.5-3.7-34.3-9.5
		L208.9,329c8.9,5.5,23.3,9.5,38.2,10.4v15.7H268v-16.5c23-4,34.6-18,34.6-34C302.6,266.4,245.2,276.7,245.2,264.3L245.2,264.3z"/>
</g>
</svg>
