<?xml version="1.0" encoding="utf-8"?>
<!-- Generator: Adobe Illustrator 22.1.0, SVG Export Plug-In . SVG Version: 6.00 Build 0)  -->
<svg version="1.1" id="Capa_1" xmlns="http://www.w3.org/2000/svg" xmlns:xlink="http://www.w3.org/1999/xlink" x="0px" y="0px"
	 viewBox="0 0 512 512" style="enable-background:new 0 0 512 512;" xml:space="preserve">
<style type="text/css">
	.st0{fill:#1272AF;}
</style>
<g>
	<g>
		<g>
			<path class="st0" d="M221.8,420.3C119.9,416,40,332.6,40,230.4c0-104.8,85.2-190,190-190c88.3,0,166.3,62.5,185.5,148.6
				c2.4,10.8,13.1,17.6,23.9,15.2c10.8-2.4,17.6-13.1,15.2-23.9c-11.2-50.3-39.5-95.9-79.6-128.6C334.1,18.7,282.6,0.4,230,0.4
				c-61.4,0-119.2,23.9-162.6,67.4C23.9,111.2,0,169,0,230.4c0,59.7,22.8,116.3,64.2,159.4c41.2,42.9,96.7,67.9,156,70.4
				c0.3,0,0.6,0,0.9,0c10.7,0,19.5-8.4,20-19.2C241.4,430,232.9,420.7,221.8,420.3z"/>
			<path class="st0" d="M230,80.6c-11,0-20,9-20,20v121.6l-64.6,64.6c-7.8,7.8-7.8,20.5,0,28.3c3.9,3.9,9,5.9,14.1,5.9
				s10.2-2,14.1-5.9l70.5-70.5c3.8-3.8,5.9-8.8,5.9-14.1V100.6C250,89.5,241,80.6,230,80.6z"/>
			<path class="st0" d="M470.9,248.8c-20.9-8.5-48.1-13.2-76.9-13.2s-56,4.7-76.9,13.2c-35.8,14.6-41.1,35.6-41.1,46.8v156
				c0,11.2,5.3,32.2,41.1,46.8c20.9,8.5,48.1,13.2,76.9,13.2s56-4.7,76.9-13.2c35.8-14.6,41.1-35.6,41.1-46.8v-156
				C512,284.4,506.7,263.4,470.9,248.8z M472,450.9c-3.3,6.1-30.2,20.6-78,20.6s-74.7-14.5-78-20.6v-32.1c0.4,0.2,0.8,0.3,1.1,0.5
				c20.9,8.5,48.1,13.2,76.9,13.2c6.9,0,13.9-0.3,20.6-0.8c11-0.9,19.2-10.5,18.3-21.5c-0.9-11-10.5-19.2-21.5-18.3
				c-5.7,0.5-11.5,0.7-17.4,0.7c-47.8,0-74.7-14.5-78-20.6v-30c0.4,0.2,0.8,0.3,1.1,0.5c20.9,8.5,48.1,13.2,76.9,13.2
				c6.9,0,13.9-0.3,20.6-0.8c11-0.9,19.2-10.5,18.3-21.5c-0.9-11-10.5-19.2-21.5-18.3c-5.7,0.5-11.5,0.7-17.4,0.7
				c-46.2,0-72.9-13.5-77.6-20c4.7-6.5,31.4-20,77.6-20c47.8,0,74.7,14.5,78,20.6V450.9z"/>
		</g>
	</g>
</g>
</svg>
