<?xml version="1.0" encoding="utf-8"?>
<!-- Generator: Adobe Illustrator 22.1.0, SVG Export Plug-In . SVG Version: 6.00 Build 0)  -->
<svg version="1.1" id="Layer" xmlns="http://www.w3.org/2000/svg" xmlns:xlink="http://www.w3.org/1999/xlink" x="0px" y="0px"
	 viewBox="0 0 512 512" style="enable-background:new 0 0 512 512;" xml:space="preserve">
<style type="text/css">
	.st0{fill:#1272AF;}
</style>
<path class="st0" d="M144,384h48c8.8,0,16-7.2,16-16s-7.2-16-16-16h-48V96h224v272c0,8.8,7.2,16,16,16s16-7.2,16-16V96
	c0-17.6-14.4-32-32-32H144c-17.6,0-32,14.4-32,32v256C112,369.6,126.4,384,144,384z"/>
<path class="st0" d="M241.9,446.8c6,2.5,12.9,1.1,17.4-3.5l20.7-20.7l20.7,20.7c3.1,3.1,7.1,4.7,11.3,4.7c2.1,0,4.1-0.4,6.1-1.2
	c6-2.5,9.9-8.3,9.9-14.8v-99.3c5-8.4,8-18.2,8-28.7c0-30.9-25.1-56-56-56s-56,25.1-56,56c0,10.5,3,20.3,8,28.7V432
	C232,438.5,235.9,444.3,241.9,446.8L241.9,446.8z M264,393.4v-35.8c5.1,1.5,10.4,2.4,16,2.4s10.9-0.8,16-2.4v35.8
	C286.9,385.3,273.1,385.3,264,393.4z M280,280c13.2,0,24,10.8,24,24s-10.8,24-24,24s-24-10.8-24-24S266.8,280,280,280z"/>
<path class="st0" d="M320,176c0-8.8-7.2-16-16-16h-96c-8.8,0-16,7.2-16,16s7.2,16,16,16h96C312.8,192,320,184.8,320,176z"/>
</svg>
