<?xml version="1.0" encoding="utf-8"?>
<!-- Generator: Adobe Illustrator 22.1.0, SVG Export Plug-In . SVG Version: 6.00 Build 0)  -->
<svg version="1.1" id="Capa_1" xmlns="http://www.w3.org/2000/svg" xmlns:xlink="http://www.w3.org/1999/xlink" x="0px" y="0px"
	 viewBox="0 0 512 512" style="enable-background:new 0 0 512 512;" xml:space="preserve">
<style type="text/css">
	.st0{fill:#1272AF;}
</style>
<g>
	<path class="st0" d="M423.3,271.2c6.2,17.8,23.2,30.6,43.1,30.6c25.2,0,45.6-20.5,45.6-45.6s-20.5-45.6-45.6-45.6
		c-19.9,0-36.9,12.8-43.1,30.6h-66.6v-28.9h47.6l29.9-50.6c8.3,8.3,19.7,13.4,32.3,13.4c25.2,0,45.6-20.5,45.6-45.6
		s-20.5-45.6-45.6-45.6c-23.7,0-43.2,18.1-45.4,41.2l-33.9,57.3h-30.4v-27.4h-27.2v-30L387,91.1c23.1-2.3,41.2-21.8,41.2-45.4
		c0-25.2-20.5-45.6-45.6-45.6s-45.6,20.5-45.6,45.6c0,12.6,5.1,24,13.4,32.2l-50.8,29.9v47.1h-28.2V88.7
		c17.8-6.2,30.6-23.2,30.6-43.1c0-25.2-20.5-45.6-45.6-45.6s-45.6,20.5-45.6,45.6c0,19.9,12.8,36.9,30.6,43.1v66.2h-28.8v-47.1
		l-50.7-29.9c8.3-8.3,13.4-19.7,13.4-32.3c0-25.2-20.5-45.6-45.6-45.6S83.8,20.5,83.8,45.6c0,23.7,18.1,43.2,41.2,45.4l57.4,33.9v30
		h-27v27.4h-30.4L91.1,125c-2.3-23.1-21.8-41.2-45.4-41.2C20.5,83.8,0,104.3,0,129.5s20.5,45.6,45.6,45.6c12.6,0,24-5.1,32.3-13.4
		l29.9,50.6h47.6v28.5H88.7c-6.2-17.8-23.2-30.6-43.1-30.6C20.5,210.1,0,230.6,0,255.8s20.5,45.6,45.6,45.6
		c19.9,0,36.9-12.8,43.1-30.6h66.6v28.6h-47.6l-29.9,50.9c-8.3-8.2-19.7-13.4-32.2-13.4C20.5,336.9,0,357.4,0,382.5
		s20.5,45.6,45.6,45.6c23.7,0,43.2-18.1,45.4-41.2l33.9-57.6h30.4v26.8h27v30.9L125,420.9c-23.1,2.3-41.2,21.8-41.2,45.4
		c0,25.2,20.5,45.6,45.6,45.6s45.6-20.5,45.6-45.6c0-12.6-5.1-24-13.4-32.3l50.7-29.9v-48h28.4v67.1c-17.8,6.2-30.6,23.2-30.6,43.1
		c0,25.2,20.5,45.6,45.6,45.6s45.6-20.5,45.6-45.6c0-19.9-12.8-36.9-30.6-43.1v-67.1h28.7v48l50.8,29.9
		c-8.3,8.3-13.4,19.7-13.4,32.2c0,25.2,20.5,45.6,45.6,45.6s45.6-20.5,45.6-45.6c0-23.7-18.1-43.2-41.2-45.4l-57.5-33.9v-30.9h27.2
		v-26.8h30.4l33.9,57.6c2.2,23.1,21.8,41.2,45.4,41.2c25.2,0,45.6-20.5,45.6-45.6s-20.5-45.6-45.6-45.6c-12.6,0-24,5.1-32.2,13.4
		l-29.9-50.9h-47.6v-28.1L423.3,271.2z M466.4,240.6c8.6,0,15.6,7,15.6,15.6c0,8.6-7,15.6-15.6,15.6s-15.6-7-15.6-15.6
		C450.7,247.6,457.7,240.6,466.4,240.6z M466.4,113.8c8.6,0,15.6,7,15.6,15.6s-7,15.6-15.6,15.6s-15.6-7-15.6-15.6
		S457.7,113.8,466.4,113.8z M382.5,30c8.6,0,15.6,7,15.6,15.6c0,8.6-7,15.6-15.6,15.6c-8.6,0-15.6-7-15.6-15.6
		C366.9,37,373.9,30,382.5,30z M256.2,30c8.6,0,15.6,7,15.6,15.6c0,8.6-7,15.6-15.6,15.6s-15.6-7-15.6-15.6
		C240.6,37,247.6,30,256.2,30z M113.8,45.6c0-8.6,7-15.6,15.6-15.6c8.6,0,15.6,7,15.6,15.6c0,8.6-7,15.6-15.6,15.6
		C120.9,61.3,113.8,54.3,113.8,45.6z M45.6,145.1c-8.6,0-15.6-7-15.6-15.6s7-15.6,15.6-15.6s15.6,7,15.6,15.6S54.3,145.1,45.6,145.1
		z M45.6,271.4c-8.6,0-15.6-7-15.6-15.6c0-8.6,7-15.6,15.6-15.6s15.6,7,15.6,15.6S54.3,271.4,45.6,271.4z M45.6,398.2
		c-8.6,0-15.6-7-15.6-15.6s7-15.6,15.6-15.6s15.6,7,15.6,15.6C61.3,391.1,54.3,398.2,45.6,398.2z M129.5,482
		c-8.6,0-15.6-7-15.6-15.6s7-15.6,15.6-15.6c8.6,0,15.6,7,15.6,15.6S138.1,482,129.5,482z M255.8,482c-8.6,0-15.6-7-15.6-15.6
		s7-15.6,15.6-15.6c8.6,0,15.6,7,15.6,15.6S264.4,482,255.8,482z M398.2,466.4c0,8.6-7,15.6-15.6,15.6c-8.6,0-15.6-7-15.6-15.6
		s7-15.6,15.6-15.6C391.2,450.7,398.2,457.7,398.2,466.4z M466.4,366.9c8.6,0,15.6,7,15.6,15.6s-7,15.6-15.6,15.6s-15.6-7-15.6-15.6
		S457.7,366.9,466.4,366.9z M326.6,326.2H185.4V184.9h141.2L326.6,326.2L326.6,326.2z"/>
	<path class="st0" d="M297.3,214.2h-82.6v82.6h82.6V214.2z M267.3,266.8h-22.6v-22.6h22.6V266.8z"/>
</g>
</svg>
