<?xml version="1.0" encoding="utf-8"?>
<!-- Generator: Adobe Illustrator 22.1.0, SVG Export Plug-In . SVG Version: 6.00 Build 0)  -->
<svg version="1.1" id="Capa_1" xmlns="http://www.w3.org/2000/svg" xmlns:xlink="http://www.w3.org/1999/xlink" x="0px" y="0px"
	 viewBox="0 0 512 512" style="enable-background:new 0 0 512 512;" xml:space="preserve">
<style type="text/css">
	.st0{fill:#1272AF;}
</style>
<g>
	<path class="st0" d="M467,121H247L210.2,10.3C208.2,4.1,202.5,0,196,0H45C20.2,0,0,20.2,0,45v301c0,24.8,20.2,45,45,45h165.3
		l36.5,110.4c2,6.5,8,10.6,14.3,10.6c0,0,0.1,0,0.1,0H467c24.8,0,45-20.2,45-45V166C512,141.2,491.8,121,467,121L467,121z M45,361
		c-8.3,0-15-6.7-15-15V45c0-8.3,6.7-15,15-15h140.2l110,331C239,361,100.5,361,45,361z M292.7,391l-29.4,64.8L241.9,391H292.7z
		 M482,467c0,8.3-6.7,15-15,15H284.4l45.3-99.8c1.6-3.6,1.7-7.5,0.6-10.9L257,151h210c8.3,0,15,6.7,15,15V467z"/>
	<path class="st0" d="M196,181h-45c-8.3,0-15,6.7-15,15s6.7,15,15,15h27.4c-6.2,17.5-22.9,30-42.4,30c-24.8,0-45-20.2-45-45
		s20.2-45,45-45c12,0,23.3,4.7,31.8,13.2c5.9,5.9,15.4,5.9,21.2,0c5.9-5.9,5.9-15.4,0-21.2c-14.2-14.2-33-22-53-22
		c-41.4,0-75,33.6-75,75s33.6,75,75,75s75-33.6,75-75C211,187.7,204.3,181,196,181L196,181z"/>
	<path class="st0" d="M436,241h-45v-15c0-8.3-6.7-15-15-15s-15,6.7-15,15v15h-45c-8.3,0-15,6.7-15,15c0,8.3,6.7,15,15,15h87.1
		c-4.8,14.2-15,31-26.9,47.2c-2.6-3.5-5.1-7-7.5-10.6c-4.7-6.9-14-8.6-20.8-4c-6.9,4.7-8.6,14-4,20.8c4.2,6.2,8.6,12.2,13,17.9
		c-7.5,8.7-14.9,16.6-21.4,22.9c-5.9,5.8-6,15.3-0.2,21.2c5.8,5.9,15.3,6,21.2,0.2c0.5-0.5,8.7-8.6,19.6-20.9
		c10.7,12.2,18.6,20.2,19.3,20.8c5.9,5.9,15.3,5.9,21.2,0c5.9-5.9,5.9-15.4,0-21.2c-0.2-0.2-9.3-9.4-21.1-23.1
		c21.2-27.4,34.2-51.4,38.7-71.3h1.8c8.3,0,15-6.7,15-15C451,247.7,444.3,241,436,241L436,241z"/>
</g>
</svg>
