<?xml version="1.0" encoding="utf-8"?>
<!-- Generator: Adobe Illustrator 22.1.0, SVG Export Plug-In . SVG Version: 6.00 Build 0)  -->
<svg version="1.1" id="Capa_1" xmlns="http://www.w3.org/2000/svg" xmlns:xlink="http://www.w3.org/1999/xlink" x="0px" y="0px"
	 viewBox="0 0 512 512" style="enable-background:new 0 0 512 512;" xml:space="preserve">
<style type="text/css">
	.st0{fill:#1272AF;}
</style>
<g>
	<path class="st0" d="M30,150.3c0,9,0,20.5,0,20.5c0,23.8,11.3,46.4,30,60.9V242c0,34.8,24.9,65.7,59.2,73.3
		c15.7,3.5,31.8,6.3,47.9,8.2c23.8,20.9,54.9,33.5,89,33.5c34.1,0,65.2-12.7,89-33.6c16-1.9,32.1-4.7,47.8-8.2
		c34.4-7.7,59.3-38.5,59.3-73.3v-10.3c18.7-14.5,30-37.1,30-60.9c0,0,0-11.5,0-20.5c18.6-14.1,29.9-36.6,29.9-60.2V5.8l-30.8,30.8
		c-39.2,39.2-90.9,66-146.2,76c-22.2-16.1-49.5-25.6-79-25.6c-29.5,0-56.8,9.5-79,25.6c-55.4-10-107.1-36.9-146.3-76.1L0,5.8v84.3
		C0,113.8,11.3,136.2,30,150.3z M151,222.1c0-52.8,39.2-96.6,90-103.9v28.9c-24.8,0-45,20.2-45,45s20.2,45,45,45h30
		c8.3,0,15,6.7,15,15c0,8.3-6.7,15-15,15h-30c-8.3,0-15-6.7-15-15h-30c0,24.8,20.2,45,45,45V326C190.2,318.7,151,274.9,151,222.1z
		 M271.1,326v-28.9c24.8,0,45-20.2,45-45s-20.2-45-45-45h-30c-8.3,0-15-6.7-15-15s6.7-15,15-15h30c8.3,0,15,6.7,15,15h30
		c0-24.8-20.2-45-45-45v-28.9c50.8,7.3,90,51.1,90,103.9S321.9,318.7,271.1,326z M482.1,76.4v13.7c0,31.2-27.8,41.7-30,43.8l0,37
		c0,31.6-28.3,43-30,44.6V242c0,20.9-15.1,39.4-35.8,44.1c-4.2,0.9-8.5,1.8-12.8,2.7c11.2-19.7,17.6-42.4,17.6-66.7
		c0-31.9-11.2-61.3-29.8-84.5C405.6,126.3,447.3,105.3,482.1,76.4z M30,76.4c34.9,28.9,76.4,49.9,120.8,61.2
		c-18.6,23.1-29.8,52.5-29.8,84.5c0,24.2,6.4,47,17.6,66.7c-4.3-0.8-8.6-1.7-12.9-2.7C105.1,281.5,90,262.9,90,242v-26.6
		c-1.6-1.5-30-13.1-30-44.6l0-37c-2.1-2-30-12.7-30-43.8L30,76.4z"/>
	<path class="st0" d="M241,387.1h30v119h-30V387.1z"/>
	<path class="st0" d="M301.1,387.1h30v90h-30V387.1z"/>
	<path class="st0" d="M181,387.1h30v90h-30V387.1z"/>
</g>
</svg>
