<?xml version="1.0" encoding="utf-8"?>
<!-- Generator: Adobe Illustrator 22.1.0, SVG Export Plug-In . SVG Version: 6.00 Build 0)  -->
<svg version="1.1" id="Capa_1" xmlns="http://www.w3.org/2000/svg" xmlns:xlink="http://www.w3.org/1999/xlink" x="0px" y="0px"
	 viewBox="0 0 512 512" style="enable-background:new 0 0 512 512;" xml:space="preserve">
<style type="text/css">
	.st0{fill:#1272AF;}
</style>
<g>
	<path class="st0" d="M0,451h512c0-45.8,0-353.2,0-390H0V451z M301,421h-90v-90h90V421z M482,421H331v-30h151V421z M482,361H331v-30
		h151V361z M30,91h452v210H30V91z M30,331h151v30H30V331z M30,391h151v30H30V391z"/>
	<path class="st0" d="M60,271h392V121H60V271z M316,151h106v90H316c9.4-12.5,15-28.1,15-45S325.4,163.5,316,151z M256,151
		c24.8,0,45,20.2,45,45s-20.2,45-45,45s-45-20.2-45-45S231.2,151,256,151L256,151z M90,151h106c-9.4,12.6-15,28.1-15,45
		s5.6,32.5,15,45H90V151z"/>
	<path class="st0" d="M121,181h30v30h-30V181z"/>
	<path class="st0" d="M361,181h30v30h-30V181z"/>
</g>
</svg>
