<?xml version="1.0" encoding="utf-8"?>
<!-- Generator: Adobe Illustrator 22.1.0, SVG Export Plug-In . SVG Version: 6.00 Build 0)  -->
<svg version="1.1" id="Capa_1" xmlns="http://www.w3.org/2000/svg" xmlns:xlink="http://www.w3.org/1999/xlink" x="0px" y="0px"
	 viewBox="0 0 512 512" style="enable-background:new 0 0 512 512;" xml:space="preserve">
<style type="text/css">
	.st0{fill:#1272AF;}
</style>
<g>
	<g>
		<g>
			<path class="st0" d="M432,33.5H80c-44.1,0-80,35.9-80,80v216c0,44.1,35.9,80,80,80h123c11,0,20-9,20-20s-9-20-20-20H80
				c-22.1,0-40-17.9-40-40V179.6h432v49c0,11,9,20,20,20s20-9,20-20V113.5C512,69.4,476.1,33.5,432,33.5z M472,139.6H40v-26.1
				c0-22.1,17.9-40,40-40h352c22.1,0,40,17.9,40,40V139.6z"/>
			<path class="st0" d="M503.6,292.3c-9-6.4-21.5-4.4-27.9,4.6l-98.6,137.7c-2.7,3.1-6.1,3.8-7.9,3.9c-1.9,0.1-5.5-0.1-8.6-3.1
				l-63.8-61.3c-8-7.7-20.6-7.4-28.3,0.6c-7.7,8-7.4,20.6,0.6,28.3l63.9,61.3c9.6,9.1,22.3,14.2,35.5,14.2c1.1,0,2.3,0,3.4-0.1
				c14.3-1,27.7-7.9,36.7-19.1c0.2-0.3,0.5-0.6,0.7-0.9l99-138.3C514.7,311.2,512.6,298.7,503.6,292.3z"/>
		</g>
	</g>
</g>
</svg>
