<?xml version="1.0" encoding="utf-8"?>
<!-- Generator: Adobe Illustrator 22.1.0, SVG Export Plug-In . SVG Version: 6.00 Build 0)  -->
<svg version="1.1" id="Слой_1" xmlns="http://www.w3.org/2000/svg" xmlns:xlink="http://www.w3.org/1999/xlink" x="0px" y="0px"
	 viewBox="0 0 512 512" style="enable-background:new 0 0 512 512;" xml:space="preserve">
<style type="text/css">
	.st0{fill:#1272AF;}
</style>
<path class="st0" d="M510.1,321.9L448.7,76.5c-7-28-32-47.5-60.9-47.5H124.1c-28.8,0-53.9,19.5-60.9,47.5L1.9,321.9
	c-9.9,39.6,20,78,60.9,78h7.8v61.4c0,11.6,9.4,20.9,20.9,20.9s20.9-9.4,20.9-20.9v-61.4h287.2v61.4c0,11.6,9.4,20.9,20.9,20.9
	s20.9-9.4,20.9-20.9v-61.4h7.8C490,399.9,520,361.6,510.1,321.9z M449.2,358.1H62.8c-13.6,0-23.6-12.8-20.3-26l61.4-245.4
	c2.3-9.3,10.7-15.8,20.3-15.8h263.7c9.6,0,18,6.5,20.3,15.8l61.4,245.4C472.8,345.3,462.8,358.1,449.2,358.1z"/>
</svg>
