<?xml version="1.0" encoding="utf-8"?>
<!-- Generator: Adobe Illustrator 22.0.1, SVG Export Plug-In . SVG Version: 6.00 Build 0)  -->
<svg version="1.1" id="Слой_1" xmlns="http://www.w3.org/2000/svg" xmlns:xlink="http://www.w3.org/1999/xlink" x="0px" y="0px"
	 width="648.3px" height="493.6px" viewBox="0 0 648.3 493.6" style="enable-background:new 0 0 648.3 493.6;" xml:space="preserve"
	>
<style type="text/css">
	.st0{clip-path:url(#SVGID_2_);fill:url(#SVGID_3_);}
	.st1{clip-path:url(#SVGID_5_);fill:url(#SVGID_6_);}
	.st2{clip-path:url(#SVGID_8_);fill:url(#SVGID_9_);}
	.st3{clip-path:url(#SVGID_11_);fill:url(#SVGID_12_);}
	.st4{fill:#FFFFFF;}
	.st5{clip-path:url(#SVGID_14_);fill:url(#SVGID_15_);}
	.st6{clip-path:url(#SVGID_17_);fill:url(#SVGID_18_);}
	.st7{clip-path:url(#SVGID_20_);fill:url(#SVGID_21_);}
	.st8{clip-path:url(#SVGID_23_);fill:url(#SVGID_24_);}
	.st9{clip-path:url(#SVGID_26_);fill:url(#SVGID_27_);}
	.st10{clip-path:url(#SVGID_29_);fill:url(#SVGID_30_);}
	.st11{clip-path:url(#SVGID_32_);fill:url(#SVGID_33_);}
	.st12{clip-path:url(#SVGID_35_);fill:url(#SVGID_36_);}
	.st13{clip-path:url(#SVGID_38_);fill:url(#SVGID_39_);}
	.st14{clip-path:url(#SVGID_41_);fill:url(#SVGID_42_);}
	.st15{clip-path:url(#SVGID_44_);fill:url(#SVGID_45_);}
	.st16{clip-path:url(#SVGID_47_);fill:url(#SVGID_48_);}
	.st17{clip-path:url(#SVGID_50_);fill:url(#SVGID_51_);}
	.st18{clip-path:url(#SVGID_53_);fill:url(#SVGID_54_);}
	.st19{clip-path:url(#SVGID_56_);fill:url(#SVGID_57_);}
	.st20{clip-path:url(#SVGID_59_);fill:url(#SVGID_60_);}
	.st21{clip-path:url(#SVGID_62_);fill:url(#SVGID_63_);}
	.st22{clip-path:url(#SVGID_65_);fill:url(#SVGID_66_);}
	.st23{clip-path:url(#SVGID_68_);fill:url(#SVGID_69_);}
	.st24{clip-path:url(#SVGID_71_);fill:url(#SVGID_72_);}
	.st25{clip-path:url(#SVGID_74_);fill:url(#SVGID_75_);}
	.st26{clip-path:url(#SVGID_77_);fill:url(#SVGID_78_);}
	.st27{clip-path:url(#SVGID_80_);fill:url(#SVGID_81_);}
	.st28{clip-path:url(#SVGID_83_);fill:url(#SVGID_84_);}
	.st29{clip-path:url(#SVGID_86_);fill:url(#SVGID_87_);}
</style>
<g>
	<defs>
		<polygon id="SVGID_1_" points="373.6,120.8 324.5,493.6 423.4,72.6 		"/>
	</defs>
	<clipPath id="SVGID_2_">
		<use xlink:href="#SVGID_1_"  style="overflow:visible;"/>
	</clipPath>
	
		<linearGradient id="SVGID_3_" gradientUnits="userSpaceOnUse" x1="0" y1="493.627" x2="1" y2="493.627" gradientTransform="matrix(-120.6055 -351.8359 -351.8359 120.6055 174109.9531 -59075.0977)">
		<stop  offset="0" style="stop-color:#FFFDBB"/>
		<stop  offset="4.161118e-02" style="stop-color:#FFF6A8"/>
		<stop  offset="8.686925e-02" style="stop-color:#FFF29B"/>
		<stop  offset="0.1289" style="stop-color:#FFF097"/>
		<stop  offset="0.3192" style="stop-color:#FFDC7B"/>
		<stop  offset="0.5649" style="stop-color:#FFD55F"/>
		<stop  offset="0.7615" style="stop-color:#FFCD2C"/>
		<stop  offset="0.9028" style="stop-color:#E5890E"/>
		<stop  offset="1" style="stop-color:#A8610C"/>
	</linearGradient>
	<polygon class="st0" points="334.9,524 195.3,116.9 413,42.2 552.6,449.4 	"/>
</g>
<g>
	<defs>
		<polygon id="SVGID_4_" points="324.5,493.6 274.2,120.4 224.8,71.8 		"/>
	</defs>
	<clipPath id="SVGID_5_">
		<use xlink:href="#SVGID_4_"  style="overflow:visible;"/>
	</clipPath>
	
		<linearGradient id="SVGID_6_" gradientUnits="userSpaceOnUse" x1="0" y1="493.6583" x2="1" y2="493.6583" gradientTransform="matrix(-88.0111 -422.2571 -422.2571 88.0111 208770.0938 -42949.957)">
		<stop  offset="0" style="stop-color:#FFFDBB"/>
		<stop  offset="4.161118e-02" style="stop-color:#FFF6A8"/>
		<stop  offset="8.686925e-02" style="stop-color:#FFF29B"/>
		<stop  offset="0.1289" style="stop-color:#FFF097"/>
		<stop  offset="0.5411" style="stop-color:#FFCD2C"/>
		<stop  offset="1" style="stop-color:#EFA319"/>
	</linearGradient>
	<polygon class="st1" points="228.9,513.5 140.5,89.3 320.3,51.8 408.7,476.1 	"/>
</g>
<g>
	<defs>
		<polygon id="SVGID_7_" points="324.5,493.6 385,189.2 323.7,156.7 		"/>
	</defs>
	<clipPath id="SVGID_8_">
		<use xlink:href="#SVGID_7_"  style="overflow:visible;"/>
	</clipPath>
	
		<linearGradient id="SVGID_9_" gradientUnits="userSpaceOnUse" x1="0" y1="493.6249" x2="1" y2="493.6249" gradientTransform="matrix(-22.3936 -335.501 -335.501 22.3936 165977.0625 -10563.1621)">
		<stop  offset="0" style="stop-color:#FFFDBB"/>
		<stop  offset="4.161118e-02" style="stop-color:#FFF6A8"/>
		<stop  offset="8.686925e-02" style="stop-color:#FFF29B"/>
		<stop  offset="0.1289" style="stop-color:#FFF097"/>
		<stop  offset="0.3746" style="stop-color:#FFD55F"/>
		<stop  offset="1" style="stop-color:#FFCD2C"/>
	</linearGradient>
	<polygon class="st2" points="324,497.7 301.3,158.2 384.7,152.6 407.4,492.1 	"/>
</g>
<g>
	<defs>
		<polygon id="SVGID_10_" points="288,175.3 262.2,188.7 324.5,493.6 323.7,156.7 		"/>
	</defs>
	<clipPath id="SVGID_11_">
		<use xlink:href="#SVGID_10_"  style="overflow:visible;"/>
	</clipPath>
	
		<linearGradient id="SVGID_12_" gradientUnits="userSpaceOnUse" x1="0" y1="493.665" x2="1" y2="493.665" gradientTransform="matrix(-29.667 -339.1914 -339.1914 29.667 167755.5 -14145.8965)">
		<stop  offset="0" style="stop-color:#FFFDBB"/>
		<stop  offset="4.161118e-02" style="stop-color:#FFF6A8"/>
		<stop  offset="8.686925e-02" style="stop-color:#FFF29B"/>
		<stop  offset="0.1289" style="stop-color:#FFF097"/>
		<stop  offset="0.7097" style="stop-color:#FFCD2C"/>
		<stop  offset="1" style="stop-color:#EFA41A"/>
	</linearGradient>
	<polygon class="st3" points="262.7,499 233,159.2 324,151.3 353.7,491.1 	"/>
</g>
<polygon class="st4" points="323.8,134.4 359,153.1 352.4,113.8 381,86.2 341.7,80.3 324.2,44.5 306.5,80.1 267.1,85.7 295.4,113.6 
	288.5,152.8 "/>
<path class="st4" d="M372,171.1l-9-53.8l39.2-37.9l-54-8.1l-24-49l-24.4,48.8l-54,7.6l38.9,38.3l-7.2,41.2l-2,12.6l48.2-25.2
	L372,171.1z M267.1,85.7l39.4-5.6l17.8-35.6l17.5,35.7l39.3,5.9l-28.6,27.6l6.6,39.2l-35.1-18.7l-35.3,18.4l6.9-39.2L267.1,85.7z"/>
<g>
	<defs>
		<path id="SVGID_13_" d="M295.4,113.6l-28.4-27.9l39.4-5.6l17.8-35.6l17.5,35.7l39.3,5.9l-28.6,27.6l6.6,39.2l-35.1-18.7
			l-35.3,18.4L295.4,113.6z M324.4,0l-31,62.1l-68.7,9.7l49.5,48.6l-4.4,25.1l-7.6,43.2l25.8-13.4l35.7-18.6l61.3,32.5l-11.4-68.4
			l49.9-48.2l-68.6-10.3L324.4,0z"/>
	</defs>
	<clipPath id="SVGID_14_">
		<use xlink:href="#SVGID_13_"  style="overflow:visible;"/>
	</clipPath>
	
		<linearGradient id="SVGID_15_" gradientUnits="userSpaceOnUse" x1="0" y1="493.6815" x2="1" y2="493.6815" gradientTransform="matrix(225.6579 115.4504 115.4504 -225.6579 -56770.5234 111447.1172)">
		<stop  offset="0" style="stop-color:#FFFDBB"/>
		<stop  offset="6.149169e-03" style="stop-color:#FCF1A9"/>
		<stop  offset="2.403503e-02" style="stop-color:#F5D17A"/>
		<stop  offset="4.190628e-02" style="stop-color:#EFB753"/>
		<stop  offset="5.947571e-02" style="stop-color:#EBA335"/>
		<stop  offset="7.664332e-02" style="stop-color:#E8951F"/>
		<stop  offset="9.322854e-02" style="stop-color:#E68C12"/>
		<stop  offset="0.1086" style="stop-color:#E5890E"/>
		<stop  offset="0.1257" style="stop-color:#E7911A"/>
		<stop  offset="0.2566" style="stop-color:#F4CB70"/>
		<stop  offset="0.3488" style="stop-color:#FCEFA6"/>
		<stop  offset="0.3935" style="stop-color:#FFFDBB"/>
		<stop  offset="0.603" style="stop-color:#FFCD2C"/>
		<stop  offset="0.7757" style="stop-color:#FFFDBB"/>
		<stop  offset="0.8266" style="stop-color:#F5D078"/>
		<stop  offset="0.9097" style="stop-color:#E5890E"/>
		<stop  offset="1" style="stop-color:#A8610C"/>
	</linearGradient>
	<polygon class="st5" points="266,-80.6 500.2,39.3 382.2,269.8 148,150 	"/>
</g>
<g>
	<defs>
		<polygon id="SVGID_16_" points="436.1,238.7 323.9,493.6 487,211.7 		"/>
	</defs>
	<clipPath id="SVGID_17_">
		<use xlink:href="#SVGID_16_"  style="overflow:visible;"/>
	</clipPath>
	
		<linearGradient id="SVGID_18_" gradientUnits="userSpaceOnUse" x1="0" y1="493.627" x2="1" y2="493.627" gradientTransform="matrix(112.7189 -291.6753 -291.6753 -112.7189 144327.0781 56141.7188)">
		<stop  offset="0" style="stop-color:#FFFDBB"/>
		<stop  offset="4.161118e-02" style="stop-color:#FFF6A8"/>
		<stop  offset="8.686925e-02" style="stop-color:#FFF29B"/>
		<stop  offset="0.1289" style="stop-color:#FFF097"/>
		<stop  offset="0.3957" style="stop-color:#FFCD2C"/>
		<stop  offset="1" style="stop-color:#F1AA1C"/>
	</linearGradient>
	<polygon class="st6" points="229.1,457 345.1,156.9 581.8,248.3 465.8,548.5 	"/>
</g>
<g>
	<defs>
		<polygon id="SVGID_19_" points="323.9,493.6 445.6,181.9 404.2,141.8 		"/>
	</defs>
	<clipPath id="SVGID_20_">
		<use xlink:href="#SVGID_19_"  style="overflow:visible;"/>
	</clipPath>
	
		<linearGradient id="SVGID_21_" gradientUnits="userSpaceOnUse" x1="2.940687e-07" y1="493.6393" x2="1" y2="493.6393" gradientTransform="matrix(77.6938 -347.3373 -347.3373 -77.6938 171803.7188 38850.9336)">
		<stop  offset="0" style="stop-color:#FFFDBB"/>
		<stop  offset="4.161118e-02" style="stop-color:#FFF6A8"/>
		<stop  offset="8.686925e-02" style="stop-color:#FFF29B"/>
		<stop  offset="0.1289" style="stop-color:#FFF097"/>
		<stop  offset="0.6654" style="stop-color:#FFCD2C"/>
		<stop  offset="1" style="stop-color:#F1A71B"/>
	</linearGradient>
	<polygon class="st7" points="249,476.9 329.7,115.9 520.5,158.6 439.8,519.6 	"/>
</g>
<g>
	<defs>
		<polygon id="SVGID_22_" points="323.9,493.6 538.1,238.3 516.7,227.2 487,211.7 		"/>
	</defs>
	<clipPath id="SVGID_23_">
		<use xlink:href="#SVGID_22_"  style="overflow:visible;"/>
	</clipPath>
	
		<linearGradient id="SVGID_24_" gradientUnits="userSpaceOnUse" x1="0" y1="493.6058" x2="1" y2="493.6058" gradientTransform="matrix(147.1149 -265.6621 265.6621 147.1149 -130777.375 -72126.8125)">
		<stop  offset="0" style="stop-color:#FFFDBB"/>
		<stop  offset="4.161118e-02" style="stop-color:#FFF6A8"/>
		<stop  offset="8.686925e-02" style="stop-color:#FFF29B"/>
		<stop  offset="0.1289" style="stop-color:#FFF097"/>
		<stop  offset="0.3746" style="stop-color:#FFD55F"/>
		<stop  offset="1" style="stop-color:#FFCD2C"/>
	</linearGradient>
	<polygon class="st8" points="487.8,584.4 657.6,277.9 374.2,120.9 204.4,427.5 	"/>
</g>
<g>
	<defs>
		<polygon id="SVGID_25_" points="323.9,493.6 436.1,238.7 445.6,181.9 		"/>
	</defs>
	<clipPath id="SVGID_26_">
		<use xlink:href="#SVGID_25_"  style="overflow:visible;"/>
	</clipPath>
	
		<linearGradient id="SVGID_27_" gradientUnits="userSpaceOnUse" x1="1.027965e-07" y1="493.627" x2="1" y2="493.627" gradientTransform="matrix(21.2541 -318.4288 318.4288 21.2541 -156810.9531 -9994.6289)">
		<stop  offset="0" style="stop-color:#FFFDBB"/>
		<stop  offset="4.161118e-02" style="stop-color:#FFF6A8"/>
		<stop  offset="8.686925e-02" style="stop-color:#FFF29B"/>
		<stop  offset="0.1289" style="stop-color:#FFF097"/>
		<stop  offset="0.3746" style="stop-color:#FFD55F"/>
		<stop  offset="1" style="stop-color:#FFCD2C"/>
	</linearGradient>
	<polygon class="st9" points="445.1,501.7 466.3,183.3 324.4,173.8 303.2,492.2 	"/>
</g>
<g>
	<defs>
		<polygon id="SVGID_28_" points="569.2,141.2 531.8,202.4 528.1,181.6 		"/>
	</defs>
	<clipPath id="SVGID_29_">
		<use xlink:href="#SVGID_28_"  style="overflow:visible;"/>
	</clipPath>
	
		<linearGradient id="SVGID_30_" gradientUnits="userSpaceOnUse" x1="0" y1="493.6437" x2="1" y2="493.6437" gradientTransform="matrix(147.1703 -264.9747 264.9747 147.1703 -130391.0156 -72232)">
		<stop  offset="0" style="stop-color:#FFFDBB"/>
		<stop  offset="4.161118e-02" style="stop-color:#FFF6A8"/>
		<stop  offset="8.686925e-02" style="stop-color:#FFF29B"/>
		<stop  offset="0.1289" style="stop-color:#FFF097"/>
		<stop  offset="0.3192" style="stop-color:#FFDC7B"/>
		<stop  offset="0.5649" style="stop-color:#FFD55F"/>
		<stop  offset="0.7615" style="stop-color:#FFCD2C"/>
		<stop  offset="0.9028" style="stop-color:#E5890E"/>
		<stop  offset="1" style="stop-color:#A8610C"/>
	</linearGradient>
	<polygon class="st10" points="559.5,219.8 595.2,155.6 537.8,123.7 502.1,188 	"/>
</g>
<polygon class="st4" points="486.9,193.2 457.7,208.7 463.2,176.1 439.4,153.1 472.1,148.2 486.6,118.5 501.3,148.1 534.1,152.7 
	510.5,175.9 516.2,208.5 "/>
<path class="st4" d="M486.9,202.5l40.1,20.9l-1.7-10.4l-6-34.2l32.3-31.8l-44.9-6.3L486.5,100l-19.9,40.7l-44.8,6.7l32.6,31.5
	l-7.5,44.7L486.9,202.5z M510.5,175.9l5.7,32.6l-29.3-15.3l-29.2,15.5l5.5-32.6l-23.8-23l32.7-4.9l14.5-29.7l14.8,29.6l32.7,4.6
	L510.5,175.9z"/>
<g>
	<defs>
		<path id="SVGID_31_" d="M445.6,181.9l-9.5,56.8l50.9-27l29.7,15.4l21.5,11.2l-6.3-35.9l-3.7-20.8l41.1-40.4l-57.1-8l-25.7-51.6
			l-25.3,51.8l-57,8.5L445.6,181.9z M510.5,175.9l5.7,32.6l-29.3-15.3l-29.2,15.5l5.5-32.6l-23.8-23l32.7-4.9l14.5-29.7l14.8,29.6
			l32.7,4.6L510.5,175.9z"/>
	</defs>
	<clipPath id="SVGID_32_">
		<use xlink:href="#SVGID_31_"  style="overflow:visible;"/>
	</clipPath>
	
		<linearGradient id="SVGID_33_" gradientUnits="userSpaceOnUse" x1="0" y1="493.6815" x2="1" y2="493.6815" gradientTransform="matrix(-187.4957 95.926 -95.926 -187.4957 47925.7461 92681.2578)">
		<stop  offset="0" style="stop-color:#FFFDBB"/>
		<stop  offset="6.149169e-03" style="stop-color:#FCF1A9"/>
		<stop  offset="2.403503e-02" style="stop-color:#F5D17A"/>
		<stop  offset="4.190628e-02" style="stop-color:#EFB753"/>
		<stop  offset="5.947571e-02" style="stop-color:#EBA335"/>
		<stop  offset="7.664332e-02" style="stop-color:#E8951F"/>
		<stop  offset="9.322854e-02" style="stop-color:#E68C12"/>
		<stop  offset="0.1086" style="stop-color:#E5890E"/>
		<stop  offset="0.1257" style="stop-color:#E7911A"/>
		<stop  offset="0.2566" style="stop-color:#F4CB70"/>
		<stop  offset="0.3488" style="stop-color:#FCEFA6"/>
		<stop  offset="0.3935" style="stop-color:#FFFDBB"/>
		<stop  offset="0.603" style="stop-color:#FFCD2C"/>
		<stop  offset="0.7757" style="stop-color:#FFFDBB"/>
		<stop  offset="0.8266" style="stop-color:#F5D078"/>
		<stop  offset="0.9097" style="stop-color:#E5890E"/>
		<stop  offset="1" style="stop-color:#A8610C"/>
	</linearGradient>
	<polygon class="st11" points="535,14.6 340.4,114.1 438.4,305.7 633,206.1 	"/>
</g>
<g>
	<defs>
		<polygon id="SVGID_34_" points="548.3,324.7 324,493.6 586.5,304.4 		"/>
	</defs>
	<clipPath id="SVGID_35_">
		<use xlink:href="#SVGID_34_"  style="overflow:visible;"/>
	</clipPath>
	
		<linearGradient id="SVGID_36_" gradientUnits="userSpaceOnUse" x1="-6.202481e-08" y1="493.627" x2="1" y2="493.627" gradientTransform="matrix(13.7416 -205.8765 205.8765 13.7416 -101177.8125 -6281.2988)">
		<stop  offset="0" style="stop-color:#FFFDBB"/>
		<stop  offset="4.161118e-02" style="stop-color:#FFF6A8"/>
		<stop  offset="8.686925e-02" style="stop-color:#FFF29B"/>
		<stop  offset="0.1289" style="stop-color:#FFF097"/>
		<stop  offset="0.6103" style="stop-color:#FFCD2C"/>
		<stop  offset="1" style="stop-color:#F0A51A"/>
	</linearGradient>
	<polygon class="st12" points="585.4,511.1 599.1,305.2 325.2,286.9 311.4,492.8 	"/>
</g>
<g>
	<defs>
		<polygon id="SVGID_37_" points="324,493.6 555.4,282 524.3,251.9 		"/>
	</defs>
	<clipPath id="SVGID_38_">
		<use xlink:href="#SVGID_37_"  style="overflow:visible;"/>
	</clipPath>
	
		<linearGradient id="SVGID_39_" gradientUnits="userSpaceOnUse" x1="0" y1="493.6107" x2="1" y2="493.6107" gradientTransform="matrix(96.7123 -282.1338 282.1338 96.7123 -138874.5313 -47219.668)">
		<stop  offset="0" style="stop-color:#FFFDBB"/>
		<stop  offset="4.161118e-02" style="stop-color:#FFF6A8"/>
		<stop  offset="8.686925e-02" style="stop-color:#FFF29B"/>
		<stop  offset="0.1289" style="stop-color:#FFF097"/>
		<stop  offset="0.4275" style="stop-color:#FFCD2C"/>
		<stop  offset="1" style="stop-color:#F1A91C"/>
	</linearGradient>
	<polygon class="st13" points="531.1,564.6 629.6,277.3 348.3,180.9 249.8,468.2 	"/>
</g>
<g>
	<defs>
		<polygon id="SVGID_40_" points="324,493.6 624.9,324.3 608.8,316 586.5,304.4 		"/>
	</defs>
	<clipPath id="SVGID_41_">
		<use xlink:href="#SVGID_40_"  style="overflow:visible;"/>
	</clipPath>
	
		<linearGradient id="SVGID_42_" gradientUnits="userSpaceOnUse" x1="0" y1="493.6502" x2="1" y2="493.6502" gradientTransform="matrix(261.3971 -210.9126 -210.9126 -261.3971 104453.1797 129549.2969)">
		<stop  offset="0" style="stop-color:#FFFDBB"/>
		<stop  offset="4.161118e-02" style="stop-color:#FFF6A8"/>
		<stop  offset="8.686925e-02" style="stop-color:#FFF29B"/>
		<stop  offset="0.1289" style="stop-color:#FFF097"/>
		<stop  offset="0.3746" style="stop-color:#FFD55F"/>
		<stop  offset="1" style="stop-color:#FFCD2C"/>
	</linearGradient>
	<polygon class="st14" points="231.5,379 506.3,157.3 717.4,419 442.7,640.7 	"/>
</g>
<g>
	<defs>
		<polygon id="SVGID_43_" points="324,493.6 548.3,324.7 555.4,282 		"/>
	</defs>
	<clipPath id="SVGID_44_">
		<use xlink:href="#SVGID_43_"  style="overflow:visible;"/>
	</clipPath>
	
		<linearGradient id="SVGID_45_" gradientUnits="userSpaceOnUse" x1="0" y1="493.6648" x2="1" y2="493.6648" gradientTransform="matrix(199.2556 -226.7767 -226.7767 -199.2556 112288.7734 98870.0781)">
		<stop  offset="0" style="stop-color:#FFFDBB"/>
		<stop  offset="4.161118e-02" style="stop-color:#FFF6A8"/>
		<stop  offset="8.686925e-02" style="stop-color:#FFF29B"/>
		<stop  offset="0.1289" style="stop-color:#FFF097"/>
		<stop  offset="0.3746" style="stop-color:#FFD55F"/>
		<stop  offset="1" style="stop-color:#FFCD2C"/>
	</linearGradient>
	<polygon class="st15" points="219,401.4 424.8,167.2 660.4,374.2 454.6,608.4 	"/>
</g>
<g>
	<defs>
		<polygon id="SVGID_46_" points="617.4,281.7 620.2,297.4 648.3,251.4 		"/>
	</defs>
	<clipPath id="SVGID_47_">
		<use xlink:href="#SVGID_46_"  style="overflow:visible;"/>
	</clipPath>
	
		<linearGradient id="SVGID_48_" gradientUnits="userSpaceOnUse" x1="0" y1="493.6437" x2="1" y2="493.6437" gradientTransform="matrix(110.5479 -199.0375 199.0375 110.5479 -97723.3125 -54112.207)">
		<stop  offset="0" style="stop-color:#FFFDBB"/>
		<stop  offset="4.161118e-02" style="stop-color:#FFF6A8"/>
		<stop  offset="8.686925e-02" style="stop-color:#FFF29B"/>
		<stop  offset="0.1289" style="stop-color:#FFF097"/>
		<stop  offset="0.3192" style="stop-color:#FFDC7B"/>
		<stop  offset="0.5649" style="stop-color:#FFD55F"/>
		<stop  offset="0.7615" style="stop-color:#FFCD2C"/>
		<stop  offset="1" style="stop-color:#EFA31A"/>
	</linearGradient>
	<polygon class="st16" points="641,310.5 667.8,262.2 624.7,238.3 597.9,286.5 	"/>
</g>
<polygon class="st4" points="586.5,290.5 564.6,302.1 568.6,277.6 550.8,260.4 575.4,256.7 586.2,234.4 597.3,256.6 621.9,260.1 
	604.2,277.5 608.5,301.9 "/>
<path class="st4" d="M586.5,297.4l30.1,15.7l-1.3-7.8l-4.5-25.7l24.3-23.9l-33.7-4.8l-15.2-30.5l-14.9,30.6l-33.7,5l24.5,23.7
	l-5.6,33.6L586.5,297.4z M604.2,277.5l4.3,24.5l-22-11.5l-21.9,11.6l4.1-24.5l-17.9-17.3l24.6-3.7l10.9-22.3l11.1,22.2l24.6,3.5
	L604.2,277.5z"/>
<g>
	<defs>
		<path id="SVGID_49_" d="M568.7,277.6l-17.9-17.3l24.6-3.7l10.9-22.3l11.1,22.2l24.6,3.5l-17.7,17.4l4.3,24.5l-22-11.5l-21.9,11.6
			L568.7,277.6z M567.1,245.5l-42.8,6.4l31.1,30.1l-7.1,42.7l38.2-20.3l22.3,11.6l16.1,8.4l-4.7-27l-2.8-15.6l30.9-30.3l-42.9-6
			l-19.3-38.7L567.1,245.5z"/>
	</defs>
	<clipPath id="SVGID_50_">
		<use xlink:href="#SVGID_49_"  style="overflow:visible;"/>
	</clipPath>
	
		<linearGradient id="SVGID_51_" gradientUnits="userSpaceOnUse" x1="0" y1="493.6815" x2="1" y2="493.6815" gradientTransform="matrix(-140.8504 72.0614 -72.0614 -140.8504 36223.4453 69769.25)">
		<stop  offset="0" style="stop-color:#FFFDBB"/>
		<stop  offset="6.149169e-03" style="stop-color:#FCF1A9"/>
		<stop  offset="2.403503e-02" style="stop-color:#F5D17A"/>
		<stop  offset="4.190628e-02" style="stop-color:#EFB753"/>
		<stop  offset="5.947571e-02" style="stop-color:#EBA335"/>
		<stop  offset="7.664332e-02" style="stop-color:#E8951F"/>
		<stop  offset="9.322854e-02" style="stop-color:#E68C12"/>
		<stop  offset="0.1086" style="stop-color:#E5890E"/>
		<stop  offset="0.1257" style="stop-color:#E7911A"/>
		<stop  offset="0.2566" style="stop-color:#F4CB70"/>
		<stop  offset="0.3488" style="stop-color:#FCEFA6"/>
		<stop  offset="0.3935" style="stop-color:#FFFDBB"/>
		<stop  offset="0.603" style="stop-color:#FFCD2C"/>
		<stop  offset="0.7757" style="stop-color:#FFFDBB"/>
		<stop  offset="0.8266" style="stop-color:#F5D078"/>
		<stop  offset="0.9097" style="stop-color:#E5890E"/>
		<stop  offset="1" style="stop-color:#A8610C"/>
	</linearGradient>
	<polygon class="st17" points="622.6,156.3 476.4,231.1 550,374.9 696.2,300.2 	"/>
</g>
<g>
	<defs>
		<polygon id="SVGID_52_" points="324.4,493.6 212.2,238.7 161.3,211.7 		"/>
	</defs>
	<clipPath id="SVGID_53_">
		<use xlink:href="#SVGID_52_"  style="overflow:visible;"/>
	</clipPath>
	
		<linearGradient id="SVGID_54_" gradientUnits="userSpaceOnUse" x1="0" y1="493.627" x2="1" y2="493.627" gradientTransform="matrix(-112.7188 -291.675 291.675 -112.7188 -143678.5938 56141.6484)">
		<stop  offset="0" style="stop-color:#FFFDBB"/>
		<stop  offset="4.161118e-02" style="stop-color:#FFF6A8"/>
		<stop  offset="8.686925e-02" style="stop-color:#FFF29B"/>
		<stop  offset="0.1289" style="stop-color:#FFF097"/>
		<stop  offset="0.4802" style="stop-color:#FFCD2C"/>
		<stop  offset="1" style="stop-color:#F4AF1F"/>
	</linearGradient>
	<polygon class="st18" points="419.2,457 303.2,156.9 66.5,248.3 182.5,548.5 	"/>
</g>
<g>
	<defs>
		<polygon id="SVGID_55_" points="202.7,181.9 324.4,493.6 244.2,141.8 		"/>
	</defs>
	<clipPath id="SVGID_56_">
		<use xlink:href="#SVGID_55_"  style="overflow:visible;"/>
	</clipPath>
	
		<linearGradient id="SVGID_57_" gradientUnits="userSpaceOnUse" x1="1.318922e-07" y1="493.6393" x2="1" y2="493.6393" gradientTransform="matrix(-77.6938 -347.3374 347.3374 -77.6938 -171155.4375 38850.9453)">
		<stop  offset="0" style="stop-color:#FFFDBB"/>
		<stop  offset="4.161118e-02" style="stop-color:#FFF6A8"/>
		<stop  offset="8.686925e-02" style="stop-color:#FFF29B"/>
		<stop  offset="0.1289" style="stop-color:#FFF097"/>
		<stop  offset="0.5358" style="stop-color:#FFCD2C"/>
		<stop  offset="1" style="stop-color:#F1A81C"/>
	</linearGradient>
	<polygon class="st19" points="399.4,476.9 318.6,115.9 127.8,158.6 208.5,519.6 	"/>
</g>
<g>
	<defs>
		<polygon id="SVGID_58_" points="131.7,227.2 110.2,238.3 324.4,493.6 161.3,211.7 		"/>
	</defs>
	<clipPath id="SVGID_59_">
		<use xlink:href="#SVGID_58_"  style="overflow:visible;"/>
	</clipPath>
	
		<linearGradient id="SVGID_60_" gradientUnits="userSpaceOnUse" x1="0" y1="493.6058" x2="1" y2="493.6058" gradientTransform="matrix(-147.1149 -265.6621 -265.6621 147.1149 131425.7031 -72126.8125)">
		<stop  offset="0" style="stop-color:#FFFDBB"/>
		<stop  offset="4.161118e-02" style="stop-color:#FFF6A8"/>
		<stop  offset="8.686925e-02" style="stop-color:#FFF29B"/>
		<stop  offset="0.1289" style="stop-color:#FFF097"/>
		<stop  offset="0.3746" style="stop-color:#FFD55F"/>
		<stop  offset="1" style="stop-color:#FFCD2C"/>
	</linearGradient>
	<polygon class="st20" points="160.5,584.4 -9.3,277.9 274.2,120.9 443.9,427.5 	"/>
</g>
<g>
	<defs>
		<polygon id="SVGID_61_" points="212.2,238.7 324.4,493.6 202.7,181.9 		"/>
	</defs>
	<clipPath id="SVGID_62_">
		<use xlink:href="#SVGID_61_"  style="overflow:visible;"/>
	</clipPath>
	
		<linearGradient id="SVGID_63_" gradientUnits="userSpaceOnUse" x1="4.441699e-08" y1="493.627" x2="1" y2="493.627" gradientTransform="matrix(-21.2541 -318.4288 -318.4288 21.2541 157459.2813 -9994.6289)">
		<stop  offset="0" style="stop-color:#FFFDBB"/>
		<stop  offset="4.161118e-02" style="stop-color:#FFF6A8"/>
		<stop  offset="8.686925e-02" style="stop-color:#FFF29B"/>
		<stop  offset="0.1289" style="stop-color:#FFF097"/>
		<stop  offset="0.3746" style="stop-color:#FFD55F"/>
		<stop  offset="1" style="stop-color:#FFCD2C"/>
	</linearGradient>
	<polygon class="st21" points="203.3,501.7 182,183.3 323.9,173.8 345.1,492.2 	"/>
</g>
<g>
	<defs>
		<polygon id="SVGID_64_" points="79.1,141.2 116.5,202.4 120.2,181.6 		"/>
	</defs>
	<clipPath id="SVGID_65_">
		<use xlink:href="#SVGID_64_"  style="overflow:visible;"/>
	</clipPath>
	
		<linearGradient id="SVGID_66_" gradientUnits="userSpaceOnUse" x1="0" y1="493.6437" x2="1" y2="493.6437" gradientTransform="matrix(-147.1697 -264.9737 -264.9737 147.1697 131038.8125 -72231.7031)">
		<stop  offset="0" style="stop-color:#FFFDBB"/>
		<stop  offset="4.161118e-02" style="stop-color:#FFF6A8"/>
		<stop  offset="8.686925e-02" style="stop-color:#FFF29B"/>
		<stop  offset="0.1289" style="stop-color:#FFF097"/>
		<stop  offset="0.3192" style="stop-color:#FFDC7B"/>
		<stop  offset="0.5649" style="stop-color:#FFD55F"/>
		<stop  offset="0.7615" style="stop-color:#FFCD2C"/>
		<stop  offset="1" style="stop-color:#F7B823"/>
	</linearGradient>
	<polygon class="st22" points="88.8,219.8 53.1,155.6 110.5,123.7 146.2,188 	"/>
</g>
<polygon class="st4" points="161.4,193.2 190.6,208.7 185.2,176.1 208.9,153.1 176.2,148.2 161.7,118.5 147,148.1 114.2,152.7 
	137.8,175.9 132.1,208.5 "/>
<path class="st4" d="M201.4,223.7l-7.5-44.7l32.6-31.5l-44.8-6.7L161.8,100l-20.2,40.6l-44.9,6.3l32.3,31.8l-6,34.2l-1.7,10.4
	l40.1-20.9L201.4,223.7z M114.2,152.7l32.7-4.6l14.8-29.6l14.5,29.7l32.7,4.9l-23.8,23l5.5,32.6l-29.2-15.5l-29.3,15.3l5.7-32.6
	L114.2,152.7z"/>
<g>
	<defs>
		<path id="SVGID_67_" d="M244.2,141.8l-57-8.5l-25.3-51.8l-25.7,51.6l-57.1,8l41.1,40.4l-3.7,20.8l-6.3,35.9l21.5-11.2l29.7-15.4
			l50.9,27l-9.5-56.8L244.2,141.8z M114.2,152.7l32.7-4.6l14.8-29.6l14.5,29.7l32.7,4.9l-23.8,23l5.5,32.6l-29.2-15.5l-29.3,15.3
			l5.7-32.6L114.2,152.7z"/>
	</defs>
	<clipPath id="SVGID_68_">
		<use xlink:href="#SVGID_67_"  style="overflow:visible;"/>
	</clipPath>
	
		<linearGradient id="SVGID_69_" gradientUnits="userSpaceOnUse" x1="0" y1="493.6815" x2="1" y2="493.6815" gradientTransform="matrix(187.4962 95.9262 95.9262 -187.4962 -47277.5508 92681.5078)">
		<stop  offset="0" style="stop-color:#FFFDBB"/>
		<stop  offset="6.149169e-03" style="stop-color:#FCF1A9"/>
		<stop  offset="2.403503e-02" style="stop-color:#F5D17A"/>
		<stop  offset="4.190628e-02" style="stop-color:#EFB753"/>
		<stop  offset="5.947571e-02" style="stop-color:#EBA335"/>
		<stop  offset="7.664332e-02" style="stop-color:#E8951F"/>
		<stop  offset="9.322854e-02" style="stop-color:#E68C12"/>
		<stop  offset="0.1086" style="stop-color:#E5890E"/>
		<stop  offset="0.1257" style="stop-color:#E7911A"/>
		<stop  offset="0.2566" style="stop-color:#F4CB70"/>
		<stop  offset="0.3488" style="stop-color:#FCEFA6"/>
		<stop  offset="0.3935" style="stop-color:#FFFDBB"/>
		<stop  offset="0.603" style="stop-color:#FFCD2C"/>
		<stop  offset="0.7757" style="stop-color:#FFFDBB"/>
		<stop  offset="0.8266" style="stop-color:#F5D078"/>
		<stop  offset="0.9097" style="stop-color:#E5890E"/>
		<stop  offset="1" style="stop-color:#A8610C"/>
	</linearGradient>
	<polygon class="st23" points="113.3,14.6 307.9,114.1 209.9,305.7 15.4,206.1 	"/>
</g>
<g>
	<defs>
		<polygon id="SVGID_70_" points="324.3,493.6 100,324.7 61.8,304.4 		"/>
	</defs>
	<clipPath id="SVGID_71_">
		<use xlink:href="#SVGID_70_"  style="overflow:visible;"/>
	</clipPath>
	
		<linearGradient id="SVGID_72_" gradientUnits="userSpaceOnUse" x1="-1.131457e-07" y1="493.627" x2="1" y2="493.627" gradientTransform="matrix(-13.7416 -205.8765 -205.8765 13.7416 101826.125 -6281.2979)">
		<stop  offset="0" style="stop-color:#FFFDBB"/>
		<stop  offset="4.161118e-02" style="stop-color:#FFF6A8"/>
		<stop  offset="8.686925e-02" style="stop-color:#FFF29B"/>
		<stop  offset="0.1289" style="stop-color:#FFF097"/>
		<stop  offset="0.4275" style="stop-color:#FFCD2C"/>
		<stop  offset="1" style="stop-color:#F3AE1E"/>
	</linearGradient>
	<polygon class="st24" points="62.9,511.1 49.2,305.2 323.2,286.9 336.9,492.8 	"/>
</g>
<g>
	<defs>
		<polygon id="SVGID_73_" points="92.9,282 324.3,493.6 124,251.9 		"/>
	</defs>
	<clipPath id="SVGID_74_">
		<use xlink:href="#SVGID_73_"  style="overflow:visible;"/>
	</clipPath>
	
		<linearGradient id="SVGID_75_" gradientUnits="userSpaceOnUse" x1="0" y1="493.6107" x2="1" y2="493.6107" gradientTransform="matrix(-96.7122 -282.1335 -282.1335 96.7122 139522.7188 -47219.6172)">
		<stop  offset="0" style="stop-color:#FFFDBB"/>
		<stop  offset="4.161118e-02" style="stop-color:#FFF6A8"/>
		<stop  offset="8.686925e-02" style="stop-color:#FFF29B"/>
		<stop  offset="0.1289" style="stop-color:#FFF097"/>
		<stop  offset="0.4275" style="stop-color:#FFCD2C"/>
		<stop  offset="1" style="stop-color:#F2AC1D"/>
	</linearGradient>
	<polygon class="st25" points="117.2,564.6 18.7,277.3 300,180.9 398.5,468.2 	"/>
</g>
<g>
	<defs>
		<polygon id="SVGID_76_" points="39.5,316 23.4,324.3 324.3,493.6 61.8,304.4 		"/>
	</defs>
	<clipPath id="SVGID_77_">
		<use xlink:href="#SVGID_76_"  style="overflow:visible;"/>
	</clipPath>
	
		<linearGradient id="SVGID_78_" gradientUnits="userSpaceOnUse" x1="0" y1="493.6502" x2="1" y2="493.6502" gradientTransform="matrix(-261.3968 -210.9123 210.9123 -261.3968 -103804.7266 129549.1484)">
		<stop  offset="0" style="stop-color:#FFFDBB"/>
		<stop  offset="4.161118e-02" style="stop-color:#FFF6A8"/>
		<stop  offset="8.686925e-02" style="stop-color:#FFF29B"/>
		<stop  offset="0.1289" style="stop-color:#FFF097"/>
		<stop  offset="0.3746" style="stop-color:#FFD55F"/>
		<stop  offset="1" style="stop-color:#FFCD2C"/>
	</linearGradient>
	<polygon class="st26" points="416.8,379 142,157.3 -69.1,419 205.7,640.7 	"/>
</g>
<g>
	<defs>
		<polygon id="SVGID_79_" points="100,324.7 324.3,493.6 92.9,282 		"/>
	</defs>
	<clipPath id="SVGID_80_">
		<use xlink:href="#SVGID_79_"  style="overflow:visible;"/>
	</clipPath>
	
		<linearGradient id="SVGID_81_" gradientUnits="userSpaceOnUse" x1="0" y1="493.6648" x2="1" y2="493.6648" gradientTransform="matrix(-199.2552 -226.7763 226.7763 -199.2552 -111640.2266 98869.8828)">
		<stop  offset="0" style="stop-color:#FFFDBB"/>
		<stop  offset="4.161118e-02" style="stop-color:#FFF6A8"/>
		<stop  offset="8.686925e-02" style="stop-color:#FFF29B"/>
		<stop  offset="0.1289" style="stop-color:#FFF097"/>
		<stop  offset="0.3746" style="stop-color:#FFD55F"/>
		<stop  offset="1" style="stop-color:#FFCD2C"/>
	</linearGradient>
	<polygon class="st27" points="429.3,401.4 223.5,167.2 -12.1,374.2 193.7,608.4 	"/>
</g>
<g>
	<defs>
		<polygon id="SVGID_82_" points="28.1,297.4 30.9,281.7 0,251.4 		"/>
	</defs>
	<clipPath id="SVGID_83_">
		<use xlink:href="#SVGID_82_"  style="overflow:visible;"/>
	</clipPath>
	
		<linearGradient id="SVGID_84_" gradientUnits="userSpaceOnUse" x1="0" y1="493.6437" x2="1" y2="493.6437" gradientTransform="matrix(-110.5475 -199.0368 -199.0368 110.5475 98371.2891 -54112.0117)">
		<stop  offset="0" style="stop-color:#FFFDBB"/>
		<stop  offset="4.161118e-02" style="stop-color:#FFF6A8"/>
		<stop  offset="8.686925e-02" style="stop-color:#FFF29B"/>
		<stop  offset="0.1289" style="stop-color:#FFF097"/>
		<stop  offset="0.3192" style="stop-color:#FFDC7B"/>
		<stop  offset="0.5649" style="stop-color:#FFD55F"/>
		<stop  offset="0.7615" style="stop-color:#FFCD2C"/>
		<stop  offset="1" style="stop-color:#F4B01F"/>
	</linearGradient>
	<polygon class="st28" points="7.3,310.5 -19.5,262.2 23.6,238.3 50.4,286.5 	"/>
</g>
<polygon class="st4" points="61.8,290.5 83.8,302.1 79.7,277.6 97.5,260.4 73,256.7 62.1,234.4 51,256.6 26.4,260.1 44.1,277.5 
	39.8,301.9 "/>
<path class="st4" d="M91.9,313.4l-5.6-33.6l24.5-23.7l-33.7-5l-14.9-30.6l-15.2,30.5l-33.7,4.8l24.3,23.9L33,305.3l-1.3,7.8
	l30.1-15.7L91.9,313.4z M26.4,260.1l24.6-3.5l11.1-22.2L73,256.7l24.6,3.7l-17.9,17.3l4.1,24.5l-21.9-11.6l-22,11.5l4.3-24.5
	L26.4,260.1z"/>
<g>
	<defs>
		<path id="SVGID_85_" d="M44.1,277.5l-17.7-17.4l24.6-3.5l11.1-22.2L73,256.7l24.6,3.7l-17.9,17.3l4.1,24.5l-21.9-11.6l-22,11.5
			L44.1,277.5z M42.9,245.3l-42.9,6l30.9,30.3l-2.8,15.6l-4.7,27l16.1-8.4l22.3-11.6l38.2,20.3L92.9,282l31.1-30.1l-42.8-6.4
			l-19-38.9L42.9,245.3z"/>
	</defs>
	<clipPath id="SVGID_86_">
		<use xlink:href="#SVGID_85_"  style="overflow:visible;"/>
	</clipPath>
	
		<linearGradient id="SVGID_87_" gradientUnits="userSpaceOnUse" x1="0" y1="493.6815" x2="1" y2="493.6815" gradientTransform="matrix(140.8504 72.0614 72.0614 -140.8504 -35575.1172 69769.25)">
		<stop  offset="0" style="stop-color:#FFFDBB"/>
		<stop  offset="6.149169e-03" style="stop-color:#FCF1A9"/>
		<stop  offset="2.403503e-02" style="stop-color:#F5D17A"/>
		<stop  offset="4.190628e-02" style="stop-color:#EFB753"/>
		<stop  offset="5.947571e-02" style="stop-color:#EBA335"/>
		<stop  offset="7.664332e-02" style="stop-color:#E8951F"/>
		<stop  offset="9.322854e-02" style="stop-color:#E68C12"/>
		<stop  offset="0.1086" style="stop-color:#E5890E"/>
		<stop  offset="0.1257" style="stop-color:#E7911A"/>
		<stop  offset="0.2566" style="stop-color:#F4CB70"/>
		<stop  offset="0.3488" style="stop-color:#FCEFA6"/>
		<stop  offset="0.3935" style="stop-color:#FFFDBB"/>
		<stop  offset="0.603" style="stop-color:#FFCD2C"/>
		<stop  offset="0.7757" style="stop-color:#FFFDBB"/>
		<stop  offset="0.8266" style="stop-color:#F5D078"/>
		<stop  offset="0.9097" style="stop-color:#E5890E"/>
		<stop  offset="1" style="stop-color:#A8610C"/>
	</linearGradient>
	<polygon class="st29" points="25.7,156.3 171.9,231.1 98.3,374.9 -47.9,300.2 	"/>
</g>
</svg>
