<?xml version="1.0" encoding="utf-8"?>
<!-- Generator: Adobe Illustrator 22.1.0, SVG Export Plug-In . SVG Version: 6.00 Build 0)  -->
<svg version="1.1" id="Слой_1" xmlns="http://www.w3.org/2000/svg" xmlns:xlink="http://www.w3.org/1999/xlink" x="0px" y="0px"
	 viewBox="0 0 757 582" style="enable-background:new 0 0 757 582;" xml:space="preserve">
<style type="text/css">
	.st0{fill:#FEFEFE;}
	.st1{fill:#FECD31;}
	.st2{fill:#FED45A;}
	.st3{fill:#FECE39;}
	.st4{fill:#FED148;}
	.st5{fill:#F1AC1E;}
	.st6{fill:#FEEF97;}
	.st7{fill:#FECF3F;}
	.st8{fill:#F4B220;}
	.st9{fill:#E58E16;}
	.st10{fill:#FED24E;}
	.st11{fill:#D47E0F;}
	.st12{fill:#F5D582;}
	.st13{fill:#F2C56A;}
	.st14{fill:#FEDA6B;}
	.st15{fill:#FEDD60;}
	.st16{fill:#F8DF90;}
	.st17{fill:#F9BE26;}
	.st18{fill:#FEF9B5;}
	.st19{fill:#FAE89E;}
	.st20{fill:#EEB44F;}
	.st21{fill:#FEE377;}
	.st22{fill:#FED84F;}
	.st23{fill:#FEE682;}
	.st24{fill:#FEF3A6;}
	.st25{fill:#FEEB8C;}
	.st26{fill:#FEE16D;}
	.st27{fill:#F6B722;}
	.st28{fill:#FEFEFD;}
	.st29{fill:#FCC82A;}
</style>
<g>
	<g>
		<path class="st0" d="M1,583C1,389,1,195,1,1c252.3,0,504.7,0,757,0c0,194,0,388,0,582C505.7,583,253.3,583,1,583z M656.1,174
			L656.1,174c0.3-0.3,0.7-0.7,1-1c0.5-0.8,1.1-1.7,1.9-3.1c-2.8-0.3-5-0.5-7.1-0.8c-7-1-14-1.9-20.9-2.9c-2.3-0.3-4.6-0.7-6.9-1
			c-4.7-0.7-9.3-1.3-14-2c-4-0.5-8-1-12-1.5c-1.9-1.3-4.5-2.3-5.5-4.1c-8.7-17.1-17.1-34.4-25.6-51.6c-0.6-1.2-1.4-2.4-2.5-4.3
			c-1.7,4-3.1,7.2-4.4,10.3c-1,2-2,4-3,6c-1.4,3-2.8,5.9-4.1,8.9c-2.3,5-4.7,9.9-7,14.9c-1.4,2.7-2.7,5.4-4.1,8.1c-1,2-2,4-3,5.9
			c-0.9,1.7-1.9,3.5-2.8,5.2c-3.3,0.6-6.7,1.3-10,1.9c-3.3,0.4-6.7,0.9-10,1.3c-4.3,0.6-8.6,1.3-12.9,1.9c-2.3,0.3-4.7,0.6-7,1
			c-2.3,0.4-4.6,0.7-7,1.1c-2,0.3-4,0.6-6,0.9c-2.7,0.3-5.5,0.6-8.2,0.8c0.3-2,0.7-4,1-6c2.6-11,5.2-22,7.8-33
			c0.7-2.6,1.4-5.1,1.9-7.7c2.2-10.1,4.3-20.2,6.4-30.3c0,0-0.1,0.1-0.1,0.1c0.2-0.1,0.4-0.1,0.6-0.2c-0.2-0.2-0.4-0.5-0.6-0.7
			c-3.7-0.7-7.3-1.5-11-2.2c-2-0.3-4-0.7-6-1c-1.3,0-2.6,0-3.9-0.1c-1.7-0.4-3.3-0.8-5-1.2c-0.4-0.1-0.8-0.1-1.2-0.2
			c-2-0.4-3.9-0.7-5.9-1.1c-1.3-0.1-2.6-0.2-4-0.4c-5-0.8-10-1.5-15-2.3c-2.7-0.4-5.4-0.9-8-1.3c-2.3-0.4-4.7-0.8-7-1.2
			c-3-0.4-6-0.8-9-1.2c-1.3-2-2.7-4-4-6c-1.4-3-2.7-6-4.1-9c-1.3-2.7-2.6-5.3-4-8c-2.3-4.7-4.6-9.3-7-14c-1.3-2.7-2.6-5.3-3.9-8
			c-1.3-2.7-2.6-5.4-3.9-8c-1.3-2.7-2.6-5.4-3.9-8c-1.4-3.3-2.9-6.7-4.8-11.1c-1.6,2.9-2.5,4.5-3.3,6.1c-10,20.2-19.9,40.5-30,60.7
			c-1,2-2.7,3.6-4.2,5.3c-6,0.8-12,1.5-18,2.3c-4.7,0.7-9.4,1.4-14,2c-2.7,0.4-5.3,0.8-8,1.2c-10.6,1.6-21.3,3.1-31.9,4.7
			c-1.2,0.1-2.5,0.2-4.3,0.4c5.1,21.2,10.1,41.8,15.1,62.5c1.2,5.6,2.4,11.3,3.6,16.9c-2.8-0.3-5.6-0.5-8.4-0.8c-2-0.3-4-0.6-6-0.9
			c-1.6-0.1-3.3-0.3-4.9-0.4c-1.4-0.2-2.7-0.5-4.1-0.7c-1.7-0.3-3.3-0.6-5-0.9c-4-0.6-8-1.2-12-1.7c-3-0.4-6-0.9-9-1.3
			c-2.7-0.4-5.3-0.7-8-1.1c-1.6-0.7-3.3-1.5-4.9-2.2c-1.3-2.7-2.6-5.3-3.9-8c-1.4-3-2.8-5.9-4.2-8.9c-2-4-4-8-6-12c-1-2-2-4-3-6.1
			c-1-2.3-2.1-4.6-3.1-6.9c-1-2-2-4-3-6c-1.4-3.2-2.8-6.4-4.6-10.4c-1.3,2.5-2.1,3.9-2.8,5.4c-8.3,16.7-16.5,33.4-24.9,50
			c-0.8,1.6-2.4,2.9-3.7,4.3c-3,0.5-6,1-9,1.6c-6.4,0.8-12.7,1.6-19.1,2.4c-2.3,0.3-4.6,0.7-6.9,1c-7,1-14,1.9-20.9,2.9
			c-2.2,0.3-4.4,0.5-7.3,0.9c1.2,1.7,2,2.9,2.7,4c0.5,0.3,1,0.7,1.4,1l-0.1,0c0.3,1.1,0.5,2.2,1.1,3.2
			c12.4,20.5,24.9,40.9,37.3,61.4c-0.8,6.4-1.6,12.9-2.4,19.3c-1.3,7.4-2.5,14.8-3.8,22.2c3.7,5,7.3,9.9,11,14.9
			c-1.4,0-2.8,0.1-4.2,0.1c-2.3-0.3-4.7-0.7-7-1c-1.3-0.1-2.6-0.2-3.9-0.4c-1-0.2-2.1-0.4-3.1-0.6c-4-0.6-8-1.3-11.9-1.9
			c-2-0.3-4-0.6-6-0.9c-2-0.2-4-0.4-6-0.7c-1.3-0.7-2.6-1.4-3.9-2.1c-1-2-2-4-2.9-6c-0.7-1.5-1.4-3.1-2.1-4.6c-2-4.3-4-8.6-6.1-13
			c-1-2-2-4-3-6c-1-2-2-4.1-3-6.1c-0.9-2.2-1.9-4.4-3.2-7.6c-1.6,3-2.7,5.2-3.8,7.3c-6.4,12.5-12.8,25-19.1,37.5c-2,0.3-4,0.7-6,1
			c-5.7,0.7-11.4,1.4-17,2.1c-2,0.3-3.9,0.6-5.9,0.9c-5.6,0.9-11.3,1.8-16.9,2.7c-0.5,0.2-1,0.3-1.5,0.5c0.4,0.6,0.9,1.2,1.3,1.8
			c0.3,0.6,0.7,1.3,1,1.9c9.7,15.9,19.3,31.9,29,47.8c-0.7,4.7-1.3,9.5-2,14.2c-1,5.7-1.9,11.4-2.9,17.1c15.6,9,31.2,18,46.8,26.9
			c13.6,7.7,27.2,15.4,40.7,23.1c17,9.7,34.1,19.3,51.1,29c14.7,8.3,29.4,16.6,44,25c13.4,7.6,26.8,15.3,40.3,22.9
			c6,3.4,12,6.8,17.9,10.1c3.4,1.9,6.7,3.9,10.1,5.8c4.3,2.4,8.5,4.8,12.8,7.2c5.7,3.3,11.5,6.6,17.2,9.9c4.7,2.7,9.4,5.3,14,8
			c8.3,4.7,16.6,9.4,25,14.1c3.7,2,7.3,4.1,11,6.1c3.2,2,6.3,4.1,9.5,5.9c0.7,0.4,2,0.6,2.7,0.2c3.4-1.9,6.6-4.1,9.9-6.2
			c4.3-2.4,8.6-4.8,13-7.2c1.4-0.7,2.9-1.4,4.3-2.2c6.6-3.9,13.3-7.8,19.9-11.7c4.6-2.6,9.3-5.2,13.9-7.8c5.4-3,10.7-6.1,16.1-9.1
			c6-3.4,11.9-6.7,17.9-10.1c7.7-4.3,15.3-8.7,23-13c1.4-0.7,2.9-1.4,4.2-2.2c12-6.9,24-13.8,36-20.7c12.3-7,24.7-14,37-21
			c2-1.1,4-2.1,6-3.2c10.9-6.2,21.9-12.5,32.8-18.8c12.4-7,24.7-14,37.1-21.1c10-5.6,19.9-11.3,29.9-16.9c7.8-4.3,15.7-8.6,23.4-13
			c5.6-3.2,10.9-6.7,16.4-10c-1.3-7.4-2.5-14.8-3.8-22.2c-0.4-3.1-0.7-6.1-1.1-9.2c3.4-5.8,6.8-11.7,10.1-17.5
			c6.3-10.1,12.6-20.2,18.9-30.3c0.3-0.6,0.7-1.2,1-1.9c0.4-0.6,0.9-1.2,1.3-1.8c-0.5-0.2-1-0.3-1.5-0.5c-5.3-0.9-10.6-1.7-15.9-2.6
			c-2-0.3-3.9-0.6-5.9-0.8c-4.7-0.6-9.5-1.2-14.2-1.9c-2.9-0.5-5.9-0.9-8.8-1.4c-1.2-1.4-2.8-2.7-3.6-4.4c-5.1-10-10-20.1-15.1-30.2
			c-1.6-3.2-3.2-6.3-5.3-10.6c-1.4,3.4-2.3,5.7-3.2,7.9c-0.6,1.3-1.3,2.6-1.9,4c-1.3,2.7-2.6,5.4-3.9,8.1c-1.7,3.6-3.4,7.2-5.1,10.8
			c-0.7,1.6-1.4,3.2-2.1,4.7c-1.2,2.1-2.5,4.3-3.7,6.4c-0.7,1-1.4,2.1-2.1,3.1c-2.3,0.4-4.7,0.7-7,1.1c-2.3,0.3-4.7,0.7-7,1
			c-3.3,0.6-6.7,1.1-10,1.7c-1.7,0.3-3.4,0.5-5.1,0.8c-1.6,0.2-3.3,0.3-4.9,0.5c-2,0.3-4,0.6-6,0.9c-1.4,0-2.8,0-4.2-0.1
			c3.7-5,7.3-9.9,11-14.9c-1.3-8.1-2.6-16.1-3.9-24.2c-0.7-5.8-1.5-11.5-2.2-17.3c3.4-5.9,6.8-11.8,10.2-17.7c2.3-3.7,4.6-7.4,7-11
			c4-6.5,8-13,11.9-19.6c3.2-5.4,6.2-10.8,9.3-16.2c0,0-0.1-0.1-0.1-0.1C655.4,174.7,655.7,174.4,656.1,174z"/>
		<path class="st1" d="M622.8,281.2c-3.7,5-7.3,9.9-11,14.9c-1.2,0.6-2.5,1.2-3.7,1.8c-1.6,1.5-3.2,2.8-4.7,4.4
			c-3.5,3.9-7,7.8-10.4,11.7c-12.7-7.1-25.4-14.1-37.9-21.4c-3.4-2-6.1-5-9.1-7.6c6-10.6,12-21.3,18-32c0.3-0.3,0.7-0.6,1-1
			c2,0.7,4,1.3,6,2c3.3,1.7,6.6,3.4,9.9,5c3.9,2,7.9,4.1,11.8,6.1c3.4,1.9,6.9,3.9,10.3,5.8c3.3,1.7,6.6,3.4,10,5.1
			C616.3,277.8,619.6,279.5,622.8,281.2z"/>
		<path class="st1" d="M148.1,296c-3.7-5-7.3-9.9-11-14.9c3.6-1.8,7.2-3.6,10.9-5.3c2.7-1.5,5.4-3,8.1-4.6c3-1.6,6.1-3.3,9.1-4.9
			c3.2-1.5,6.5-3,9.7-4.4c3.4-1.9,6.7-3.9,10.1-5.8c3.3-1.3,6.6-2.7,10-4c0.3,0.3,0.7,0.6,1,1c0.7,0.3,1.3,0.7,2,1l0,0
			c0.9,2.4,1.6,4.9,2.8,7.2c3.6,7,7.4,13.8,11.2,20.8c0.3,0.4,0.7,0.7,1,1.1c0,0.3,0,0.6,0,0.9c-10.9,6.1-21.9,12.1-32.8,18.3
			c-5.2,3-10.2,6.5-15.3,9.8c-1.3-1.3-2.6-2.5-3.9-3.8c-3.1-3.4-6.2-6.9-9.2-10.3C150.6,297.3,149.4,296.6,148.1,296z"/>
		<path class="st1" d="M84.9,407.1c-15.6-9-31.2-18-46.8-26.9c3-1.5,5.9-2.9,8.9-4.4c2.7-1.6,5.5-3.1,8.2-4.7c2-1,3.9-2,5.9-3
			c3.1-1.7,6.1-3.3,9.2-5c2-1,3.9-2,5.9-3c2-0.7,3.9-1.3,5.9-2c1.5,1.2,2.9,2.4,4,3.2c2.9-4.4,5.6-8.5,8.3-12.5c1.6,1,3.2,2,4.8,3.1
			c-1.7,4.4-3.4,8.7-5,13.1c0.7,1,1.2,2.3,2.1,3.1c3.9,3.1,7.9,6,11.9,8.9c-0.4,1.1-0.5,2.4-1.2,3.2
			C99.6,389.2,92.2,398.1,84.9,407.1z"/>
		<path class="st2" d="M539.2,484.2c-12,6.9-24,13.8-36,20.7c-1.4,0.8-2.8,1.4-4.2,2.2c-4-4.7-8-9.3-12-14c-1.9,1.4-3.3,2.6-4.9,3.4
			c-1.2,0.6-3.3,1.4-3.8,0.9c-2.3-2.2-4.2-4.9-6.2-7.4c2-2.3,4-4.6,6-6.9c5.3-4.7,10.7-9.4,16-14c6.4-5.9,12.8-11.9,19.3-17.7
			c1.4-1.3,3.1-2.2,4.7-3.4c3.4,4.5,6.8,9,10.7,14.2c-6.2,4.9-13,10.3-19.8,15.6c0.4,0.5,0.8,1,1.2,1.5c5.6-3.7,11.3-7.5,16.9-11.2
			C531.1,473.4,535.2,478.8,539.2,484.2z"/>
		<path class="st3" d="M84.9,407.1c7.3-8.9,14.7-17.9,22-26.9c0.7-0.8,0.8-2.1,1.2-3.2c13.3,9.7,26.7,19.3,40,29
			c-5.2,6.8-10.2,13.7-15.7,20.2c-1.6,1.9-4.4,2.7-6.7,4C112,422.5,98.4,414.8,84.9,407.1z"/>
		<path class="st4" d="M125.6,430.2c2.3-1.3,5.1-2.1,6.7-4c5.5-6.5,10.5-13.5,15.7-20.2c5,3.3,10,6.7,15,10
			c3.8,2.9,7.5,5.9,11.3,8.8c5.9,4.4,11.8,8.8,17.7,13.2c-0.3,1.6-0.1,3.6-1,4.8c-4.6,5.6-9.5,11-14.3,16.4
			C159.7,449.5,142.6,439.8,125.6,430.2z"/>
		<path class="st5" d="M475.9,164c-0.3,2-0.7,4-1,6c-1,0.5-1.9,0.9-3.6,1.8c7.2,6.8,14,13.1,20.7,19.4c4,4,8,8,12,11.9
			c3.9,4,7.8,8.1,11.8,12.1c1.7,1.7,2.4,3.1,0.3,4.9c-9.6-1.9-19.1-3.7-28.6-5.8c-8.2-1.8-16.3-4.1-24.5-6.2c0-1,0-2,0-3
			c1-4.7,2-9.3,3-14c0.5-1.7,1.2-3.3,1.5-5.1c0.2-1.7,0-3.5,0-5.2c-1.9,0.1-3.9-0.2-5.6,0.3c-6.3,1.9-12.5,4-18.7,6
			c-0.7-2.7-1.3-5.4-2-8c0-1.3,0-2.7,0-4c5.9-1.9,11.9-3.9,17.8-5.8C464.6,167.4,470.2,165.7,475.9,164z"/>
		<path class="st5" d="M302.9,85.5c2.7-0.4,5.3-0.8,8-1.2c-0.2,1-0.1,2-0.5,2.9c-5.1,10.3-10.2,20.6-15.6,31.3
			c2.1,2,4.7,4.3,7.2,6.6c4.3,4.4,8.6,8.7,12.9,13.1c1.4,1.6,2.8,3.3,4.2,4.9c-1.2,1.1-2.2,3-3.6,3.3c-11.2,2.5-22.4,4.6-33.6,6.9
			c-5-20.7-10-41.3-15.1-62.5c1.9-0.2,3.1-0.3,4.3-0.4c0.6,2,0.6,4.5,1.9,5.9c4.3,4.8,8.9,9.4,13.7,13.6c0.9,0.8,4.5,0.5,4.9-0.3
			C295.5,101.6,299.2,93.5,302.9,85.5z"/>
		<path class="st1" d="M721.9,380.1c-5.5,3.3-10.9,6.8-16.4,10c-7.7,4.4-15.6,8.7-23.4,13c-4.4-5.9-9-11.7-13.1-17.9
			c-3.1-4.7-8.9-7.7-8.9-14.3c2.3-2,4.7-4,7-6l0,0c0.3-0.3,0.7-0.7,1-1l0,0c0.4-0.1,0.9-0.3,1.3-0.4c-0.4-0.2-0.8-0.4-1.3-0.5
			c-2.3-3.9-4.7-7.9-7-11.8c2.2-1.1,4.4-2.3,6.6-3.4c2.3,4.3,4.7,8.6,6.8,12.5c1.8-0.3,4.6-0.8,7.4-1.2c2.6,1.4,5.3,2.7,7.9,4.1
			c3,1.7,6,3.3,9.1,5c2.7,1.4,5.3,2.8,8,4.2c2.4,1.3,4.7,2.5,7.1,3.8C716.6,377.4,719.3,378.8,721.9,380.1z"/>
		<path class="st6" d="M358,562.1c-8.3-4.7-16.6-9.4-25-14.1c1.3-2,2.5-4,3.9-6.2c0.7,0.5,2.1,1.3,2.7,1.6c3.5-2,6.4-3.6,9.8-5.6
			c-2.7-2.9-5-5.4-7.4-7.9c-2.7-3.3-5.3-6.7-8-10c-0.7-1.3-1.4-2.7-2-4c3.3-2.7,6.7-5.3,10-8c2.3,3.3,4.7,6.7,7,10
			c0.2,0.8,0.3,1.7,0.7,2.3c1.3,1.9,2.8,3.6,4.3,5.5c1.1-1.8,2.2-3.6,3.4-5.3c0.8-1.2,1.7-2.5,2.8-3.3c2.3-1.7,4.8-3.1,7.4-4.7
			c1.6,7.5,7.5,5.1,12.4,5.5c0,11,0,22,0,33c0,1,0,2,0,3c-1.2-0.4-2.5-0.6-3.5-1.3c-2.9-2.1-5.7-4.4-8.5-6.7c0-0.3,0-0.7,0-1
			c0.1-0.1,0.2-0.3,0.2-0.4c-0.1,0.1-0.2,0.3-0.2,0.4c0,0.3,0,0.7,0,1c-0.3,1.7-0.7,3.3-1,5c-0.7-0.7-1.3-1.4-2-2
			c-2.2-4.5-4.4-9.1-6.6-13.5c-5.8,2.1-7.4,4.4-5.3,7.1c2.8,3.6,5.9,7,8.9,10.5c1,1.3,2,2.7,3,4c-2.2,0.1-4.4,0.3-6.8,0.4
			C358.1,559.1,358.1,560.6,358,562.1z M351.7,553.4c-0.1,0.3-0.4,0.6-0.3,0.8c0.1,0.2,0.5,0.3,0.8,0.4c0.1-0.3,0.4-0.6,0.3-0.8
			C352.4,553.6,352,553.5,351.7,553.4z M347.4,551.3c0.3,0.1,0.6,0.4,0.8,0.3c0.2-0.1,0.3-0.5,0.4-0.8c-0.3-0.1-0.6-0.4-0.8-0.3
			C347.6,550.6,347.5,551,347.4,551.3z"/>
		<path class="st7" d="M652.2,420.1c-12.4,7-24.7,14-37.1,21.1c-2.8-3.7-5.8-7.2-8.4-11.1c-3.1-4.6-5.8-9.4-8.7-14.1
			c7-5.3,14-10.7,21-16c4.3-2.7,8.6-5.4,13-8c0.6,1.7,0.7,3.7,1.8,5C639.8,404.8,646,412.4,652.2,420.1z"/>
		<path class="st8" d="M281.8,153.1c11.2-2.3,22.5-4.4,33.6-6.9c1.4-0.3,2.4-2.1,3.6-3.3c0.3,0,0.6,0.1,0.9,0.1
			c4.9,3.3,1.7,7.9,2.1,12c-1.3,7.7-2.7,15.3-4,23c-0.9,4-1.9,8-2.8,12c-6.9,1.3-14.5,0.2-20.1,6c-1.3-5.7-2.5-11.5-4.1-17.1
			c-0.6-2.1-2.1-4-3.2-6c-0.8-1-1.6-1.9-2.4-2.9C284.2,164.3,283,158.7,281.8,153.1z"/>
		<path class="st3" d="M652.2,420.1c-6.2-7.7-12.4-15.3-18.5-23.1c-1-1.3-1.2-3.3-1.8-5c0,0,0,0,0,0c0.3-0.3,0.7-0.7,1-1
			c9-6.6,18-13.3,27-19.9c0,6.6,5.8,9.7,8.9,14.3c4.1,6.1,8.7,11.9,13.1,17.9C672.1,408.8,662.1,414.5,652.2,420.1z"/>
		<path class="st9" d="M475.9,164c-5.6,1.7-11.3,3.4-16.9,5.2c-6,1.9-11.9,3.9-17.8,5.8c-0.4-2-0.9-3.9-1.3-5.9
			c-0.5-2.7-1.1-5.4-1.6-8.1c-0.5-2.6-0.9-5.3-1.4-7.9c0-3.3-1.5-7.2,3-9c5-1.3,10.1-2.5,15.1-4c9.6-2.9,19.1-6,28.7-9
			C481.1,142,478.5,153,475.9,164z"/>
		<path class="st4" d="M598,416c2.9,4.7,5.6,9.5,8.7,14.1c2.6,3.8,5.6,7.4,8.4,11.1c-10.9,6.3-21.8,12.5-32.8,18.8
			c-2,1.1-4,2.2-6,3.2c-5.1-6.7-10.2-13.5-15.3-20.2c6.7-5,13.3-10,20-15C586.7,424,592.3,420,598,416z"/>
		<path class="st6" d="M428.2,547.1c-6.6,3.9-13.3,7.8-19.9,11.7c-1.4,0.8-2.9,1.5-4.3,2.2c-0.8-1.9-1.7-3.8-2.2-5
			c-2.3,0-4.1,0-5.8,0c1-1.3,2-2.7,3-4c3.3-4,6.7-8,10.5-12.6c-2.6-1.6-4.8-2.9-7.5-4.6c-2.5,5.1-4.7,9.6-6.9,14.1c-0.3,0-0.7,0-1,0
			c-0.8-1.4-1.5-2.8-1.6-3c-3.8,0.3-7,0.9-10.1,0.5c-0.7-0.1-1.2-4-1.2-6.1c-0.1-7.4-0.1-14.9-0.1-22.3c4.3-0.7,8.7-1.5,13-2.2
			c-0.1-0.5-0.2-0.9-0.3-1.4c6.2,1.3,10.5,3.9,8.6,11.3c-0.1,0.5,1.2,2.1,1.7,2c1.2-0.2,2.7-0.7,3.3-1.6c1.8-2.6,3.2-5.4,4.8-8.1
			c1.7-2.7,3.3-5.3,5-8c3,2.7,6,5.3,9,8c-2.7,4-5.3,8-8,12c-2.2,2.5-4.4,4.9-7.3,8.2c5.8,1,8.9,7,14.3,2.8l0,0
			C423.9,544.2,424.3,546.5,428.2,547.1z M408.3,554.6c0.1-0.3,0.4-0.6,0.3-0.8c-0.1-0.2-0.5-0.3-0.8-0.4c-0.1,0.3-0.4,0.6-0.3,0.8
			C407.5,554.5,408,554.5,408.3,554.6z M416.6,547.7c-0.3-0.1-0.6-0.2-0.8-0.4c-0.1,0.3-0.4,0.6-0.3,0.8c0.1,0.2,0.5,0.3,0.8,0.4
			C416.3,548.3,416.5,548,416.6,547.7z M412.6,550.7c-0.3-0.1-0.6-0.2-0.8-0.4c-0.1,0.3-0.4,0.6-0.3,0.8c0.1,0.2,0.6,0.4,0.8,0.3
			C412.4,551.4,412.5,551,412.6,550.7z"/>
		<path class="st10" d="M176.7,459.2c4.8-5.4,9.7-10.8,14.3-16.4c0.9-1.1,0.7-3.1,1-4.8c1.4,0.9,2.8,1.7,4.2,2.6
			c8.6,6.1,17.2,12.2,25.8,18.3c4,3.3,8,6.6,12,9.9c-3.2,6.1-6.7,12-13.3,15.2C206,475.8,191.4,467.5,176.7,459.2z"/>
		<path class="st10" d="M561,443c5.1,6.7,10.2,13.5,15.3,20.2c-12.3,7-24.7,14-37,21c-4.1-5.4-8.2-10.8-12.2-16.2c4-3.3,8-6.6,12-10
			C546.3,453,553.7,448,561,443z"/>
		<path class="st11" d="M483.7,131c-9.6,3-19.1,6.1-28.7,9c-5,1.5-10.1,2.7-15.1,4c0.7-0.9,1.4-1.9,2.2-2.8c2.7-2.6,5.3-5.3,8-7.9
			c3-3,6-5.9,9-8.9c4.7-4.7,9.3-9.5,14-14.2c6.3-5.7,12.6-11.4,19-17.1c-2.1,10.1-4.2,20.2-6.4,30.3
			C485.1,125.9,484.3,128.4,483.7,131z"/>
		<path class="st12" d="M343,79.9c1.4-1.8,3.2-3.3,4.2-5.3c10.1-20.2,20-40.5,30-60.7c0.8-1.6,1.7-3.2,3.3-6.1
			c1.9,4.4,3.4,7.8,4.8,11.1c-1.5,1.9-3.4,3.6-4.5,5.8c-11.9,23.3-23.7,46.5-35.5,69.9c-1.2,2.3-1.5,5-2.3,7.5
			c-3.4,0.6-6.7,1.1-10.1,1.7c0.6-2,0.9-4.2,1.7-6C337.3,91.8,340.2,85.8,343,79.9z"/>
		<path class="st2" d="M220.7,484.1c6.6-3.2,10.1-9.1,13.3-15.2c1,0.5,2.1,0.9,3,1.6c10.7,7.8,21.3,15.6,32,23.4
			c-2.7,4.4-5.3,8.8-8,13.1C247.6,499.4,234.1,491.8,220.7,484.1z"/>
		<path class="st13" d="M343,79.9c-2.8,5.9-5.6,11.8-8.3,17.8c-0.8,1.9-1.2,4-1.7,6c-5.6,0.9-11.1,1.8-17.6,2.8
			c4,4.2,7.3,7.7,10.7,11.2c-3.7,6.7-7.5,13.5-11.2,20.2c-4.3-4.4-8.6-8.7-12.9-13.1c1.3-1,3.2-1.6,3.9-2.9
			c6-11.3,11.9-22.8,17.7-34.2c0.8-1.7,1-3.7,1.4-5.6C331,81.4,337,80.7,343,79.9z"/>
		<path class="st14" d="M472,490c2,2.5,3.9,5.2,6.2,7.4c0.5,0.5,2.7-0.3,3.8-0.9c1.6-0.8,3-2,4.9-3.4c4,4.6,8,9.3,12,14
			c-7.7,4.3-15.3,8.7-23,13c-1.5-1.7-3.4-3.3-4.5-5.3c-1-1.9-1.2-4.2-2-7.4c-0.6,0.3-2.5,0.9-4,2c-5.6,3.8-7.7,3.2-10.5-3.3
			c2.7-3,5.3-6,8-9C466,494.7,469,492.3,472,490z"/>
		<path class="st15" d="M516.1,220c2.1-1.8,1.4-3.2-0.3-4.9c-4-3.9-7.9-8-11.8-12.1c-0.3-1.8-0.4-3.7-1.1-5.2
			c-2.3-5-4.9-9.8-7.3-14.7c-2.3-4.9-4.4-9.9-6.6-14.9c2.3-0.4,4.6-0.7,7-1.1c0.3,1.3,0.4,2.6,1,3.8c10.2,20.5,20.4,41,30.8,61.4
			c1.3,2.5,3.5,4.5,5.3,6.7c-0.2,2.5-0.4,5.1-0.6,7.8c1-0.2,1.7-0.4,2.5-0.6c2.2,4.4,4.4,8.9,6.8,13.2c0.6,1.1,2.1,1.7,3.2,2.6
			c-2,1-3.9,2-5.9,3c-1.4-1.8-3.1-3.4-4.2-5.3c-6.1-11.2-12-22.5-17.9-33.8c-0.3-1.3-0.6-2.6-0.9-3.9
			C516.1,221.3,516.1,220.7,516.1,220z"/>
		<path class="st16" d="M343,102.1c0.7-2.5,1.1-5.2,2.3-7.5c11.7-23.3,23.6-46.6,35.5-69.9c1.1-2.1,3-3.8,4.5-5.8
			c1.3,2.7,2.6,5.4,3.9,8c-1.4,1.8-3.2,3.4-4.2,5.3c-10.8,21.3-21.4,42.7-32.1,64.1c-0.7,1.5-1.2,3.1-1.8,4.6
			C348.3,101.4,345.7,101.7,343,102.1z"/>
		<path class="st17" d="M143.2,239.7c-12.4-20.5-24.9-40.9-37.3-61.4c-0.6-0.9-0.7-2.1-1.1-3.2c0.7,0,1.4-0.1,2.1-0.1
			c3.7,4,7.4,8,11.1,12c1.3,1.3,2.6,2.6,3.9,3.9c3.7,3.7,7.3,7.4,11,11.1c3,3,6,6,9,9c1.7,1.7,3.4,3.3,5,5c-1,6.7-1.9,13.4-2.9,20.1
			C143.8,237.2,143.5,238.5,143.2,239.7z"/>
		<path class="st18" d="M622.8,281.2c-3.3-1.7-6.6-3.4-9.9-5.1c-3.3-7.3-6.5-14.7-10-21.9c-1.3-2.6-3.3-4.8-5-7.2
			c-0.2-2.1-0.3-4.2-0.6-6.3c-1.4-9.2-2.9-18.4-4.4-27.6c1.2,1.2,2.7,2.3,3.4,3.8c6.3,12,12.4,24.2,18.8,36.2c0.8,1.6,2.6,2.7,3.9,4
			C620.3,265.1,621.6,273.1,622.8,281.2z"/>
		<path class="st12" d="M164,161.2c1.2-1.4,2.9-2.7,3.7-4.3c8.4-16.6,16.6-33.3,24.9-50c0.7-1.5,1.5-2.9,2.8-5.4
			c1.8,4,3.2,7.2,4.6,10.4c-1.2,1.4-2.7,2.7-3.6,4.3c-7.1,13.7-14.2,27.3-21.1,41.1c-3.7,7.4-6.9,15-10.3,22.5c-3,0.4-6,0.7-9,1.1
			c0.8-2.3,1.5-4.6,2.4-6.8C160.2,169.8,162.1,165.5,164,161.2z"/>
		<path class="st12" d="M560,112c1.4-3.2,2.7-6.3,4.4-10.3c1.1,1.9,1.9,3.1,2.5,4.3c8.5,17.2,16.9,34.5,25.6,51.6
			c0.9,1.8,3.6,2.8,5.5,4.1c0.6,2,1.1,4.1,1.9,6c1.9,4.5,4,9,6,13.5c-3.3-0.4-6.6-0.9-9.9-1.3c-0.1-0.5-0.1-1-0.3-1.5
			c-10.8-21.3-21.6-42.6-32.5-63.8C562.6,113.5,561.1,112.9,560,112z"/>
		<path class="st19" d="M351,101c0.6-1.5,1.1-3.1,1.8-4.6c10.7-21.4,21.3-42.8,32.1-64.1c1-2,2.8-3.6,4.2-5.3c1.3,2.7,2.6,5.4,3.9,8
			c-4.3,8.3-8.7,16.6-13,25c-5.6,11.2-11.6,22.2-16.7,33.7C360.7,99.6,356.8,101.5,351,101z"/>
		<path class="st18" d="M148,275.8c-3.6,1.8-7.2,3.6-10.9,5.3c1.3-7.4,2.5-14.8,3.8-22.2c1.2-1.4,2.8-2.6,3.7-4.2
			c6.3-12,12.4-24.2,18.7-36.2c0.8-1.4,2.4-2.4,3.6-3.6c-0.1,1-0.2,1.9-0.4,2.9c-1.5,9.7-3,19.4-4.5,29.1
			c-3.9,7.1-7.9,14.2-11.6,21.4C149.2,270.6,148.8,273.3,148,275.8z"/>
		<path class="st20" d="M133,202c-3.7-3.7-7.3-7.4-11-11.1c1.1-0.8,2.6-1.4,3.2-2.5c3.2-5.6,6.2-11.3,9.1-17.1
			c0.9-1.8,1.1-4,1.7-6.1c6.4-0.8,12.7-1.6,19.1-2.4c-1.1,2.6-2.2,5.1-3.2,7.7c-1.6,3.9-3.1,7.8-4.7,11.7c-1.9,0.5-3.8,0.9-6.8,1.7
			c1.6,1.3,2.6,2.1,3.6,2.8c-2.3,3.7-4.4,7.5-6.8,11C136,199.3,134.3,200.6,133,202z"/>
		<path class="st21" d="M332,516c0.7,1.3,1.4,2.7,2,4c-5.7,6.3-10.6,2.6-15.2-1.8c-3.6,6.7-5.6,7.3-11,4.3c-2,2.6-4,5.1-6.1,7.7
			c-4.3-2.4-8.5-4.8-12.8-7.2c2.3-3,4.7-6,7-9c0.1-0.1,0.4-0.2,0.4-0.3c-0.1-0.2-0.3-0.5-0.4-0.7c-0.3-0.7-0.7-1.3-1-2
			c4.4,0,7.7-1.5,9-6.1c1.5,1,3.1,1.7,4.3,2.9c4.7,4.5,10.7,3.7,14.7-1.9C326,509.3,329,512.7,332,516z"/>
		<path class="st20" d="M325,82.2c-0.5,1.9-0.6,3.9-1.4,5.6c-5.8,11.5-11.6,22.9-17.7,34.2c-0.7,1.3-2.6,2-3.9,2.9
			c-2.5-2.3-5.1-4.6-7.2-6.6c5.4-10.7,10.5-21,15.6-31.3c0.4-0.8,0.4-1.9,0.5-2.9C315.6,83.6,320.3,82.9,325,82.2z"/>
		<path class="st22" d="M533.1,239c-1.8-2.2-4.1-4.2-5.3-6.7c-10.4-20.4-20.6-40.9-30.8-61.4c-0.6-1.1-0.7-2.5-1-3.8
			c2.3-0.3,4.7-0.6,7-1c1.6,6.7,3.3,13.3,9.7,17.4c-0.2,0.6-0.4,1.2-0.6,1.8c0.5,1.9,0.6,3.9,1.5,5.6c5.9,11.7,11.8,23.3,17.9,34.8
			c0.7,1.3,2.3,2.1,3.4,3.1C534.3,232.3,533.7,235.7,533.1,239z"/>
		<path class="st9" d="M302.9,85.5c-3.8,8-7.4,16.1-11.5,24c-0.4,0.8-4,1.1-4.9,0.3c-4.8-4.3-9.4-8.8-13.7-13.6
			c-1.3-1.4-1.3-3.9-1.9-5.9C281.6,88.6,292.3,87,302.9,85.5z"/>
		<path class="st16" d="M560,112c1.1,0.9,2.6,1.5,3.2,2.6c10.9,21.2,21.7,42.5,32.5,63.8c0.2,0.4,0.2,1,0.3,1.5
			c-2.7-0.3-5.3-0.7-8-1c-0.4-1.4-0.6-2.9-1.2-4.2c-9.1-18-18.3-36.1-27.6-54c-0.5-1-1.4-1.7-2.2-2.6C558.1,116,559,114,560,112z"/>
		<path class="st23" d="M301.8,530.1c2-2.6,4-5.1,6.1-7.7c5.4,3,7.4,2.4,11-4.3c4.6,4.5,9.4,8.1,15.2,1.8c2.7,3.3,5.3,6.7,8,10
			c-2.6,4-5.9,3.3-9.5,1.1c-2,4.9-5,3.7-7.2,2c-2.3,2.5-4.3,4.7-6.3,6.9C313.3,536.7,307.5,533.4,301.8,530.1z"/>
		<path class="st20" d="M610,163.2c4.7,0.7,9.3,1.3,14,2c3.9,8.3,7.8,16.6,11.8,24.8c0.3,0.5,1.4,0.6,2.2,0.9
			c-3.3,3.4-6.7,6.7-10,10.1c-2.2-4.1-4.4-8.3-6.8-12.4c-0.8-1.4-2.3-2.4-3.4-3.6c-0.3-0.7-0.5-1.4-0.8-2.1
			c-1.2-3.4-2.4-6.7-3.6-10.1C612.3,169.6,611.2,166.4,610,163.2z"/>
		<path class="st19" d="M557.1,118c0.7,0.9,1.7,1.6,2.2,2.6c9.2,18,18.4,36,27.6,54c0.7,1.3,0.8,2.8,1.2,4.2c-4.3,0.4-7-1.3-8.8-5.4
			c-3.8-8.4-7.9-16.7-12.1-25c-0.7-1.3-2-2.3-3-3.5c-0.9-0.8-2.2-1.5-2.7-2.5c-2.9-5.2-5.6-10.4-8.4-15.6
			C554.3,124,555.7,121,557.1,118z"/>
		<path class="st23" d="M418,530c2.7-4,5.3-8,8-12c0.7-0.3,1.3-0.7,2-1c4.3,5.2,9.1,4.3,14,1c0.8,1.5,1.7,4.4,2.3,4.3
			c3.1-0.4,6.1-1.5,7.8-2c2.1,3.4,4.1,6.6,6.1,9.8c-5.4,3-10.7,6.1-16.1,9.1c-1-2-2.9-4.2-2.7-6.1c0.2-1.8,2.7-3.3,4.2-4.9
			c-0.3-0.4-0.7-0.8-1-1.2c-3.2,2.3-6.5,4.5-10.1,7c-1.3-1.6-2.4-3.1-3.7-4.8C425.4,533.5,421.7,530.8,418,530z"/>
		<path class="st21" d="M458.2,530.1c-2-3.2-4-6.4-6.1-9.8c-1.7,0.5-4.7,1.6-7.8,2c-0.6,0.1-1.5-2.8-2.3-4.3c0,0,0,0,0,0
			c0.3-0.3,0.7-0.7,1-1c2-2.3,4-4.7,6-7c2-1.3,4-2.7,6-4c2.9,6.5,5,7.1,10.5,3.3c1.6-1,3.4-1.7,4-2c0.8,3.2,1,5.6,2,7.4
			c1.1,2,3,3.5,4.5,5.3C470.1,523.4,464.2,526.8,458.2,530.1z"/>
		<path class="st16" d="M165,179.9c3.4-7.5,6.7-15.1,10.4-22.5c6.9-13.8,14-27.5,21.1-41.1c0.8-1.6,2.4-2.9,3.6-4.3c1,2,2,4,3,6
			c-0.7,0.9-1.7,1.6-2.2,2.6c-9.2,18-18.4,36-27.6,54.1c-0.7,1.3-0.8,2.8-1.2,4.2C169.6,179.2,167.3,179.6,165,179.9z"/>
		<path class="st3" d="M118,292.3c4,0.6,8,1.3,11.9,1.9c-0.3,1.1-0.3,2.3-0.8,3.3c-7.1,14.1-14.3,28.1-21.6,42.1
			c-0.6,1.1-2.1,1.8-3.3,2.7c-0.6-3.2-1-6.6-1.9-9.7c-1.1-4,0-6.8,3-9.6c5.3-4.9,10.1-10.4,15.2-15.8c-2.3-0.5-4.5-0.9-6.7-1.3
			c0.5-1.9,0.9-3.8,1.4-5.6C116.2,297.5,117.2,294.9,118,292.3z"/>
		<path class="st18" d="M721.9,380.1c-2.6-1.4-5.3-2.8-7.9-4.1c-3.7-7.3-7.3-14.6-11-21.9c-0.9-6.2-1.9-12.4-2.7-18.6
			c-0.4-3.1-0.3-6.3-0.4-9.5c5,9.6,9.9,19.2,14.9,28.7c0.7,1.3,2.1,2.2,3.2,3.3C719.4,365.4,720.6,372.8,721.9,380.1z"/>
		<path class="st15" d="M622,295.2c1.6-0.2,3.3-0.3,4.9-0.5c0.5,1.7,0.8,3.6,1.6,5.2c5.3,10.7,10.6,21.4,16.1,32
			c2.9,5.5,6.3,10.8,9.4,16.2c0.7,2,1.3,3.9,2,5.9c2,4.3,4,8.6,5.9,12.9c-1.6,0.7-3.3,1.4-4.9,2.2c-4.2-8.3-8.3-16.7-12.6-25
			c-0.5-1-2.2-1.4-3.4-2.1c0.3-2.7,0.6-5.4,0.9-8.1c-0.4-1.2-0.4-2.7-1.2-3.6c-2.8-3.2-5.8-6.2-8.8-9.3c0.1-1.2,0.6-2.5,0.2-3.5
			c-2-4.2-4.4-8.2-6.3-12.3C624.3,302,623.3,298.6,622,295.2z"/>
		<path class="st19" d="M172,178.9c0.4-1.4,0.6-2.9,1.2-4.2c9.1-18,18.3-36.1,27.6-54.1c0.5-1,1.4-1.7,2.2-2.6
			c1,2.3,2.1,4.6,3.1,6.9c-3.4,6.7-6.7,13.4-10.1,20.1c-1.1,1.3-2.6,2.4-3.3,3.9c-4.1,8.1-8.2,16.3-11.9,24.6
			C179,177.6,176.3,179.3,172,178.9z"/>
		<path class="st17" d="M43,348.8c-9.7-15.9-19.3-31.9-29-47.8c3,2.4,6,4.7,9,7.1c1.3,1.3,2.6,2.6,3.9,3.9c3,3,6,6,8.9,9
			c1.3,1.1,2.6,2.1,3.9,3.2c2,2.3,4,4.5,6,6.8c-0.9,5.3-1.8,10.6-2.6,16C43.1,347.6,43,348.2,43,348.8z"/>
		<path class="st24" d="M166.9,215c-1.2,1.2-2.9,2.2-3.6,3.6c-6.3,12-12.4,24.2-18.7,36.2c-0.8,1.6-2.4,2.8-3.7,4.2
			c0.8-6.4,1.6-12.9,2.4-19.3c0.3-1.2,0.6-2.4,0.9-3.6c1.6-1.5,3.6-2.8,4.6-4.7c4.6-8.7,8.9-17.6,13.4-26.5
			C165.3,207.5,169,209.8,166.9,215z"/>
		<path class="st22" d="M459,86.3c2,0.4,3.9,0.7,5.9,1.1c-1.2,1.7-2.7,3.3-3.7,5.2c-13.1,25.8-26.1,51.6-39.3,77.3
			c-0.8,1.6-2.5,2.7-3.8,4.1c-0.3-2-0.7-4-1-6c1.3-1.3,3-2.5,3.8-4.1c7-13.6,13.8-27.3,20.7-40.9c5.5-11,11.2-21.9,16.7-32.8
			C458.9,89.1,458.8,87.6,459,86.3z"/>
		<path class="st7" d="M459,86.3c-0.2,1.3-0.1,2.7-0.6,3.9c-5.5,11-11.2,21.9-16.7,32.8c-6.9,13.6-13.7,27.3-20.7,40.9
			c-0.8,1.6-2.5,2.7-3.8,4.1c-0.4-2.3-0.7-4.7-1.1-7c1.2-1.2,2.9-2.1,3.6-3.6c7.3-13.9,14.4-28,21.5-42c0.9-1.8,1.1-4,1.6-6.1
			c0.4-0.8,0.8-1.5,1.2-2.3c3.7-7,7.4-14.1,11-21.1C456.3,86.1,457.7,86.2,459,86.3z"/>
		<path class="st20" d="M35.9,321c-3-3-6-6-8.9-9c3-6.3,6-12.5,9-18.8c5.7-0.7,11.4-1.4,17-2.1c-2,4.9-4,9.8-6,14.6
			c-1.6,0.3-3.1,0.7-5.1,1.1c0.8,1.3,1.3,2.1,1.8,2.9C41.1,313.5,38.5,317.3,35.9,321z"/>
		<path class="st2" d="M418.1,174c1.3-1.3,3-2.5,3.8-4.1c13.1-25.7,26.2-51.5,39.3-77.3c0.9-1.9,2.4-3.5,3.7-5.2
			c0.4,0.1,0.8,0.1,1.2,0.2c-0.6,2-1,4.2-2,6c-6.7,13.6-13.6,27.2-20.3,40.9c-1,2-1.2,4.4-1.7,6.6c-0.7,0.9-1.4,1.9-2.2,2.8
			c-4.5,1.8-3,5.7-3,9c-1.2,1.2-2.8,2.1-3.6,3.6c-3.6,6.9-6.9,13.9-10.5,20.7c-0.8,1.4-2.3,2.4-3.5,3.7
			C418.9,178.7,418.5,176.3,418.1,174z"/>
		<path class="st18" d="M47,375.8c-3,1.5-5.9,2.9-8.9,4.4c1-5.7,1.9-11.4,2.9-17.1c1-1,2.3-1.8,2.9-3c4.3-8,8.4-16.2,12.7-24.2
			c0.8-1.5,2.2-2.6,3.4-3.9c-1,7.4-2,14.7-3,22.1C53.6,361.3,50.3,368.5,47,375.8z"/>
		<path class="st18" d="M399,552c-1,1.3-2,2.7-3,4c-2.9,3.5-7.9,6.2-4.9,12.2c-3.3,2.1-6.5,4.2-9.9,6.2c-0.7,0.4-2,0.2-2.7-0.2
			c-3.2-1.9-6.3-3.9-9.5-5.9c2.7-5.2-1.2-8-4-11.2c-1-1.3-2-2.7-3-4c1-1.3,2-2.7,3-4c0.7,0.7,1.3,1.4,2,2c4.3,5.7,8.5,11.3,13,17.3
			c0-5,0-9.6,0-14.3c0-1,0-2,0-3c0.6,4.5,1.1,9.1,1.7,13.6c0.5,0.1,1.1,0.3,1.6,0.4c1-2.6,2-5.3,3-7.8c0.4-1,1.3-2.8,1.6-2.7
			c4.9,1.2,4.4-3.4,6.1-5.5c0.3,0,0.7,0,1,0C396.3,550,397.7,551,399,552z"/>
		<path class="st3" d="M455,86c-3.7,7-7.4,14.1-11,21.1c-4.3-0.7-8.6-1.5-13-2.2c1-2.2,2-4.5,3-6.7c2-4.8,4.1-9.6,6.1-14.4
			C445,84.4,450,85.2,455,86z"/>
		<path class="st18" d="M396.9,43c2.3,4.7,4.6,9.3,7,14c-1.1,1.3-2.4,2.4-3.3,3.9C397,66.9,393.5,73,390,79c-2.3-4.7-4.6-9.3-7-14
			c1.7-2.1,3.6-4,5-6.3C391.2,53.6,394,48.3,396.9,43z"/>
		<path class="st25" d="M418,530c3.7,0.8,7.4,3.5,10.9-0.7c1.3,1.7,2.4,3.2,3.7,4.8c3.6-2.5,6.8-4.7,10.1-7c0.3,0.4,0.7,0.8,1,1.2
			c-1.5,1.6-4,3.1-4.2,4.9c-0.2,1.9,1.7,4,2.7,6.1c-4.6,2.6-9.3,5.2-13.9,7.9c-3.9-0.6-4.3-2.9-3.2-6.1c0.1-0.1,0.2-0.3,0.2-0.4
			c-0.1,0.1-0.2,0.3-0.2,0.4c-5.4,4.2-8.5-1.8-14.3-2.8C413.6,534.9,415.8,532.5,418,530z"/>
		<path class="st12" d="M59,290.1c6.4-12.5,12.8-25,19.1-37.5c1.1-2.1,2.2-4.3,3.8-7.3c1.3,3.2,2.3,5.4,3.2,7.6
			c-2.1,3.6-4.3,7.1-6.2,10.8c-6.7,13.4-13.3,26.8-19.9,40.3c-1.7,0.3-3.4,0.6-5,0.8c0.6-1.8,1.3-3.7,1.9-5.5
			C56.9,296.2,57.9,293.2,59,290.1z"/>
		<path class="st22" d="M262,167.1c1.4,0.2,2.7,0.5,4.1,0.7c-0.7,1.7-1.2,3.4-2,5c-6.1,12-12.3,23.9-18.3,35.9
			c-0.6,1.2-0.5,2.9-0.7,4.3c-1,1.6-2,3.3-3,4.9c-3.3,5.9-6.5,11.8-9.9,17.6c-1.4,2.3-3.3,4.3-5,6.4c-0.3-2-0.7-4-1-6
			c1.1-1.3,2.5-2.5,3.3-4c4.1-7.6,8.1-15.2,11.9-23C248.3,195.1,255.1,181.1,262,167.1z"/>
		<path class="st12" d="M674.9,253c0.9-2.2,1.8-4.5,3.2-7.9c2.1,4.3,3.7,7.4,5.3,10.6c5,10.1,9.9,20.2,15.1,30.2
			c0.8,1.6,2.4,2.9,3.6,4.4c0.6,1.8,1.2,3.7,1.8,5.5c1,3.1,2.1,6.1,3.2,9.2c-2-0.3-4-0.6-6-0.9c-0.3-1.1-0.3-2.3-0.8-3.3
			c-5.7-11.6-11.4-23.2-17.4-34.7C680.5,261.4,677.6,257.3,674.9,253z"/>
		<path class="st24" d="M619,257c-1.3-1.3-3.1-2.4-3.9-4c-6.3-12-12.5-24.2-18.8-36.2c-0.8-1.5-2.3-2.5-3.4-3.8
			c-2.2-4.3,2.4-4.9,4-7.1c1.1,1.4,2.4,2.7,3.2,4.3c3.8,7.4,7.4,14.9,11.3,22.3c1.1,2.1,3,3.7,4.6,5.6c0.3,0.6,0.6,1.1,0.9,1.7
			C617.5,245.5,618.2,251.2,619,257z"/>
		<path class="st20" d="M710.9,291.6c4.7,0.6,9.5,1.2,14.2,1.9c2,5,3.9,10,6.2,14.8c0.6,1.2,2.5,1.8,3.7,2.7c-3,2.7-5.9,5.3-8.9,8
			c-1.3-1.2-2.8-2.4-4-3.8c-1.7-2.1-3.2-4.3-4.8-6.5c1.9-2,0.4-2.5-1.3-2.8c-0.5-1.7-1-3.5-1.6-5.2
			C713.3,297.7,712,294.6,710.9,291.6z"/>
		<path class="st7" d="M262,167.1c-6.9,14-13.7,28-20.6,41.9c-3.8,7.7-7.8,15.4-11.9,23c-0.8,1.5-2.2,2.7-3.3,4
			c-0.4-2.3-0.7-4.7-1.1-7c0.8-0.7,2-1.3,2.4-2.2c6.2-11.9,12.3-23.8,18.4-35.7c0.7-1.4,0.6-3.2,0.9-4.7c0.1-0.9,0.3-1.9,0.4-2.8
			c6.5-3.9,8.1-10.6,9.8-17.3C258.7,166.5,260.3,166.8,262,167.1z"/>
		<path class="st14" d="M261,507.1c2.7-4.4,5.3-8.8,8-13.1c1.7,1,3.3,2.1,5,3.1c3.3,2,6.7,4,10,6l0,0c0.3,1,0.7,2,1,3
			c-2,3.7-4.1,7.5-6.1,11.2C272.9,513.8,267,510.4,261,507.1z"/>
		<path class="st9" d="M631,166.3c7,1,14,1.9,20.9,2.9c0.7,1.9,1.4,3.8,2.1,5.7c-4,4.1-8.1,8.1-12.1,12.2
			C635.1,181.8,632.5,174.4,631,166.3z"/>
		<path class="st18" d="M552.9,126.9c2.8,5.2,5.5,10.5,8.4,15.6c0.6,1,1.8,1.7,2.7,2.5c-2.4,5-4.7,10-7.1,15c-0.7-0.7-1.5-1.3-2-2.1
			c-3.1-5.4-6.1-10.7-9.1-16.1C548.3,136.9,550.6,131.9,552.9,126.9z"/>
		<path class="st9" d="M118,187c-3.7-4-7.4-8-11.1-12c0.4-1.9,0.8-3.9,1.2-5.8c7-1,14-1.9,20.9-2.9c-1.6,4.4-2.9,8.9-5,13
			C122.6,182.1,120.1,184.5,118,187z"/>
		<path class="st25" d="M319,540c2-2.2,4.1-4.4,6.3-6.9c2.2,1.7,5.2,3,7.2-2c3.6,2.2,6.9,2.9,9.5-1.1c2.3,2.5,4.7,5,7.4,7.9
			c-3.4,1.9-6.3,3.6-9.8,5.6c-0.6-0.4-1.9-1.2-2.7-1.6c-1.4,2.2-2.6,4.2-3.9,6.2C328.4,545.3,323.7,542.7,319,540z"/>
		<path class="st11" d="M642,187.1c4-4.1,8.1-8.1,12.1-12.2c0.4,0.1,0.8,0.2,1.2,0.3c-3.1,5.4-6.2,10.8-9.3,16.2
			c-3.9,6.6-7.9,13.1-11.9,19.6c-3-2-6-4.1-9-6.1c1-1.3,2.1-2.6,3.1-3.8c3.3-3.4,6.7-6.7,10-10.1C639.3,189.6,640.6,188.4,642,187.1
			z"/>
		<path class="st4" d="M654,348.1c-3.2-5.4-6.5-10.7-9.4-16.2c-5.5-10.6-10.8-21.3-16.1-32c-0.8-1.6-1.1-3.4-1.6-5.2
			c1.7-0.3,3.4-0.5,5.1-0.8c2.3,4.3,4.7,8.7,7,13c0.3,0.7,0.6,1.5,0.9,2.2c-0.1,1.1-0.5,2.4-0.1,3.2c4.3,8.8,8.6,17.6,13.1,26.3
			c0.5,1,1.9,1.5,2.9,2.3C655.2,343.4,654.6,345.7,654,348.1z"/>
		<path class="st15" d="M245.1,213c0.2-1.4,0-3.1,0.7-4.3c6-12,12.2-23.9,18.3-35.9c0.8-1.6,1.3-3.4,2-5c1.6,0.1,3.3,0.3,4.9,0.4
			c-2.3,5.4-4.6,10.8-7,16.3c-2.7,6.2-5.3,12.4-8,18.6C252.4,206.4,248.7,209.7,245.1,213z"/>
		<path class="st16" d="M674.9,253c2.7,4.3,5.7,8.4,8,12.9c6,11.5,11.6,23.1,17.4,34.7c0.5,1,0.5,2.2,0.8,3.3
			c-1.7-0.3-3.4-0.6-5-0.9c-0.7-1.8-1.3-3.7-2.2-5.5c-6.9-13.6-13.9-27.1-20.8-40.6C673.6,255.6,674.2,254.3,674.9,253z"/>
		<path class="st19" d="M88.1,259c1,2,2,4,3,6c-1.7,3-3.2,6.2-5.1,9.1c-1,1.5-2.6,2.6-3.9,4c-3.8,7.2-7.6,14.3-11.2,21.5
			c-1.3,2.6-2.9,4-5.8,3.5c0.5-1.9,0.6-4,1.4-5.7c6-11.8,12-23.6,18.2-35.3C85.3,260.7,86.9,260,88.1,259z"/>
		<path class="st19" d="M672.9,256.9c7,13.5,13.9,27.1,20.8,40.6c0.9,1.7,1.5,3.6,2.2,5.5c-3.7,0.6-5.6-1.1-7.2-4.4
			c-3.3-7-7.2-13.8-10.8-20.6c-1.4-1.8-2.8-3.5-4.1-5.3c-1.7-2.5-3.3-5.1-4.9-7.7C670.3,262.3,671.6,259.6,672.9,256.9z"/>
		<path class="st18" d="M209.1,131c2,4,4,8,6,12c-3.7,6.3-7.3,12.7-11,19c-2-4.3-4.1-8.6-6.1-12.9c1.4-2,2.8-3.9,4-6
			C204.4,139.1,206.7,135,209.1,131z"/>
		<path class="st3" d="M512.7,183.6c-6.4-4-8.1-10.7-9.7-17.4c4.3-0.6,8.6-1.3,12.9-1.9c0.9,2.3,1.7,4.6,2.6,6.8
			c1.4,3.6,3,7.2,4.4,10.8C519.6,182.5,516.1,183,512.7,183.6z"/>
		<path class="st16" d="M88.1,259c-1.2,1-2.8,1.8-3.5,3c-6.2,11.7-12.2,23.5-18.2,35.3c-0.9,1.7-1,3.8-1.4,5.7c-2,0.3-4,0.6-6,0.9
			c6.6-13.4,13.2-26.9,19.9-40.3c1.9-3.7,4.1-7.2,6.2-10.8C86.1,254.9,87.1,256.9,88.1,259z"/>
		<path class="st3" d="M257,166.2c-1.6,6.7-3.2,13.4-9.8,17.3c-3.1-0.5-6.2-1-9.2-1.5c0.7-2,1.2-4,2-5.9c1.6-3.9,3.4-7.7,5-11.6
			C249,165.1,253,165.6,257,166.2z"/>
		<path class="st6" d="M407.9,65c1.4,3,2.7,6,4.1,9c-2.3,3.5-4.5,7.1-6.8,10.6c-2.4,3.5-4.9,7-7.4,10.4c-1.3-2.6-2.6-5.3-3.8-7.9
			c3.3-6,6.6-12.1,10.1-18C405,67.5,406.6,66.4,407.9,65z"/>
		<path class="st15" d="M442,141.1c0.6-2.2,0.8-4.6,1.7-6.6c6.7-13.7,13.6-27.2,20.3-40.9c0.9-1.9,1.3-4,2-6c1.7,0.4,3.3,0.8,5,1.2
			c-6.4,12.6-12.9,25.1-19.3,37.7c-1,2-1.2,4.4-1.7,6.6C447.4,135.8,444.7,138.5,442,141.1z"/>
		<path class="st23" d="M397.8,95c2.5-3.5,5-6.9,7.4-10.4c2.3-3.5,4.5-7,6.8-10.6c1.3,2,2.7,4,4,6c-1,2.5-2,5.1-3.1,7.6
			c-1.9,4.5-3.9,8.9-5.9,13.4C402.3,101.5,398.8,100.3,397.8,95z"/>
		<path class="st13" d="M610,163.2c1.1,3.2,2.2,6.4,3.4,9.6c1.2,3.4,2.4,6.7,3.6,10.1c-3.7-0.6-7.4-1.1-11.1-1.7
			c-2-4.5-4.1-8.9-6-13.5c-0.8-1.9-1.3-4-1.9-6C602.1,162.2,606.1,162.7,610,163.2z"/>
		<path class="st4" d="M104.4,342.3c1.1-0.9,2.7-1.5,3.3-2.7c7.3-14,14.5-28.1,21.6-42.1c0.5-1,0.5-2.2,0.8-3.3
			c1,0.2,2.1,0.4,3.1,0.6c-0.2,1.1-0.2,2.4-0.7,3.4c-4.6,9-9.3,18-13.8,27c-1.1,2.2-1.7,4.6-2.6,6.9c-2.4,4.7-4.6,9.5-7.1,14.1
			c-0.7,1.2-2.3,1.9-3.4,2.8C105.1,346.7,104.7,344.5,104.4,342.3z"/>
		<path class="st24" d="M60,332c-1.1,1.3-2.6,2.4-3.4,3.9c-4.3,8-8.4,16.1-12.7,24.2c-0.6,1.2-1.9,2-2.9,3c0.7-4.7,1.3-9.5,2-14.2
			c0.1-0.6,0.1-1.2,0.2-1.8c1-0.8,2.4-1.3,2.9-2.3c3.7-7.2,7.3-14.4,10.9-21.6C60.8,325.1,62.1,328,60,332z"/>
		<path class="st21" d="M473.1,110c-4.7,4.7-9.3,9.5-14,14.2c0.6-2,1-4.2,1.9-6.1c4.6-9.8,9.3-19.5,14-29.2c2,0.3,4,0.7,6,1
			c-2.5,5.2-5,10.5-7.3,15.8C473.1,107,473.3,108.6,473.1,110z"/>
		<path class="st8" d="M726.1,319c3-2.7,5.9-5.3,8.9-8c1-1.3,2-2.6,3-4c2.7-2,5.4-4,8.1-6c-6.3,10.1-12.6,20.2-18.9,30.3
			c-2.4-1.8-4.8-3.6-7.2-5.3c0.4-0.6,0.8-1.3,1.2-1.9C722.8,322.4,724.5,320.7,726.1,319z"/>
		<path class="st26" d="M475,89c-4.7,9.7-9.4,19.4-14,29.2c-0.9,1.9-1.3,4-1.9,6.1c-3,3-6,5.9-9,8.9c0.6-2.2,0.7-4.6,1.7-6.6
			c6.3-12.6,12.8-25.1,19.3-37.7C472.4,88.9,473.7,89,475,89z"/>
		<path class="st24" d="M718.1,358c-1.1-1.1-2.5-2-3.2-3.3c-5.1-9.5-10-19.1-14.9-28.7c1.3-1.3,2.7-2.7,4-4
			c2.6,4.8,5.1,9.6,7.8,14.4c0.8,1.4,2.3,2.4,3.5,3.6c0.6,3,1.2,5.9,1.8,8.9C717.4,351.8,717.7,354.9,718.1,358z"/>
		<path class="st24" d="M407.9,65c-1.3,1.3-2.9,2.5-3.8,4c-3.5,5.9-6.8,12-10.1,18c-1.3-2.7-2.6-5.4-4-8.1c3.5-6,7-12.1,10.6-18.1
			c0.9-1.4,2.2-2.6,3.3-3.9C405.2,59.7,406.5,62.4,407.9,65z"/>
		<path class="st26" d="M526,162.9c3.3-0.6,6.7-1.3,10-1.9c0.8,2.3,1.6,4.6,2.5,6.9c1.4,3.7,3,7.3,4.5,10.9
			c-3.3,0.5-6.6,0.9-9.8,1.4c-0.7-1.7-1.3-3.4-2-5.1C529.4,171.1,527.7,167,526,162.9z"/>
		<path class="st21" d="M489,168.3c2.2,5,4.3,10,6.6,14.9c2.3,5,5,9.8,7.3,14.7c0.7,1.6,0.7,3.5,1.1,5.2c-4-4-8-8-12-11.9
			c-0.5-2.2-0.8-4.5-1.7-6.5c-2.3-5.2-4.8-10.4-7.2-15.5C485,168.9,487,168.6,489,168.3z"/>
		<path class="st21" d="M256,203.1c2.7-6.2,5.3-12.4,8-18.6c2.3-5.4,4.6-10.8,7-16.3c2,0.3,4,0.6,6,0.9c-1,2.4-1.9,4.8-2.9,7.2
			c-2,4.9-4,9.9-6.1,14.8C264,195.2,260,199.1,256,203.1z"/>
		<path class="st4" d="M440,83.7c-2,4.8-4,9.6-6.1,14.4c-1,2.3-2,4.5-3,6.7c-2.7-0.4-5.3-0.8-8-1.1c0.8-2.1,1.5-4.3,2.4-6.4
			c2.1-5,4.4-9.9,6.6-14.9C434.7,82.8,437.4,83.2,440,83.7z"/>
		<path class="st24" d="M396.9,43c-2.9,5.2-5.8,10.6-8.9,15.7c-1.4,2.3-3.3,4.2-5,6.3c-1-1.7-2-3.4-3-5c4.3-8.3,8.7-16.6,13-25
			C394.3,37.7,395.6,40.3,396.9,43z"/>
		<path class="st18" d="M82,278c1.3-1.3,2.9-2.4,3.9-4c1.9-2.9,3.4-6,5.1-9.1c2,4.3,4,8.6,6.1,13c-2.7,4.4-5.4,8.8-8.2,13.2
			C86.6,286.8,84.3,282.4,82,278z"/>
		<path class="st26" d="M407,101c2-4.5,4-8.9,5.9-13.4c1.1-2.5,2.1-5.1,3.1-7.6c3,0.4,6,0.8,9,1.2c-0.4,0.9-0.8,1.7-1.2,2.6
			c-2.9,6.1-5.9,12.3-8.8,18.4C412.3,101.8,409.7,101.4,407,101z"/>
		<path class="st22" d="M526,162.9c1.7,4.1,3.4,8.2,5.1,12.3c0.7,1.7,1.4,3.4,2,5.1c-3.4,0.5-6.8,1.1-10.2,1.6
			c-1.5-3.6-3-7.2-4.4-10.8c-0.9-2.3-1.7-4.6-2.6-6.8C519.3,163.8,522.6,163.4,526,162.9z"/>
		<path class="st15" d="M415,102.2c2.9-6.1,5.9-12.3,8.8-18.4c0.4-0.9,0.8-1.7,1.2-2.6c2.3,0.4,4.7,0.8,7,1.2
			c-2.2,5-4.5,9.9-6.6,14.9c-0.9,2.1-1.6,4.3-2.4,6.4C420.3,103.2,417.7,102.7,415,102.2z"/>
		<path class="st9" d="M624.9,204.8c3,2,6,4.1,9,6.1c-2.3,3.7-4.6,7.4-7,11c-4.1-2.4-8.1-4.9-12.2-7.3c0.8-1.2,1.7-2.4,2.5-3.5
			c1.5-1.5,3.1-3,4.6-4.4C622.9,206.1,623.9,205.5,624.9,204.8z"/>
		<path class="st5" d="M614.8,214.7c4.1,2.4,8.1,4.9,12.2,7.3c-3.4,5.9-6.8,11.8-10.2,17.7c-0.3-0.6-0.6-1.1-0.9-1.7
			c-1.1-7-2.2-14-3.3-21C613.3,216.3,614,215.5,614.8,214.7z"/>
		<path class="st24" d="M204,162c3.7-6.3,7.3-12.7,11-19c1.4,3,2.8,5.9,4.2,8.9c-1.1,1.4-2.3,2.7-3.2,4.2c-2.7,4.6-5.4,9.3-8,14
			C206.6,167.4,205.3,164.7,204,162z"/>
		<path class="st25" d="M208,170c2.7-4.7,5.3-9.4,8-14c0.9-1.5,2.1-2.8,3.2-4.2c1.3,2.7,2.6,5.3,3.9,8c-3.1,6.1-6.1,12.3-9.1,18.4
			C209.2,177.5,209.6,173.1,208,170z"/>
		<path class="st18" d="M669,265c1.6,2.6,3.2,5.2,4.9,7.7c1.3,1.8,2.7,3.5,4.1,5.3c-2,3.7-3.9,7.4-5.9,11.1
			c-2.7-4.4-5.4-8.8-8.1-13.3C665.6,272.2,667.3,268.6,669,265z"/>
		<path class="st2" d="M116,332c0.8-2.3,1.5-4.7,2.6-6.9c4.5-9,9.2-18,13.8-27c0.5-1,0.5-2.2,0.7-3.4c1.3,0.1,2.6,0.2,3.9,0.4
			c-0.6,2.5-0.8,5.2-1.9,7.5c-2.9,6.6-6,13-9.1,19.5c-3,3.3-6,6.6-9,9.9C116.7,332,116.3,332,116,332z"/>
		<path class="st22" d="M245,164.5c-1.7,3.9-3.4,7.7-5,11.6c-0.8,1.9-1.3,4-2,5.9c-3-0.4-6-0.8-9-1.2c0.6-2.2,1-4.4,1.9-6.5
			c1.6-3.8,3.4-7.4,5.1-11.1C239,163.6,242,164,245,164.5z"/>
		<path class="st13" d="M147.1,182.2c1.6-3.9,3.1-7.8,4.7-11.7c1-2.6,2.1-5.1,3.2-7.7c3-0.5,6-1.1,9-1.6c-1.8,4.3-3.7,8.6-5.5,12.9
			c-0.9,2.2-1.6,4.5-2.4,6.8C153,181.4,150.1,181.8,147.1,182.2z"/>
		<path class="st26" d="M278.9,517.2c2-3.7,4.1-7.5,6.1-11.2c0.7,0,1.3,0,2,0.1c0.3,0.3,0.7,0.6,1,1c1,0.7,2,1.3,3,2
			c0.3,0.3,0.7,0.7,1,1c0.3,0,0.7,0,1,0c0.7,0.3,1.3,0.7,2,1c0.3,0.7,0.7,1.3,1,2c0,0.3,0,0.6,0,0.9c-2.3,3-4.7,6-7,9
			C285.7,521,282.3,519.1,278.9,517.2z"/>
		<path class="st17" d="M717,348.8c-0.6-3-1.2-5.9-1.8-8.9c0.6-3.6-2.9-7.5,0.9-10.8c1.3-1,2.6-2.1,3.8-3.1c2.4,1.8,4.8,3.6,7.2,5.3
			C723.8,337.1,720.4,343,717,348.8z"/>
		<path class="st25" d="M483,169.2c2.4,5.2,5,10.3,7.2,15.5c0.9,2,1.1,4.3,1.7,6.5c-6.7-6.3-13.5-12.6-20.7-19.4
			c1.7-0.9,2.7-1.3,3.6-1.8C477.6,169.7,480.3,169.4,483,169.2z"/>
		<path class="st23" d="M268,191.2c2-4.9,4-9.9,6.1-14.8c1-2.4,1.9-4.8,2.9-7.2c2.8,0.3,5.6,0.5,8.4,0.8c0.8,1,1.6,1.9,2.4,2.9
			C281.2,179,274.6,185.1,268,191.2z"/>
		<path class="st23" d="M543,178.9c-1.5-3.6-3-7.3-4.5-10.9c-0.9-2.3-1.7-4.6-2.5-6.9c0.9-1.7,1.9-3.5,2.8-5.2c1.3,1.6,3,3,4,4.8
			c2.6,4.4,4.9,8.9,7.3,13.4C549.4,178.2,546.7,179.3,543,178.9z"/>
		<path class="st21" d="M126,322.1c3.1-6.5,6.2-12.9,9.1-19.5c1-2.3,1.3-5,1.9-7.5c2.3,0.3,4.7,0.7,7,1c-1.6,4.7-3.3,9.3-4.9,14
			C134.7,314.1,130.3,318.1,126,322.1z"/>
		<path class="st21" d="M622,295.2c1.3,3.3,2.3,6.8,3.8,10c1.9,4.2,4.3,8.2,6.3,12.3c0.4,0.9-0.1,2.3-0.2,3.5c-4-4-8-7.9-12-11.9
			c-0.5-1.7-1-3.4-1.5-5.1c-0.8-2.6-1.6-5.3-2.5-7.9C618,295.8,620,295.5,622,295.2z"/>
		<path class="st5" d="M118,187c2-2.6,4.6-4.9,6-7.7c2.1-4.1,3.4-8.7,5-13c2.3-0.3,4.6-0.7,6.9-1c-0.5,2-0.8,4.2-1.7,6.1
			c-2.9,5.8-5.9,11.5-9.1,17.1c-0.6,1.1-2.1,1.7-3.2,2.5C120.6,189.6,119.3,188.3,118,187z"/>
		<path class="st25" d="M473.1,110c0.2-1.4,0.1-3,0.6-4.3c2.3-5.3,4.8-10.5,7.3-15.8c3.7,0.7,7.3,1.5,11,2.2c0.1,0.3,0.1,0.6,0,0.9
			c0,0,0.1-0.1,0.1-0.1C485.7,98.7,479.4,104.4,473.1,110z"/>
		<path class="st24" d="M545.9,141.8c3,5.4,6,10.8,9.1,16.1c0.5,0.8,1.3,1.4,2,2.1c-1.3,2.7-2.6,5.4-3.9,8.1
			c-1.2-2.4-2.2-4.9-3.6-7.1c-2.4-3.8-5.1-7.4-7.6-11.1C543.2,147.2,544.5,144.5,545.9,141.8z"/>
		<path class="st3" d="M639,307c-2.3-4.3-4.7-8.7-7-13c3.3-0.6,6.7-1.1,10-1.7c1.7,4.5,3.3,8.9,5,13.4
			C644.3,306.1,641.6,306.5,639,307z"/>
		<path class="st15" d="M236,163.1c-1.7,3.7-3.5,7.4-5.1,11.1c-0.9,2.1-1.3,4.3-1.9,6.5c-2.7-0.4-5.3-0.8-8-1.2c0.7-2,1.3-4,2.1-5.9
			c1.6-3.9,3.2-7.8,4.9-11.7C230.7,162.4,233.3,162.8,236,163.1z"/>
		<path class="st5" d="M642,187.1c-1.3,1.3-2.6,2.6-3.9,3.9c-0.7-0.3-1.9-0.4-2.2-0.9c-4-8.2-7.9-16.5-11.8-24.8
			c2.3,0.3,4.6,0.7,6.9,1C632.5,174.4,635.1,181.8,642,187.1z"/>
		<path class="st9" d="M23,308.1c-3-2.4-6-4.7-9-7.1c-0.3-0.6-0.7-1.3-1-1.9c0-0.8,0.1-1.5,0.1-2.3c5.6-0.9,11.3-1.8,16.9-2.7
			C27.7,298.8,25.3,303.4,23,308.1z"/>
		<path class="st21" d="M228,162c-1.6,3.9-3.3,7.8-4.9,11.7c-0.8,1.9-1.4,3.9-2.1,5.9c-2.4-0.5-4.7-0.9-7.1-1.4
			c3-6.1,6.1-12.3,9.1-18.4C224.7,160.6,226.4,161.3,228,162z"/>
		<path class="st6" d="M541.8,149.9c2.6,3.7,5.2,7.3,7.6,11.1c1.4,2.2,2.4,4.7,3.6,7.1c-1,2-2,4-3,6c-2.4-4.5-4.7-9-7.3-13.4
			c-1-1.8-2.6-3.2-4-4.8C539.8,153.9,540.8,151.9,541.8,149.9z"/>
		<path class="st9" d="M746.1,301c-2.7,2-5.4,4-8.1,6c-2.3-4.3-4.7-8.5-7-12.8c5.3,0.9,10.6,1.7,15.9,2.6c0,0.8,0.1,1.6,0.1,2.3
			C746.7,299.8,746.4,300.4,746.1,301z"/>
		<path class="st13" d="M710.9,291.6c1.2,3.1,2.4,6.1,3.5,9.2c0.6,1.7,1.1,3.4,1.6,5.2c-3-0.4-6-0.7-9-1.1c-1.1-3.1-2.1-6.1-3.2-9.2
			c-0.6-1.8-1.2-3.7-1.8-5.5C705,290.6,707.9,291.1,710.9,291.6z"/>
		<path class="st24" d="M209.1,131c-2.4,4-4.7,8.1-7.1,12.1c-1.2,2-2.7,4-4,6c-0.6-1.3-1.3-2.7-1.9-4c3.4-6.7,6.7-13.4,10.1-20.1
			C207.1,126.9,208.1,129,209.1,131z"/>
		<path class="st22" d="M647,305.6c-1.7-4.5-3.3-8.9-5-13.4c2.3-0.3,4.7-0.7,7-1c1.7,4.4,3.5,8.8,5.2,13.2
			C651.8,304.8,649.4,305.2,647,305.6z"/>
		<path class="st5" d="M23,308.1c2.3-4.6,4.7-9.3,7-13.9c2-0.3,3.9-0.6,5.9-0.9c-3,6.3-6,12.5-9,18.8
			C25.6,310.7,24.3,309.4,23,308.1z"/>
		<path class="st24" d="M391,568.2c-3-5.9,2-8.6,4.9-12.2c1.7,0,3.5,0,5.8,0c0.5,1.2,1.4,3.1,2.2,5
			C399.7,563.4,395.4,565.8,391,568.2z"/>
		<path class="st13" d="M59,290.1c-1,3.1-2.1,6.1-3.1,9.2c-0.6,1.8-1.3,3.7-1.9,5.5c-2.3,0.3-4.7,0.6-7,1c2-4.9,4-9.8,6-14.6
			C55,290.8,57,290.4,59,290.1z"/>
		<path class="st5" d="M731,294.2c2.3,4.3,4.7,8.5,7,12.8c-1,1.3-2,2.6-3,4c-1.3-0.9-3.2-1.5-3.7-2.7c-2.3-4.8-4.2-9.9-6.2-14.8
			C727,293.7,729,294,731,294.2z"/>
		<path class="st22" d="M118,292.3c-0.9,2.6-1.8,5.2-2.6,7.9c-0.6,1.9-1,3.8-1.4,5.6c-2.3-0.4-4.7-0.7-7-1.1c1.7-4.5,3.3-8.9,5-13.4
			C114,291.7,116,292,118,292.3z"/>
		<path class="st25" d="M99.2,282.6c1,2,2,4,2.9,6c-2.4,4.8-4.7,9.5-7.1,14.3c-1.3-2.3-2.7-4.6-4-6.9
			C93.8,291.5,96.5,287,99.2,282.6z"/>
		<path class="st26" d="M654.2,304.4c-1.7-4.4-3.5-8.8-5.2-13.2c2.3-0.4,4.7-0.7,7-1.1c1.7,4.4,3.4,8.7,5.1,13.1
			C658.8,303.6,656.5,304,654.2,304.4z"/>
		<path class="st23" d="M661.1,303.2c-1.7-4.4-3.4-8.7-5.1-13.1c0.7-1,1.4-2.1,2.1-3.1c1.2,1.2,2.7,2.2,3.6,3.5
			c1.9,3,3.5,6.3,5.3,9.4C666.2,303.3,663.6,303.2,661.1,303.2z"/>
		<path class="st24" d="M365,557c2.8,3.2,6.7,6,4,11.2c-3.7-2-7.3-4.1-11-6.1c0.1-1.5,0.2-2.9,0.2-4.6
			C360.6,557.3,362.8,557.1,365,557z"/>
		<path class="st21" d="M95,302.9c2.4-4.8,4.7-9.5,7.1-14.3c1.3,0.7,2.6,1.4,3.9,2.1c-1.7,4.4-3.4,8.7-5,13.1
			C99,303.5,97,303.2,95,302.9z"/>
		<path class="st24" d="M99.2,282.6c-2.7,4.5-5.4,9-8.2,13.4c-0.7-1.6-1.4-3.2-2.1-4.9c2.7-4.4,5.4-8.8,8.2-13.2
			C97.8,279.5,98.5,281,99.2,282.6z"/>
		<path class="st25" d="M667,300c-1.7-3.2-3.4-6.4-5.3-9.4c-0.9-1.4-2.4-2.4-3.6-3.5c1.2-2.1,2.5-4.3,3.7-6.4
			c2.7,4.5,5.4,8.9,8.1,13.4C669,296,668,298,667,300z"/>
		<path class="st24" d="M669.9,294c-2.7-4.5-5.4-8.9-8.1-13.4c0.7-1.6,1.4-3.2,2.1-4.7c2.7,4.4,5.4,8.8,8.1,13.3
			C671.4,290.7,670.6,292.4,669.9,294z"/>
		<path class="st15" d="M101,303.8c1.7-4.4,3.4-8.7,5-13.1c2,0.2,4,0.4,6,0.7c-1.7,4.5-3.3,8.9-5,13.4
			C105,304.4,103,304.1,101,303.8z"/>
		<path class="st25" d="M139,310.1c1.6-4.7,3.3-9.3,4.9-14c1.4,0,2.8-0.1,4.2-0.1c1.3,0.6,2.5,1.3,3.8,1.9
			C147.6,302,143.3,306.1,139,310.1z"/>
		<path class="st6" d="M616,296.1c0.8,2.6,1.7,5.2,2.5,7.9c0.5,1.7,1,3.4,1.5,5.1c-4-3.8-7.9-7.5-11.9-11.3c1.2-0.6,2.5-1.2,3.7-1.8
			C613.3,296.1,614.6,296.1,616,296.1z"/>
		<path class="st20" d="M108.1,169.2c-0.4,1.9-0.8,3.9-1.2,5.8c-0.7,0-1.4,0.1-2.1,0.1c0,0,0.1,0,0.1,0c-0.5-0.3-1-0.7-1.4-1
			c-0.8-1.1-1.5-2.3-2.7-4C103.7,169.7,105.9,169.4,108.1,169.2z"/>
		<path class="st20" d="M655.2,175.2c-0.4-0.1-0.8-0.2-1.2-0.3c-0.7-1.9-1.4-3.8-2.1-5.7c2.1,0.2,4.3,0.5,7.1,0.8
			c-0.9,1.4-1.4,2.2-1.9,3.1c-0.4,0.4-0.7,0.7-1.1,1.1c0,0,0,0,0,0c-0.3,0.4-0.7,0.7-1,1.1L655.2,175.2z"/>
		<path class="st17" d="M13.1,296.8c0,0.8-0.1,1.5-0.1,2.3c-0.4-0.6-0.9-1.2-1.3-1.8C12.1,297.1,12.6,297,13.1,296.8z"/>
		<path class="st8" d="M747.1,299.1c0-0.8-0.1-1.6-0.1-2.3c0.5,0.2,1,0.3,1.5,0.5C748,297.9,747.5,298.5,747.1,299.1z"/>
		<path class="st11" d="M656,174.1c0.4-0.4,0.7-0.7,1.1-1.1C656.7,173.4,656.4,173.7,656,174.1z"/>
		<path class="st11" d="M492,93.1c0.1-0.3,0.1-0.6,0-0.9c0.2,0.2,0.4,0.5,0.6,0.7C492.4,92.9,492.2,93,492,93.1z"/>
		<path class="st17" d="M103.5,174.1c0.5,0.3,1,0.7,1.4,1C104.5,174.7,104,174.4,103.5,174.1z"/>
		<path class="st11" d="M655.1,175.1c0.3-0.4,0.7-0.7,1-1.1C655.7,174.4,655.4,174.7,655.1,175.1z"/>
		<path class="st3" d="M546,285c3,2.6,5.8,5.6,9.1,7.6c12.5,7.3,25.3,14.3,37.9,21.4c-0.5,1-0.9,2.1-1.6,3c-5.5,7-11,14-16.5,21
			c-4,4.3-8,8.7-12,13c-1.4-1.9-2.3-4.4-4.2-5.5c-11.8-7-23.9-13.7-35.8-20.6c1.3-3,2.7-6,4-9c0.3-0.4,0.7-0.7,1-1.1
			C534,304.9,540,294.9,546,285z"/>
		<path class="st5" d="M575,338c5.5-7,11-14,16.5-21c0.7-0.9,1-2,1.6-3c3.5-3.9,6.9-7.9,10.4-11.7c1.4-1.6,3.1-2.9,4.7-4.4
			c4,3.7,7.9,7.5,11.9,11.3c4,4,8,7.9,12,11.9c2.9,3.1,6,6.1,8.8,9.3c0.8,0.9,0.8,2.4,1.2,3.6c-1.4,0.9-2.8,1.6-4,2.6
			c-7.3,6.4-14.6,12.9-21.9,19.4c-12.5-4.3-25-8.7-37.5-12.9C575.8,342.2,574.6,340.7,575,338z"/>
		<path class="st8" d="M546,285c-6,10-12,20-18,30c-0.2,0.4-0.6,0.7-1,1.1c-9.7-3.7-19.3-7.4-29-11c0.6-1.7,1.3-3.3,1.9-5
			c2.3-6,4.7-12.1,7-18.1c2-0.9,4-1.9,6-2.8c3.6-1.9,7.2-3.8,10.7-5.7c1.1-0.7,2.2-1.5,3.3-2.2c1.9-0.8,3.9-1.6,5.8-2.3
			c2.1-1.2,4.1-2.5,6.2-3.7c2-1,3.9-2,5.9-3c1.7-1,3.4-2,5.1-3c2.6-1.3,5.3-2.6,7.9-4c2-0.7,4-1.4,6-2C558,263.7,552,274.3,546,285z
			"/>
		<path class="st23" d="M592.7,265.2c-3.9-2-7.9-4.1-11.8-6.1c3.7-0.8,1.1-2.7,0.6-4c-3.1-7-6.3-14-9.5-21c3.3,1.6,6.7,3.3,10,4.9
			c3.5,7.3,7,14.6,10.4,22C592.9,262.2,592.6,263.8,592.7,265.2z"/>
		<path class="st24" d="M598,246.9c1.7,2.4,3.7,4.6,5,7.2c3.5,7.2,6.7,14.6,10,21.9c-3.3-1.7-6.6-3.4-10-5.1
			c-2.5-5.6-5-11.1-7.4-16.7c-1.4-3.3-2.5-6.7-3.7-10.1C594,245,596,246,598,246.9z"/>
		<path class="st26" d="M572,234.1c3.2,7,6.4,14,9.5,21c0.5,1.2,3.1,3.2-0.6,4c-3.3-1.7-6.6-3.4-9.9-5c0.4-1.2,1.5-2.8,1.1-3.6
			c-3.2-6.2-6.7-12.3-10.1-18.5C566.3,227.8,568.8,232.4,572,234.1z"/>
		<path class="st25" d="M592,244.1c1.2,3.4,2.3,6.8,3.7,10.1c2.4,5.6,4.9,11.2,7.4,16.7c-3.4-1.9-6.9-3.9-10.3-5.8
			c-0.1-1.4,0.3-3-0.3-4.2c-3.4-7.4-6.9-14.6-10.4-22C585.3,240.7,588.6,242.4,592,244.1z"/>
		<path class="st2" d="M561.9,232c3.4,6.1,6.9,12.2,10.1,18.5c0.4,0.8-0.7,2.4-1.1,3.6c-2-0.7-4-1.3-6-2c-2.7-5.8-5.4-11.6-8.1-17.4
			C558.6,233.8,560.3,232.9,561.9,232z"/>
		<path class="st4" d="M556.9,234.7c2.7,5.8,5.4,11.6,8.1,17.4c-0.3,0.3-0.7,0.6-1,1c-2,0.7-4,1.4-6,2c0-1.4,0.4-3-0.1-4.1
			c-2.1-4.4-4.6-8.7-6.9-13.1C552.9,236.8,554.9,235.7,556.9,234.7z"/>
		<path class="st8" d="M139,310.1c4.3-4.1,8.6-8.1,12.9-12.2c3.1,3.4,6.1,6.9,9.2,10.3c1.2,1.3,2.6,2.5,3.9,3.8c8,9.7,16,19.3,24,29
			c1.7,2.7,3.4,5.3,5.1,8c0.6,3.8-1.7,5.1-4.9,6.2C178,359,167,363,156,367c-4-3.5-8-6.9-11.9-10.4c-8.7-7.8-17.4-15.7-26.1-23.6
			c-0.3-0.3-0.6-0.7-0.9-1c3-3.3,6-6.6,9-9.9C130.3,318.1,134.7,314.1,139,310.1z"/>
		<path class="st3" d="M188.9,341c-8-9.7-16-19.3-24-29c5.1-3.3,10-6.8,15.3-9.8C191.1,296,202.1,290,213,284c6,10.3,12,20.7,18,31
			c-1.5,1.6-2.7,3.7-4.5,4.7C214,326.9,201.5,333.9,188.9,341z"/>
		<path class="st27" d="M231,314.9c-6-10.3-12-20.7-18-31c0-0.3,0-0.6,0-0.9c-0.3-0.4-0.7-0.7-1-1.1c-3.7-6.9-7.6-13.8-11.2-20.8
			c-1.2-2.3-1.9-4.8-2.8-7.2c1.3,0.3,2.7,0.7,4,1c3.3,2,6.7,4,10,5.9c1.7,0.7,3.3,1.4,5,2.1c1.3,0.7,2.6,1.3,3.9,2
			c1.9,1,3.9,2.1,5.8,3.1c2.1,1.2,4.2,2.5,6.3,3.7c1.3,0.7,2.7,1.4,4,2c5.3,2.7,10.7,5.4,16,8.1c0.4,1.7,0.5,3.6,1.2,5.2
			c2.8,6.6,5.8,13.2,8.7,19.8c-9.6,3.7-19.3,7.3-28.9,11C233,317,232,316,231,314.9z"/>
		<path class="st21" d="M185,256c-3.4,1.9-6.7,3.9-10.1,5.8c0.5-2.3,0.7-4.6,1.6-6.8c2.7-6.7,5.6-13.3,8.5-19.9
			c3.7-1.4,7.4-2.8,11.1-4.2c-2.7,5.4-5.6,10.8-8.2,16.3C186.7,250.1,186,253.1,185,256z"/>
		<path class="st23" d="M185,235.2c-2.8,6.6-5.8,13.2-8.5,19.9c-0.9,2.1-1.1,4.5-1.6,6.8c-3.2,1.5-6.5,3-9.7,4.4
			c0.6-2.4,0.8-4.9,1.8-7c2.9-6.5,6-12.8,9-19.2C179,238.4,182,236.8,185,235.2z"/>
		<path class="st15" d="M185,256c1-2.9,1.6-6,2.9-8.8c2.5-5.5,5.4-10.9,8.2-16.3c2.4,1.3,4.8,2.6,7.2,3.9
			c-2.8,5.7-5.5,11.5-8.3,17.2C191.7,253.4,188.3,254.7,185,256z"/>
		<path class="st24" d="M148,275.8c0.8-2.5,1.2-5.2,2.4-7.4c3.7-7.2,7.7-14.3,11.6-21.4c2-1,4-1.9,6-2.9c-0.8,2.2-1.4,4.4-2.3,6.5
			c-3.1,6.9-6.4,13.8-9.6,20.7C153.4,272.8,150.7,274.3,148,275.8z"/>
		<path class="st6" d="M156.1,271.2c3.2-6.9,6.5-13.8,9.6-20.7c0.9-2.1,1.5-4.3,2.3-6.5c2.7-1.3,5.3-2.7,8-4c-3,6.4-6.2,12.7-9,19.2
			c-1,2.2-1.2,4.7-1.8,7C162.2,267.9,159.1,269.6,156.1,271.2z"/>
		<path class="st4" d="M195,252c2.8-5.7,5.5-11.5,8.3-17.2c1.9,1,3.8,2,5.8,3.1c-0.5,1-1,2-1.4,3.1c-1.9,4.7-3.8,9.4-5.6,14.1
			c-1.3-0.3-2.7-0.7-4-1c0,0,0,0,0,0c-0.7-0.3-1.3-0.7-2-1C195.7,252.7,195.3,252.4,195,252z"/>
		<path class="st27" d="M196,253c0.7,0.3,1.3,0.7,2,1C197.3,253.7,196.7,253.3,196,253z"/>
		<path class="st3" d="M212,282c0.3,0.4,0.7,0.7,1,1.1C212.7,282.7,212.3,282.3,212,282z"/>
		<path class="st28" d="M101,303.8c2,0.3,4,0.6,6,0.9c2.3,0.4,4.7,0.7,7,1.1c2.2,0.4,4.4,0.9,6.7,1.3c-5.2,5.4-10,10.9-15.2,15.8
			c-3,2.8-4.1,5.6-3,9.6c0.9,3.2,1.3,6.5,1.9,9.7c0.4,2.2,0.7,4.4,1.1,6.7c-1,1.5,2.7,4.4-1.4,5c-1.6-0.7-3.3-1.4-4.9-2.1
			c-1.6-1-3.2-2-4.8-3.1c-2.4-1.3-4.8-2.6-7.3-3.9c-1.3-0.7-2.6-1.4-3.9-2.1c-2.4,0.7-4.8,1.3-7.2,2c-2.3,1.1-4.6,2.2-6.9,3.4
			c-2.3,1.3-4.7,2.6-7,3.9c-1.7,0.7-3.4,1.4-5,2.1c1-7.4,2-14.7,3-22.1c2.1-4,0.8-6.9-3-8.9c-1.3-1.4-2.6-2.8-3.9-4.1
			c-2.2-2-4.3-4-6.5-6c-1-1.1-1.9-2.1-2.9-3.2c-0.5-0.8-1-1.6-1.8-2.9c2-0.4,3.5-0.8,5.1-1.1c2.3-0.3,4.7-0.6,7-1
			c1.7-0.3,3.4-0.6,5-0.8c2-0.3,4-0.6,6-0.9c2.9,0.5,4.5-0.9,5.8-3.5c3.6-7.2,7.5-14.4,11.2-21.5c2.3,4.4,4.6,8.7,6.9,13.1
			c0.7,1.6,1.4,3.2,2.1,4.9c1.3,2.3,2.7,4.6,4,6.9C97,303.2,99,303.5,101,303.8z"/>
		<path class="st27" d="M163,416c-5-3.3-10-6.7-15-10c-13.3-9.7-26.7-19.3-40-29c-4-3-8-5.9-11.9-8.9c-0.9-0.7-1.4-2-2.1-3.1
			c1.3,0.7,2.7,1.3,4,2c1.6,0.7,3.3,1.4,4.9,2.2c1.3,0.7,2.6,1.4,3.9,2.1c1.3,0.7,2.6,1.4,4,2.2c1,0.6,2.1,1.2,3.1,1.8
			c3.7,1.9,7.4,3.8,11,5.8c5.3,4,10.6,8.1,15.9,12.1c1.1,1,2,2.1,3.2,3c7.6,6,15.2,12,22.9,18C165.7,414.7,164.3,415.3,163,416z"/>
		<path class="st23" d="M69,348.2c2.3-1.1,4.6-2.2,6.9-3.4c-1.9,4.5-3.9,9-5.5,13.6c-0.5,1.4-0.2,3.1-0.2,4.7
			c-3.1,1.7-6.1,3.3-9.2,5c0.7-2.2,1.3-4.4,2.2-6.4C65.1,357.1,67.1,352.7,69,348.2z"/>
		<path class="st24" d="M57,354.1c1.7-0.7,3.4-1.4,5-2.1c-2.1,4.9-4.4,9.8-6.4,14.8c-0.5,1.3-0.3,2.8-0.5,4.2
			c-2.7,1.6-5.5,3.1-8.2,4.7C50.3,368.5,53.6,361.3,57,354.1z"/>
		<path class="st6" d="M55.2,371.1c0.1-1.4,0-3,0.5-4.2c2-5,4.2-9.9,6.4-14.8c2.3-1.3,4.7-2.6,7-3.9c-2,4.5-4,9-5.9,13.5
			c-0.9,2.1-1.4,4.3-2.2,6.4C59.1,369.1,57.1,370.1,55.2,371.1z"/>
		<path class="st10" d="M87,344.9c2.4,1.3,4.8,2.6,7.3,3.9c-2.7,4-5.4,8.1-8.3,12.5c-1.1-0.9-2.5-2-4-3.2
			C83.7,353.7,85.3,349.3,87,344.9z"/>
		<path class="st26" d="M70.2,363.1c0-1.6-0.3-3.3,0.2-4.7c1.7-4.6,3.7-9.1,5.5-13.6c2.4-0.7,4.8-1.3,7.2-2c-2.3,4.3-4.8,8.6-6.9,13
			c-0.6,1.2-0.1,2.8-0.1,4.3C74.1,361.1,72.2,362.1,70.2,363.1z"/>
		<path class="st22" d="M98.1,366.9c-1.3-0.7-2.7-1.3-4-2c1.7-4.4,3.4-8.7,5-13.1c1.6,0.7,3.3,1.4,4.9,2.1
			C102,358.3,100,362.6,98.1,366.9z"/>
		<path class="st15" d="M76.1,360.1c0-1.4-0.5-3.1,0.1-4.3c2.1-4.4,4.5-8.6,6.9-13c1.3,0.7,2.6,1.4,3.9,2.1c-1.7,4.4-3.3,8.7-5,13.1
			C80,358.7,78.1,359.4,76.1,360.1z"/>
		<path class="st4" d="M539,458c-4,3.3-8,6.6-12,10c-5.6,3.7-11.3,7.5-16.9,11.2c-0.4-0.5-0.8-1-1.2-1.5
			c6.8-5.3,13.5-10.7,19.8-15.6c-3.9-5.2-7.3-9.7-10.7-14.2c1.2-1.3,2.3-2.8,3.6-4c4.8-4.7,9.6-9.3,14.4-13.9
			c8.7-7.7,17.3-15.4,26-23.1c0.8,1.7,1.3,3.8,2.6,5c4.4,4.2,9,8.1,13.5,12.2c-0.4,0.6-0.7,1.3-1.1,1.9
			c-12.8,9.6-25.7,19.2-38.5,28.9C538.1,455.2,538.8,456.9,539,458z"/>
		<path class="st29" d="M536,430c-4.8,4.6-9.6,9.2-14.4,13.9c-1.3,1.2-2.4,2.7-3.6,4c-1.6,1.1-3.3,2.1-4.7,3.4
			c-6.5,5.9-12.9,11.8-19.3,17.7c-6.7-2.7-13.4-5.3-20.1-8c0.4-1,0.8-2,1.1-2.9c3.9-4.5,8-8.8,11.7-13.4
			c6.5-8.1,12.8-16.4,19.2-24.6c0.7-0.3,1.3-0.7,2-1c0.7,1,1.2,2.6,2.2,2.9C518.7,424.8,527.4,427.3,536,430z"/>
		<path class="st3" d="M473.9,461c6.7,2.7,13.4,5.3,20.1,8c-5.3,4.7-10.7,9.4-16,14c-2.2-1-4.4-2-6.6-3.1c-3.2-1.6-6.3-3.3-9.4-5
			c0-0.3,0-0.6,0-1C466,469.7,470,465.3,473.9,461z"/>
		<path class="st22" d="M462,475c3.1,1.7,6.2,3.4,9.4,5c2.2,1.1,4.4,2,6.6,3.1c-2,2.3-4,4.6-6,6.9c-3,2.3-6,4.7-9,7.1
			c-2-1-3.9-2-5.9-3.1c-2.4-1.3-4.8-2.6-7.1-3.9c0-0.3,0-0.6,0-1C454,484.3,458,479.7,462,475z"/>
		<path class="st17" d="M163,416c1.3-0.7,2.7-1.3,4-2c5,3.3,10,6.7,14.9,10c0.8,0.9,1.4,1.8,2.3,2.5c12.9,9.8,25.8,19.6,38.7,29.4
			c-0.3,1-0.6,2-1,3c-8.6-6.1-17.2-12.2-25.8-18.3c-1.3-0.9-2.8-1.8-4.2-2.6c-5.9-4.4-11.8-8.8-17.7-13.2
			C170.5,421.9,166.8,418.9,163,416z"/>
		<path class="st1" d="M463,205c0,1,0,2,0,3c-0.3,0.7-0.8,1.4-1,2.2c-2,8.3-4,16.6-6,24.9c-1-0.3-2.1-1-3.1-0.9
			c-4.8,0.5-6.5,4.2-7.7,8.1c-1.6,5-4.4,7.3-9.9,6.9c-3.2-0.2-6.5,0.6-9.8,0.9c-15.1,1-30.3,2-45.4,3c0-21.3,0-42.6,0-64
			c2.7,1.3,5.5,2.6,7.6,3.6c3.7-7.1,7.1-13.6,10.5-20.2c3.3,1.9,6.6,3.8,9.8,5.6c-2.7,5.6-5.3,11.3-8,16.9c-1.2,2.5-1.5,4.5,2,5
			c2,1,4,2,6,3c1.3,0.7,2.6,1.3,4,2c2.1,1.3,4.1,2.6,6.2,3.9c1.2,0.4,2.4,0.8,3.6,1.2c2,1,4,2,6,3c1.7,1,3.5,2,5.2,2.9
			c3.1,1.7,6.1,3.3,9.2,5c2.1,1.3,4.1,2.5,7.6,4.7c-1.1-4.9-1.8-8.3-2.6-11.7c0-1.7,0-3.3-0.1-5C452.3,207.7,457.6,206.3,463,205z"
			/>
		<path class="st8" d="M456,235c2-8.3,4-16.6,6-24.9c0.2-0.8,0.6-1.4,1-2.2c8.1,2.1,16.3,4.4,24.5,6.2c9.5,2.1,19.1,3.9,28.6,5.8
			c0,0.6,0,1.3,0,1.9c-4.4,10.7-8.7,21.4-13.1,32c-0.8-0.3-1.5-0.7-2.3-0.9c-15.2-3.4-30.5-6.7-45.7-10.1
			C455.4,240.3,455.7,237.7,456,235z"/>
		<path class="st17" d="M463,205c-5.4,1.3-10.7,2.7-16.1,4c-0.7-4-1.3-8-2-12c7-2,14-4,21.1-6C465,195.7,464,200.3,463,205z"/>
		<path class="st27" d="M466,191c-7,2-14,4-21.1,6l-0.4,0.1c-0.6-3-1.1-6.1-1.7-9.1c0.1-0.3,0.2-0.7,0.3-1c6.2-2,12.4-4.2,18.7-6
			c1.7-0.5,3.7-0.2,5.6-0.3c0,1.8,0.2,3.5,0,5.2C467.2,187.7,466.5,189.3,466,191z"/>
		<path class="st23" d="M421.7,210.1c-1.2-0.4-2.4-0.8-3.6-1.2c6.2-12.4,12.4-24.9,18.7-37.2c0.6-1.1,2.1-1.8,3.2-2.7
			c0.4,2,0.8,3.9,1.3,5.9c0,1.3,0,2.7,0,4c-1.4,1.3-3.2,2.3-4,3.9c-3.9,7.5-7.5,15.1-11.4,22.6C424.8,207.2,423,208.6,421.7,210.1z"
			/>
		<path class="st6" d="M421.7,210.1c1.4-1.6,3.1-2.9,4.1-4.7c3.9-7.5,7.5-15.1,11.4-22.6c0.8-1.6,2.6-2.6,4-3.9c0.7,2.7,1.3,5.4,2,8
			c-0.1,0.3-0.2,0.7-0.3,1c-1.3,1.3-2.9,2.5-3.8,4c-3.9,7-7.7,14.1-11.4,21.1C425.6,212.1,423.6,211.1,421.7,210.1z"/>
		<path class="st12" d="M314.8,138.1c3.7-6.7,7.5-13.5,11.2-20.2c2,2,4,4,6,6c-2.5,5.1-4.9,10.2-7.7,15.1c-1,1.7-3,2.7-4.5,4.1
			c-0.3,0-0.6,0-0.9-0.1C317.6,141.3,316.2,139.7,314.8,138.1z"/>
		<path class="st28" d="M669.9,294c0.7-1.6,1.4-3.3,2.1-4.9c2-3.7,4-7.4,5.9-11.1c3.6,6.9,7.4,13.6,10.8,20.6c1.6,3.3,3.5,5,7.2,4.4
			c1.7,0.3,3.4,0.6,5,0.9c2,0.3,4,0.6,6,0.9c3,0.4,6,0.7,9,1.1c1.8,0.3,3.2,0.7,1.3,2.8c-1.1,1.1-2.3,2.1-3.4,3.2
			c-1.7,1.7-3.3,3.4-5,5.1c-1.7,1.7-3.3,3.3-5,5c-1.3,1.3-2.7,2.7-4,4c0.1,3.2,0,6.4,0.4,9.5c0.8,6.2,1.8,12.4,2.7,18.6
			c-1.3-0.4-2.6-0.8-3.9-1.2c-2.4-1.3-4.7-2.6-7.1-3.9c-2.6-1.4-5.3-2.8-7.9-4.1c-2.9-2-5.7-4.5-9.2-0.9c-2.4,1.3-4.8,2.6-7.2,3.8
			c-2.2,1.1-4.4,2.3-6.6,3.4c-1.7,0.9-3.4,1.9-5,2.8c-0.7-2-1.3-3.9-2-5.9c0.6-2.4,1.2-4.7,1.8-7.1c0.5-2.6,0.7-5.3,1.5-7.8
			c1.5-4.6,0.1-7.8-3.4-10.8c-4.9-4.2-9.4-8.8-14-13.2c-0.3-0.7-0.6-1.5-0.9-2.2c2.7-0.5,5.3-0.9,8-1.4c2.4-0.4,4.8-0.8,7.2-1.3
			c2.3-0.4,4.6-0.8,6.9-1.1c2.5,0,5.2,0.1,5.9-3.2C668,298,669,296,669.9,294z"/>
		<path class="st8" d="M657,369.1c1.6-0.7,3.3-1.4,4.9-2.2c1.7-0.6,3.4-1.3,5-1.9c-2.3,2-4.7,4-7,6c-9,6.6-18,13.3-27,19.9
			c-0.3,0.3-0.7,0.7-1,1c0,0,0,0,0,0c-4.3,2.7-8.6,5.4-13,8c-1.7-0.7-3.3-1.3-5-2c1.4-1.3,2.7-2.7,4.1-4c5.6-4.4,11.3-8.8,16.9-13.2
			c4.8-2.6,9.5-5.2,14.3-7.7c1.3-0.7,2.6-1.3,3.8-2C654.4,370.4,655.7,369.8,657,369.1z"/>
		<path class="st23" d="M684.1,344.8c2.6,1.4,5.3,2.8,7.9,4.1c2.1,4.9,4.3,9.8,6.3,14.8c0.5,1.3,0.4,2.8,0.6,4.3c-3-1.7-6-3.3-9.1-5
			c-0.1-1.6,0.3-3.3-0.2-4.7C687.9,353.8,685.9,349.3,684.1,344.8z"/>
		<path class="st22" d="M667.7,347.8c2.4-1.3,4.8-2.6,7.2-3.8c2.1,3.5,4.3,6.9,6.2,10.4c0.7,1.3,0.6,3.1,0.8,4.7
			c-2.8,0.5-5.6,0.9-7.4,1.2C672.4,356.3,670,352,667.7,347.8z"/>
		<path class="st26" d="M681.9,359c-0.3-1.6-0.1-3.3-0.8-4.7c-1.9-3.6-4.1-7-6.2-10.4c3.5-3.6,6.3-1.1,9.2,0.9
			c1.9,4.5,3.9,9,5.5,13.5c0.5,1.4,0.2,3.1,0.2,4.7C687.2,361.7,684.5,360.4,681.9,359z"/>
		<path class="st25" d="M698.9,368.1c-0.2-1.4-0.1-3-0.6-4.3c-2-5-4.2-9.9-6.3-14.8c2.4,1.3,4.7,2.6,7.1,3.9c0.5,1.5,0.9,3,1.5,4.5
			c2,5,4.2,9.9,6.2,14.9C704.2,370.8,701.6,369.4,698.9,368.1z"/>
		<path class="st24" d="M706.9,372.2c-2.1-5-4.2-9.9-6.2-14.9c-0.6-1.5-1-3-1.5-4.5c1.3,0.4,2.6,0.8,3.9,1.2
			c3.7,7.3,7.3,14.6,11,21.9C711.6,374.7,709.2,373.5,706.9,372.2z"/>
		<path class="st22" d="M667,365c-1.7,0.6-3.4,1.3-5,1.9c-2-4.3-4-8.6-5.9-12.9c1.7-0.9,3.4-1.9,5-2.8c2.3,3.9,4.7,7.9,7,11.8
			c0,0.3,0,0.7-0.1,1c0,0,0,0,0,0C667.7,364.3,667.3,364.7,667,365C667,365,667,365,667,365z"/>
		<path class="st8" d="M668,364c0-0.3,0-0.7,0.1-1c0.4,0.2,0.8,0.4,1.3,0.5C668.9,363.7,668.4,363.8,668,364z"/>
		<path class="st8" d="M667,365c0.3-0.3,0.7-0.7,1-1C667.7,364.3,667.3,364.7,667,365z"/>
		<path class="st23" d="M349,518c-2.3-3.3-4.7-6.7-7-10c0,0,0,0,0,0c0-0.3,0-0.7,0-1c6.4-2.6,6.4-2.6,2-15.2c3.6-1.3,7.4-2.2,10.8-4
			c1.8-0.9,4.1-3.4,4-5c-0.3-4.7-1.8-9.2-2.7-13.9c0-0.3,0-0.7,0-1c4.3,2.2,8.3,5.2,13.6,4c2.2-0.5,4.6-0.7,6.8-1
			c3.4-0.5,5.1,0.8,4.5,4.4c-0.6,3.9,1.2,5.1,4.8,4.6c4.4-0.7,8.8-1.3,13.2-2c-1.4,7.1-2.7,14.3-4.1,21.4c-0.2,0.8-1.2,1.9-1.9,2
			c-4.2,0.5-8.7,4.4-12.6-0.7c-0.4-0.5-1.9-0.5-2.7-0.3c-5.1,1.2-10,1.9-14-3.9c-0.6,5.2-2.5,7.6-7.2,8.2c-1.8,0.2-4.9,4.5-4.4,5.4
			C354.2,514.3,351.9,516.1,349,518z"/>
		<path class="st25" d="M349,518c2.9-1.9,5.2-3.7,2.9-7.9c-0.5-0.9,2.6-5.2,4.4-5.4c4.7-0.6,6.6-3,7.2-8.2c4,5.8,8.9,5.1,14,3.9
			c0.9-0.2,2.3-0.2,2.7,0.3c4,5.2,8.4,1.2,12.6,0.7c0.7-0.1,1.7-1.2,1.9-2c1.5-7.1,2.8-14.2,4.1-21.4c0.7-2.3,1.3-4.7,2-7
			c0.5,0.6,1.5,1.3,1.4,1.9c-0.3,2.6-1,5.2-1.4,7.8c-1.5,8.6-1.5,8.6,6.8,10.7c1.3,0.3,2.5,0.7,3.9,1.1c-0.9,3-3.2,6.4-2.3,8.5
			c1.7,4.1,0,6.9-1.4,10.1c-2.1,4.6-1.3,5.9,4,6.9c-1.6,2.7-3,5.5-4.8,8.1c-0.6,0.9-2.1,1.4-3.3,1.6c-0.5,0.1-1.8-1.5-1.7-2
			c2-7.4-2.4-10-8.6-11.3c0.1,0.5,0.2,0.9,0.3,1.4c-4.3,0.7-8.7,1.5-13,2.2c-0.1-1.3-0.1-2.6-0.2-3.9c-0.3,0-0.5,0-0.8,0.1
			c0,1.3,0,2.6,0,3.9c-4.8-0.3-10.8,2.1-12.4-5.5c-2.6,1.6-5.1,3-7.4,4.7c-1.1,0.8-2,2.1-2.8,3.3c-1.2,1.7-2.3,3.5-3.4,5.3
			c-1.4-1.8-2.9-3.6-4.3-5.5C349.3,519.7,349.2,518.8,349,518z"/>
		<path class="st23" d="M332,516c-3-3.3-6-6.7-9-10c-2-3-4-6-6-9c4.7-3,9.4-6,14-9c0.7,1,1.3,2,2,3c2.7,5.3,5.3,10.6,8,16
			c0.3,0.4,0.7,0.7,1,1.1c0,0,0,0,0,0C338.7,510.7,335.3,513.3,332,516z"/>
		<path class="st24" d="M380,518c0-1.3,0-2.6,0-3.9c0.3,0,0.5,0,0.8-0.1c0.1,1.3,0.1,2.6,0.2,3.9c0,7.4-0.1,14.9,0.1,22.3
			c0,2.2,0.5,6,1.2,6.1c3.1,0.5,6.3-0.2,10.1-0.5c0.1,0.2,0.9,1.6,1.6,3c-1.7,2.1-1.3,6.7-6.1,5.5c-0.3-0.1-1.2,1.7-1.6,2.7
			c-1.1,2.6-2,5.2-3,7.8c-0.5-0.1-1.1-0.3-1.6-0.4c-0.6-4.5-1.1-9.1-1.7-13.6C380,540,380,529,380,518z"/>
		<path class="st24" d="M380,554c0,4.6,0,9.3,0,14.3c-4.5-6-8.7-11.6-13-17.3c0.3-1.7,0.7-3.3,1-5h0c2.8,2.2,5.6,4.6,8.5,6.7
			C377.5,553.4,378.8,553.6,380,554z"/>
		<path class="st24" d="M365,549c-1,1.3-2,2.7-3,4c-3-3.5-6-6.9-8.9-10.5c-2.2-2.7-0.6-5,5.3-7.1C360.6,539.9,362.8,544.4,365,549z"
			/>
		<path class="st24" d="M351.7,553.4c0.3,0.1,0.7,0.2,0.8,0.4c0.1,0.2-0.2,0.5-0.3,0.8c-0.3-0.1-0.7-0.2-0.8-0.4
			C351.3,554,351.6,553.7,351.7,553.4z"/>
		<path class="st24" d="M347.4,551.3c0.1-0.3,0.2-0.7,0.4-0.8c0.2-0.1,0.5,0.2,0.8,0.3c-0.1,0.3-0.2,0.7-0.4,0.8
			C348,551.7,347.7,551.4,347.4,551.3z"/>
		<path class="st24" d="M368,545c0,0.3,0,0.7,0,1h0C368,545.7,368,545.3,368,545L368,545z"/>
		<path class="st24" d="M368,545c0.1-0.1,0.2-0.3,0.2-0.4C368.2,544.7,368.1,544.9,368,545C368,545,368,545,368,545z"/>
		<path class="st17" d="M614,398c1.7,0.7,3.3,1.3,5,2c-7,5.3-14,10.7-21,16c-5.7,4-11.3,8-17,12c-1.3-0.7-2.7-1.3-4-2
			c0.4-0.6,0.7-1.3,1.1-1.9c2.3-1.5,4.7-2.9,6.9-4.6C594.7,412.4,604.3,405.2,614,398z"/>
		<path class="st27" d="M295,196c5.6-5.8,13.2-4.6,20.1-6c-0.4,3.3-0.7,6.6-1.1,10c-1.4,8.1-2.7,16.2-4.1,24.4c0,1.2,0,2.4,0.1,3.6
			c0.3,2,0.7,4,1,6c-1.5-0.6-2.9-1.1-5.8-2.2c-1.5,16,5,29.8,7.8,44.2c0.3,2.3,0.7,4.7,1,7c-2.2,1.6-4.2,4-6.7,4.6
			c-11.4,2.7-22.9,5-34.3,7.4c-1.3-3-2.8-5.9-3.9-9c-5.4-14-10.7-28-16-42c14.9-3.2,29.7-6.3,44.5-10c1.7-0.4,4-4,3.8-5.8
			c-0.9-6.8-2.8-13.5-4.3-20.2C296.3,204,295.7,200,295,196z"/>
		<path class="st5" d="M295,196c0.7,4,1.3,8,2,12c-3.6,4.4-9,4.3-13.9,5.4c-13,2.9-26.1,5.7-39.1,8.6c0,0-0.2,0.1-0.2,0.1
			c-0.6-1.4-1.2-2.7-1.9-4.1c1-1.6,2-3.3,3-4.9c3.7-3.3,7.3-6.6,11-9.9c4-4,8-8,12-11.9c6.6-6.1,13.1-12.2,19.7-18.3
			c1.1,2,2.6,3.9,3.2,6C292.5,184.5,293.7,190.3,295,196z"/>
		<path class="st24" d="M314,200c0.4-3.3,0.7-6.6,1.1-10c0.9-4,1.9-8,2.8-12c1.1-1.1,2.5-2.1,3.2-3.4c7-13.5,14-27.1,20.9-40.7
			c3.4,2.6,6.7,5.2,3.9,10.1c-0.9,0.8-2.2,1.5-2.7,2.5c-8.1,15.7-16,31.4-24.2,47.1C317.9,196,315.7,197.9,314,200z"/>
		<path class="st19" d="M342.1,133.9c-7,13.6-13.9,27.2-20.9,40.7c-0.7,1.3-2.1,2.3-3.2,3.4c1.3-7.7,2.7-15.3,4-23
			c1.3-1.3,3.1-2.4,3.9-3.9c3.9-7.3,7.5-14.8,11.2-22.2C338.7,130.5,340.4,132.2,342.1,133.9z"/>
		<path class="st16" d="M337.1,128.9c-3.7,7.4-7.3,14.9-11.2,22.2c-0.8,1.6-2.6,2.6-3.9,3.9c-0.4-4,2.9-8.7-2.1-12
			c1.5-1.3,3.5-2.4,4.5-4.1c2.8-4.9,5.1-10,7.7-15.1C333.7,125.5,335.4,127.2,337.1,128.9z"/>
		<path class="st7" d="M632,392c0.3-0.3,0.7-0.7,1-1C632.6,391.3,632.3,391.6,632,392z"/>
		<path class="st15" d="M411.9,205c-1.3-0.7-2.6-1.3-4-2c3.4-6.6,6.7-13.2,10-19.9c0.4-0.7,0.8-1.4,1.2-2.2c1.2-1.2,2.8-2.2,3.5-3.7
			c3.6-6.9,6.9-13.9,10.5-20.7c0.8-1.4,2.4-2.4,3.6-3.6c0.5,2.6,0.9,5.3,1.4,7.9c-1.4,1.4-3.3,2.6-4.2,4.3
			c-6.1,11.8-11.9,23.7-18,35.5C415.2,202.4,413.3,203.6,411.9,205z"/>
		<path class="st26" d="M411.9,205c1.4-1.4,3.3-2.6,4.2-4.3c6.1-11.8,11.9-23.7,18-35.5c0.9-1.7,2.8-2.9,4.2-4.3
			c0.6,2.7,1.1,5.4,1.6,8.1c-1.1,0.9-2.6,1.5-3.2,2.7c-6.3,12.4-12.5,24.8-18.7,37.2C416,207.6,413.9,206.3,411.9,205z"/>
		<path class="st1" d="M577,426c1.3,0.7,2.7,1.3,4,2c-6.7,5-13.3,10-20,15c-7.3,5-14.7,10-22,15c-0.2-1.1-0.9-2.8-0.5-3.1
			C551.3,445.2,564.2,435.6,577,426z"/>
		<path class="st23" d="M412,518c-5.3-1-6.1-2.2-4-6.9c1.4-3.2,3.1-6,1.4-10.1c-0.9-2.1,1.4-5.5,2.3-8.5c-1.4-0.4-2.6-0.8-3.9-1.1
			c-8.3-2.1-8.3-2.1-6.8-10.7c0.5-2.6,1.1-5.2,1.4-7.8c0.1-0.6-0.9-1.3-1.4-1.9c0.3-2.7,0.7-5.3,1-8c2-9,4-18,6-27
			c0.3-2.7,0.7-5.3,1-8c1,0.3,2,0.7,3,1c0,1.7,0,3.3,0,5c-1.7,7.3-3.1,14.7-5.3,21.9c-1.5,5.1,0.6,6.5,5,7.2
			c3.4,0.5,6.7,1.6,10.7,2.6c-1.7,4.3-3.2,8.3-4.8,12.2c-1,2.5-0.9,4.3,2.5,4.1c0,1-0.1,2-0.1,3c-2.6,5.4-5.2,10.8-8.1,16.9
			c3.2,0.8,5.7,1.5,8.1,2.1c-1,2-2,4-3,6C415.3,512.7,413.7,515.3,412,518z"/>
		<path class="st25" d="M417,510c1-2,2-4,3-6c2-3,4-6,6-9c4,2.7,8,5.4,12.1,8.1c0,0.7-0.1,1.3-0.1,2c-3.3,4-6.6,8-9.9,12
			c-0.7,0.3-1.3,0.7-2,1C423,515.3,420,512.7,417,510z"/>
		<path class="st24" d="M399,552c-1.3-1-2.7-2-4-3c2.2-4.5,4.5-9.1,6.9-14.1c2.8,1.7,4.9,3,7.5,4.6C405.7,544,402.3,548,399,552z"/>
		<path class="st24" d="M408.3,554.6c-0.3-0.1-0.7-0.2-0.8-0.4c-0.1-0.2,0.2-0.5,0.3-0.8c0.3,0.1,0.7,0.2,0.8,0.4
			C408.6,554,408.4,554.4,408.3,554.6z"/>
		<path class="st24" d="M416.6,547.7c-0.1,0.3-0.2,0.6-0.4,0.8c-0.3-0.1-0.7-0.2-0.8-0.4c-0.1-0.2,0.2-0.5,0.3-0.8
			C416,547.5,416.3,547.6,416.6,547.7z"/>
		<path class="st24" d="M412.6,550.7c-0.1,0.3-0.2,0.7-0.4,0.8c-0.2,0.1-0.7-0.1-0.8-0.3c-0.1-0.2,0.2-0.5,0.3-0.8
			C412,550.5,412.3,550.6,412.6,550.7z"/>
		<path class="st1" d="M222,459c0.3-1,0.6-2,1-3c1.3,0.7,2.6,1.3,3.9,2c1.3,1.3,2.4,2.7,3.8,3.8c14.1,10.8,28.2,21.5,42.2,32.3
			c0.7,0.5,0.7,1.9,1,2.9c-1.7-1-3.3-2.1-5-3.1c-10.7-7.8-21.3-15.6-32-23.4c-0.9-0.7-2-1.1-3-1.6C230,465.6,226,462.3,222,459z"/>
		<path class="st28" d="M419.2,181c-0.4,0.7-0.8,1.4-1.2,2.2c-1.3-0.7-2.7-1.3-4-2c-2-1-4-2-6-3.1c-3.3-1.9-6.6-3.8-9.8-5.6
			c-3-1.6-6.1-3.2-9.1-4.8c-1.7-0.9-3.4-1.8-5-2.8c-2.6-2.4-5.3-3.1-8.1-0.3c-3.3,1.7-6.6,3.5-9.9,5.2c-4.6,2.4-9.3,4.8-13.9,7.2
			c-4,2-8,3.9-12,5.9c0.2-1.6,0.2-3.3,0.5-4.9c1.8-11.4,3.7-22.7,5.5-34.1c2.7-5-0.5-7.6-3.9-10.1c-1.7-1.7-3.3-3.3-5-5
			c-1.7-1.7-3.3-3.3-5-5c-2-2-4-4-6-6c-3.3-3.5-6.7-7-10.7-11.2c6.4-1,12-1.9,17.6-2.8c3.4-0.6,6.7-1.1,10.1-1.7
			c2.7-0.4,5.3-0.7,8-1.1c5.8,0.4,9.7-1.4,12.3-7.4c5.1-11.5,11.1-22.5,16.7-33.7c1,1.7,2,3.4,3,5c2.3,4.7,4.6,9.3,7,14
			c1.3,2.7,2.6,5.4,4,8.1c1.3,2.6,2.6,5.3,3.8,7.9c1,5.2,4.5,6.5,9.2,6c2.7,0.4,5.3,0.8,8,1.2c2.7,0.5,5.4,1,8.1,1.5
			c2.7,0.4,5.3,0.8,8,1.1c4.3,0.7,8.6,1.5,13,2.2c-0.4,0.8-0.8,1.5-1.2,2.3c-9.8,9.4-19.6,18.7-29.4,28.1c-0.6,0.6-1.2,1.8-1,2.6
			c1.1,7,2.5,14,3.7,20.9c0.4,2.3,0.7,4.7,1.1,7c0.3,2,0.7,4,1,6C418.5,176.3,418.9,178.7,419.2,181z"/>
		<path class="st15" d="M437.9,505c0-0.7,0.1-1.3,0.1-2c1.4-1.3,2.9-2.4,4.2-3.8c2.7-3,5.2-6.1,7.8-9.2c2.4,1.3,4.7,2.6,7.1,3.9
			c2,1.1,3.9,2.1,5.9,3.1c-2.7,3-5.3,6-8,9c-2,1.3-4,2.7-6,4C445.3,508.3,441.6,506.7,437.9,505z"/>
		<path class="st28" d="M556.9,234.7c-2,1.1-4,2.1-6,3.2c-3.3,1.7-6.6,3.5-9.9,5.2c-2,1-4,2.1-6,3.1c-0.8,0.2-1.5,0.4-2.5,0.6
			c0.2-2.7,0.4-5.3,0.6-7.8c0.6-3.3,1.2-6.7,1.8-10c0.9-5,2-10,2.7-15c0.2-1.6,0-4-1-5c-8.1-8-16.3-15.8-24.6-23.6
			c0.2-0.6,0.4-1.2,0.6-1.8c3.4-0.5,6.8-1.1,10.3-1.6c3.4-0.5,6.8-1.1,10.2-1.6c3.3-0.5,6.6-0.9,9.8-1.4c3.7,0.4,6.4-0.7,7.1-4.8
			c1-2,2-4,3-6c1.3-2.7,2.6-5.4,3.9-8.1c2.4-5,4.7-10,7.1-15c1,1.1,2.4,2.1,3,3.5c4.1,8.3,8.3,16.5,12.1,25c1.8,4.1,4.5,5.8,8.8,5.4
			c2.7,0.3,5.3,0.7,8,1c3.3,0.4,6.6,0.9,9.9,1.3c3.7,0.6,7.4,1.1,11.1,1.7c0.3,0.7,0.5,1.4,0.8,2.1c-1.3,1.3-2.6,2.5-3.9,3.8
			c-2,2-4,4-6,6c-2,2-4,4.1-6,6.1c-1.6,1.7-3.3,3.4-4.9,5c-1.6,2.2-6.2,2.8-4,7.1c1.5,9.2,3,18.4,4.4,27.6c0.3,2.1,0.4,4.2,0.6,6.3
			c-2-0.9-4-1.9-6-2.8c-3.3-1.7-6.6-3.4-10-5.1c-3.3-1.6-6.7-3.3-10-4.9c-3.2-1.6-5.7-6.2-10-2.1
			C560.3,232.9,558.6,233.8,556.9,234.7z"/>
		<path class="st3" d="M503,254c4.4-10.7,8.7-21.4,13.1-32c0.3,1.3,0.6,2.6,0.9,3.9c-0.6,2.4-1.2,4.8-1.9,7.2
			c-0.7,4.6-1.4,9.3-2,13.9c-0.4,3-0.8,5.9-1.2,8.9c-0.9,5.3-1.8,10.7-2.7,16c-0.7,3.3-1.4,6.6-2.1,9.9c-2.3,6-4.7,12.1-7,18.1
			c-1.8,0-3.7,0.3-5.4,0c-2.6-0.4-5.1-1.3-7.6-2c0-0.3,0-0.6,0-1c0.3-0.4,0.7-0.7,1-1.1c0.3-1.7,0.6-3.3,1-5
			c2.2-5.1,4.6-10.1,6.6-15.3C498.2,268.6,500.5,261.2,503,254z"/>
		<path class="st21" d="M515.1,233.1c0.6-2.4,1.2-4.8,1.9-7.2c6,11.3,11.9,22.6,17.9,33.8c1.1,2,2.8,3.6,4.2,5.3
			c-2.1,1.2-4.1,2.5-6.2,3.7C527,256.9,521,245,515.1,233.1z"/>
		<path class="st22" d="M535,246.2c2-1,4-2.1,6-3.1c1.9,5.9,3.4,12.1,9.1,15.9c-1.7,1-3.4,2-5.1,3c-1.1-0.9-2.6-1.5-3.2-2.6
			C539.4,255.1,537.3,250.6,535,246.2z"/>
		<path class="st16" d="M162.1,204.9c-4.4,8.8-8.7,17.7-13.4,26.5c-1,1.8-3,3.1-4.6,4.7c1-6.7,1.9-13.4,2.9-20.1
			c3-5.7,6-11.4,9.1-17.1C158.1,200.9,160.1,202.9,162.1,204.9z"/>
		<path class="st13" d="M133,202c1.4-1.4,3-2.7,4.1-4.3c2.4-3.6,4.6-7.3,6.8-11c2.4,2.4,4.9,4.9,7.3,7.3c-3.1,5.7-6.1,11.4-9.2,17
			C139,208,136,205,133,202z"/>
		<path class="st12" d="M142,211c3.1-5.7,6.1-11.4,9.2-17c1.6,1.6,3.3,3.3,4.9,4.9c-3,5.7-6,11.4-9.1,17.1
			C145.3,214.3,143.7,212.7,142,211z"/>
		<path class="st28" d="M156.1,198.8c-1.6-1.6-3.3-3.3-4.9-4.9c-2.4-2.4-4.9-4.9-7.3-7.3c-1-0.8-1.9-1.5-3.6-2.8
			c3-0.7,4.9-1.2,6.8-1.7c3-0.4,5.9-0.8,8.9-1.2c3-0.4,6-0.7,9-1.1c2.3-0.3,4.7-0.7,7-1c4.3,0.4,7-1.3,8.8-5.4
			c3.7-8.3,7.8-16.4,11.9-24.6c0.7-1.5,2.2-2.6,3.3-3.9c0.6,1.3,1.3,2.7,1.9,4c2,4.3,4.1,8.6,6.1,12.9c1.3,2.7,2.6,5.4,4,8.1
			c1.6,3,1.2,7.5,6,8.2c2.4,0.5,4.7,1,7.1,1.4c2.7,0.4,5.3,0.8,8,1.1c3,0.4,6,0.8,9,1.2c3.1,0.5,6.2,1,9.2,1.5
			c-0.1,1-0.3,1.9-0.4,2.9c-7.9,7.6-15.9,15.2-23.7,22.9c-0.8,0.8-1.1,2.5-0.9,3.6c0.8,5.4,1.9,10.8,2.9,16.2c0.4,2.3,0.7,4.7,1.1,7
			c0.3,2,0.7,4,1,6c-0.4,1.7-0.7,3.3-1.1,5c-2-1-4-1.9-6.1-2.9c-3.6-2.1-7.3-4.1-10.9-6.2c-1.9-1-3.8-2-5.8-3.1
			c-2.4-1.3-4.8-2.6-7.2-3.9c-3.7,1.4-7.4,2.8-11.1,4.2c-3,1.6-6,3.2-9,4.9c-2.7,1.3-5.3,2.7-8,4c-2,1-4,1.9-6,2.9
			c1.5-9.7,3-19.4,4.5-29.1c0.2-1,0.2-1.9,0.4-2.9c2.1-5.1-1.6-7.5-4.8-10.1C160.1,202.9,158.1,200.9,156.1,198.8z"/>
		<path class="st14" d="M292,510c-0.3-0.3-0.7-0.7-1-1c-1-0.7-2-1.3-3-2c-0.3-0.3-0.7-0.6-1-1c-1-1-2-2-3-3c0,0,0,0,0,0
			c-2.3-1.7-4.5-3.4-6.8-5.1c0.7-0.2,1.5-0.4,2.2-0.5c2.2-3.1,4.4-6.3,6.6-9.4c4,3.3,8,6.7,12,10c2,2.3,4,4.7,6,7
			c-1.3,4.5-4.6,6.1-9,6.1c-0.7-0.3-1.3-0.7-2-1C292.7,510,292.3,510,292,510z"/>
		<path class="st15" d="M304,505c-2-2.3-4-4.7-6-7c3.1-1.2,6.4-2.3,9.4-3.8c1.4-0.7,2.4-2.1,3.6-3.2c2,2,4,4,6,6c2,3,4,6,6,9
			c-4,5.6-10,6.4-14.7,1.9C307.1,506.7,305.5,505.9,304,505z"/>
		<path class="st2" d="M296,513.9c0-0.3,0-0.6,0-0.9c0.1,0.2,0.3,0.4,0.4,0.7C296.4,513.7,296.1,513.8,296,513.9z"/>
		<path class="st3" d="M512.1,185.4c8.2,7.8,16.5,15.6,24.6,23.6c1,1,1.2,3.4,1,5c-0.7,5-1.8,10-2.7,15c-1.2-1-2.7-1.8-3.4-3.1
			c-6.1-11.6-12.1-23.2-17.9-34.8C512.7,189.3,512.6,187.3,512.1,185.4z"/>
		<path class="st13" d="M613.9,188.8c1.3-1.3,2.6-2.5,3.9-3.8c1.2,1.2,2.6,2.2,3.4,3.6c2.4,4.1,4.5,8.3,6.8,12.4
			c-1,1.3-2.1,2.6-3.1,3.8c-1,0.6-2,1.3-3,1.9C619.2,200.7,616.5,194.8,613.9,188.8z"/>
		<path class="st26" d="M437.9,505c3.7,1.7,7.4,3.3,11.1,5c-2,2.3-4,4.7-6,7c-0.3,0.3-0.7,0.7-1,1c0,0,0,0,0,0
			c-4.9,3.3-9.7,4.2-14-1C431.3,513,434.6,509,437.9,505z"/>
		<path class="st23" d="M442,518c0.3-0.3,0.7-0.7,1-1C442.7,517.3,442.3,517.7,442,518z"/>
		<path class="st1" d="M635,380.9c-5.6,4.4-11.3,8.8-16.9,13.2c-0.8,0-1.9,0.3-2.4-0.1c-6.2-5.1-12.3-10.3-18.3-15.6
			c-0.6-0.6-0.3-2.2-0.4-3.4c1.2-1.4,2.4-2.8,3.7-4.1c5.1-5,10.2-9.9,15.3-14.9c7.3-6.5,14.6-13,21.9-19.4c1.2-1,2.7-1.8,4-2.6
			c-0.3,2.7-0.6,5.4-0.9,8.1c-0.3,2.4-0.6,4.7-0.9,7.1c-0.3,3-0.7,6-1,8.9C637.7,365.6,636.4,373.3,635,380.9z"/>
		<path class="st21" d="M640.1,349.1c0.3-2.4,0.6-4.7,0.9-7.1c1.2,0.7,2.9,1.1,3.4,2.1c4.3,8.3,8.4,16.6,12.6,25
			c-1.3,0.7-2.6,1.4-3.9,2.1c-1.6-3.1-3-6.3-4.8-9.3C645.7,357.5,642.9,353.3,640.1,349.1z"/>
		<path class="st12" d="M46.5,312.9c2.2,2,4.3,4,6.5,6c-2.4,4-4.8,8.1-7.2,12.1c-2-2.3-4-4.5-6-6.8C42,320.5,44.3,316.7,46.5,312.9z
			"/>
		<path class="st19" d="M45.8,331.1c2.4-4,4.8-8.1,7.2-12.1c1.3,1.4,2.6,2.8,3.9,4.1c-3.6,7.2-7.2,14.5-10.9,21.6
			c-0.5,1-1.9,1.6-2.9,2.3C44.1,341.7,44.9,336.4,45.8,331.1z"/>
		<path class="st13" d="M46.5,312.9c-2.2,3.8-4.5,7.6-6.7,11.3c-1.3-1.1-2.6-2.1-3.9-3.2c2.6-3.8,5.2-7.5,7.8-11.3
			C44.6,310.8,45.6,311.9,46.5,312.9z"/>
		<path class="st3" d="M416.1,161c-1.3-7-2.6-13.9-3.7-20.9c-0.1-0.8,0.4-2,1-2.6c9.8-9.4,19.6-18.8,29.4-28.1
			c-0.5,2-0.7,4.2-1.6,6.1c-7.1,14.1-14.2,28.1-21.5,42C419,158.9,417.3,159.8,416.1,161z"/>
		<path class="st6" d="M425,541c0.1-0.1,0.2-0.3,0.2-0.4C425.2,540.7,425.1,540.9,425,541C425,541,425,541,425,541z"/>
		<path class="st15" d="M226.1,247c0.4-1.7,0.7-3.3,1.1-5c1.7-2.1,3.6-4.1,5-6.4c3.4-5.8,6.6-11.7,9.9-17.6c0.6,1.4,1.2,2.7,1.9,4.1
			c0,1.7,0,3.3,0.1,5c-1.2,1.5-2.8,2.8-3.7,4.5c-5.2,9.8-10.2,19.8-15.4,29.6c-0.8,1.6-2.6,2.6-3.9,3.9c-1.3-0.7-2.6-1.3-3.9-2
			C220,257.7,223,252.3,226.1,247z"/>
		<path class="st19" d="M596.9,205.9c1.6-1.7,3.3-3.4,4.9-5c1.9,3.3,3.6,6.7,5.6,9.8c1.5,2.3,3.4,4.2,5.1,6.3c1.1,7,2.2,14,3.3,21
			c-1.5-1.8-3.5-3.5-4.6-5.6c-3.9-7.3-7.5-14.9-11.3-22.3C599.2,208.6,597.9,207.4,596.9,205.9z"/>
		<path class="st13" d="M713.9,311.9c1.1-1.1,2.3-2.1,3.4-3.2c1.6,2.2,3.1,4.4,4.8,6.5c1.2,1.4,2.6,2.5,4,3.8c-1.7,1.7-3.3,3.3-5,5
			C715.9,321.7,715.4,316.5,713.9,311.9z"/>
		<path class="st3" d="M225.1,229c-1-5.4-2.1-10.8-2.9-16.2c-0.2-1.2,0.2-2.8,0.9-3.6c7.8-7.7,15.8-15.3,23.7-22.9
			c-0.3,1.6-0.2,3.4-0.9,4.7c-6,12-12.2,23.9-18.4,35.7C227.1,227.7,225.9,228.3,225.1,229z"/>
		<path class="st2" d="M286,488c-2.2,3.1-4.4,6.3-6.6,9.4c-0.7,0.2-1.5,0.4-2.2,0.5c2.3,1.7,4.5,3.4,6.8,5.1c-3.3-2-6.7-4-10-6
			c-0.3-1-0.3-2.4-1-2.9c-14-10.8-28.2-21.5-42.2-32.3c-1.4-1.1-2.6-2.5-3.8-3.8c5.6-2.7,10.4-6.3,13.1-12.1c2,1.5,4.1,2.9,5.9,4.5
			c6.8,6.1,13.4,12.4,20.1,18.6c6,5.3,12,10.7,18,16C284.7,486,285.3,487,286,488z"/>
		<path class="st2" d="M284,503c1,1,2,2,3,3c-0.7,0-1.3,0-2-0.1C284.7,505,284.3,504,284,503z"/>
		<path class="st3" d="M639.9,309.2c4.7,4.4,9.1,9,14,13.2c3.6,3,4.9,6.3,3.4,10.8c-0.8,2.5-1,5.2-1.5,7.8c-1-0.8-2.4-1.3-2.9-2.3
			c-4.5-8.7-8.9-17.5-13.1-26.3C639.4,311.6,639.9,310.3,639.9,309.2z"/>
		<path class="st15" d="M98.1,366.9c2-4.3,4-8.6,6-12.9c4.1-0.7,0.4-3.5,1.4-5c1.2-0.9,2.8-1.6,3.4-2.8c2.5-4.6,4.8-9.4,7.1-14.1
			c0.3,0,0.7,0,1,0c0.3,0.3,0.6,0.7,0.9,1c0.3,3,0.7,6,1,9c-1.7,2-3.7,3.8-4.9,6c-3.9,6.9-7.4,14-11.1,21
			C101.3,368.3,99.7,367.6,98.1,366.9z"/>
		<path class="st12" d="M713.9,311.9c1.4,4.6,2,9.8,7.2,12.1c-0.4,0.6-0.8,1.3-1.2,1.9c-1.3,1-2.6,2.1-3.8,3.1
			c-2.4-4-4.8-8.1-7.2-12.1C710.6,315.3,712.3,313.6,713.9,311.9z"/>
		<path class="st16" d="M709,317c2.4,4,4.8,8.1,7.2,12.1c-3.8,3.3-0.3,7.2-0.9,10.8c-1.2-1.2-2.7-2.2-3.5-3.6
			c-2.7-4.7-5.2-9.6-7.8-14.4C705.6,320.3,707.3,318.6,709,317z"/>
		<path class="st16" d="M612.5,217c-1.7-2.1-3.6-4-5.1-6.3c-2.1-3.2-3.8-6.5-5.6-9.8c2-2,4-4.1,6-6.1c3.2,5.5,6.3,10.9,9.5,16.4
			c-0.8,1.2-1.7,2.4-2.5,3.5C614,215.5,613.3,216.3,612.5,217z"/>
		<path class="st12" d="M617.3,211.2c-3.2-5.5-6.3-10.9-9.5-16.4c2-2,4-4,6-6c2.7,6,5.4,12,8.1,18
			C620.4,208.2,618.9,209.7,617.3,211.2z"/>
		<path class="st2" d="M288,507c1,0.7,2,1.3,3,2C290,508.3,289,507.7,288,507z"/>
		<path class="st2" d="M292,510c0.3,0,0.7,0,1,0C292.7,510,292.3,510,292,510z"/>
		<path class="st27" d="M616,356c-5.1,5-10.3,9.9-15.3,14.9c-1.3,1.3-2.4,2.7-3.7,4.1c-2,1.5-4,2.9-5.9,4.5
			c-5.4,4.8-10.8,9.7-16.1,14.6c-9.8-3.4-19.6-6.7-29.4-10.3c-2-0.7-3.7-2.4-5.6-3.6c7.7-9.7,15.3-19.3,23-29c4-4.3,8-8.7,12-13
			c-0.4,2.7,0.8,4.2,3.5,5.1C591,347.3,603.5,351.7,616,356z"/>
		<path class="st4" d="M563,351c-7.7,9.7-15.3,19.3-23,29c-1.7,1.7-3.3,3.3-5,5c-1.2-1.3-2.2-2.9-3.7-3.8
			c-7.9-4.6-15.9-8.8-23.7-13.5c-2.2-1.3-3.8-3.8-5.6-5.7c0.3-1.3,0.7-2.6,1-3.9c0.8-0.9,1.7-1.7,2.3-2.7
			c5.9-10.1,11.8-20.2,17.7-30.3c12,6.8,24,13.5,35.8,20.6C560.7,346.6,561.6,349.2,563,351z"/>
		<path class="st27" d="M523,325c-5.9,10.1-11.7,20.2-17.7,30.3c-0.6,1-1.5,1.8-2.3,2.7c-7.7-3-15.4-6-23.1-9.1
			c0.2-1.3,0.1-2.7,0.6-3.9c5.8-13.4,11.7-26.7,17.5-40.1c9.7,3.7,19.3,7.4,29,11C525.7,319,524.3,322,523,325z"/>
		<path class="st4" d="M498.1,305c-5.8,13.4-11.7,26.7-17.5,40.1c-0.5,1.2-0.4,2.6-0.6,3.9c-1.3,1.7-2.6,3.4-3.9,5.1
			c-3.4-0.4-6.7-0.7-10.1-1.1c0-0.7,0-1.3,0-2c0.3-0.3,0.7-0.7,1-1c2.3-7,4.7-14,7-21c1.2-2.9,2.5-5.7,3.7-8.6
			c3.1-7.5,6.2-15,9.3-22.4c2.5,0.7,5,1.5,7.6,2c1.8,0.3,3.6,0.1,5.4,0C499.4,301.7,498.7,303.3,498.1,305z"/>
		<path class="st3" d="M550.1,259c-5.6-3.8-7.2-10-9.1-15.9c3.3-1.7,6.6-3.5,9.9-5.2c2.3,4.3,4.8,8.6,6.9,13.1
			c0.5,1.1,0.1,2.7,0.1,4.1C555.4,256.4,552.7,257.7,550.1,259z"/>
		<path class="st25" d="M515.1,233.1c5.9,11.9,11.8,23.8,17.8,35.7c-2,0.8-3.9,1.6-5.8,2.3c-3.6-7.5-7.1-15-10.8-22.4
			c-0.4-0.9-2.1-1.2-3.2-1.7C513.8,242.4,514.4,237.7,515.1,233.1z"/>
		<path class="st18" d="M509.2,272c0.9-5.3,1.8-10.7,2.7-16c1.4,1.4,3.1,2.7,4.2,4.3c2.7,4.2,5.2,8.7,7.7,13
			c-3.6,1.9-7.2,3.8-10.7,5.7C511.7,276.7,510.5,274.3,509.2,272z"/>
		<path class="st6" d="M523.7,273.3c-2.5-4.4-5-8.8-7.7-13c-1.1-1.7-2.8-2.9-4.2-4.3c0.4-3,0.8-5.9,1.2-8.9c1.1,0.6,2.7,0.9,3.2,1.7
			c3.7,7.4,7.2,14.9,10.8,22.4C525.9,271.8,524.8,272.6,523.7,273.3z"/>
		<path class="st19" d="M509.2,272c1.3,2.4,2.6,4.7,3.8,7.1c-2,0.9-4,1.9-6,2.8C507.7,278.6,508.5,275.3,509.2,272z"/>
		<path class="st17" d="M156,367c11-4,22-8,33.1-11.8c3.2-1.1,5.5-2.4,4.9-6.2c3,3.3,6,6.5,8.9,9.8c5.7,6.7,11.4,13.5,17.1,20.2
			c2.6,3.4,5.1,6.8,7.7,10.2c3.8,4.9,7.5,9.8,11.3,14.8c-2.1,1.4-4.1,3.2-6.4,4.2c-7.5,3.1-15,5.9-22.6,8.8c-4-3.4-8-6.7-12-10.1
			c-11-10.5-22.1-20.9-33.2-31.3c-0.4-0.4-1.2-0.4-1.8-0.6C160.7,372.3,158.3,369.6,156,367z"/>
		<path class="st7" d="M220,379c-5.7-6.7-11.4-13.5-17.1-20.2c-2.9-3.3-5.9-6.6-8.9-9.8c-1.7-2.7-3.4-5.3-5.1-8
			c12.5-7.1,25.1-14.1,37.5-21.4c1.8-1.1,3-3.1,4.5-4.7c1,1,2,2,3,3.1c0.7,1.5,1.2,3,2,4.4c5.6,10.2,11.3,20.3,17,30.5
			c0.8,4.9-3.3,5.9-6.3,7.7c-7.8,4.5-15.8,8.8-23.5,13.4C221.7,375,221,377.3,220,379z"/>
		<path class="st1" d="M156,367c2.3,2.6,4.7,5.3,7,7.9c-4.7,4.7-9.1,9.6-14,13.9c-2.2,1.9-5.3,2.8-8,4.1c-5.3-4-10.6-8.1-15.9-12.1
			c-1-6.3-2.1-12.6-3.1-18.9c-0.3-2-0.7-4-1-6c-0.3-2.3-0.7-4.6-1-7c-0.3-2.3-0.6-4.7-1-7c-0.3-3-0.7-6-1-9
			c8.7,7.9,17.4,15.7,26.1,23.6C148,360.1,152,363.5,156,367z"/>
		<path class="st17" d="M253,352.9c-5.7-10.2-11.4-20.3-17-30.5c-0.8-1.4-1.3-3-2-4.4c9.6-3.7,19.3-7.3,28.9-11c1.4,3,2.7,6,4.1,9
			c6.6,15.3,13.3,30.7,19.9,46c-1.7,0.5-3.4,1-5.1,1.6c-6,2.1-11.9,4.3-17.9,6.4C260.3,364.3,256.7,358.6,253,352.9z"/>
		<path class="st3" d="M267,316c-1.4-3-2.7-6-4.1-9c-2.9-6.6-5.9-13.2-8.7-19.8c-0.7-1.6-0.8-3.5-1.2-5.2c-1.7-9.3-3.4-18.6-5.1-28
			c-0.3-2.3-0.6-4.7-0.9-7c-0.7-4.7-1.4-9.3-2-14c-0.3-2-0.6-4-1-6c0-1.7,0-3.3-0.1-5c0,0,0.2-0.1,0.2-0.1c3,7.3,6,14.7,9,22
			c5.3,14,10.7,28,16,42c1.2,3,2.6,6,3.9,9c0.5,1.9,0.8,3.8,1.4,5.6c1.5,4.5,3.1,8.9,4.6,13.3c-1.2,0.7-2.4,1.8-3.7,2
			C272.6,316.2,269.8,316,267,316z"/>
		<path class="st3" d="M209,237.9c3.6,2.1,7.3,4.1,10.9,6.2c-2.7,5.6-5.3,11.2-8,16.9c-3.3-2-6.7-4-10-5.9c1.9-4.7,3.7-9.4,5.6-14.1
			C208.1,239.9,208.6,238.9,209,237.9z"/>
		<path class="st21" d="M244,227c0.3,2,0.6,4,1,6c-6.1,11.7-12.1,23.4-18.2,35.1c-1.9-1-3.9-2.1-5.8-3.1c1.3-1.3,3.1-2.3,3.9-3.9
			c5.2-9.8,10.2-19.7,15.4-29.6C241.2,229.9,242.7,228.5,244,227z"/>
		<path class="st24" d="M247.9,254c1.7,9.3,3.4,18.6,5.1,28c-5.3-2.7-10.7-5.4-16-8.1c2.4-5.2,4.8-10.4,7.4-15.6
			C245.2,256.7,246.7,255.5,247.9,254z"/>
		<path class="st23" d="M226.8,268.1c6.1-11.7,12.1-23.4,18.2-35.1c0.7,4.7,1.4,9.3,2,14c-0.9,0.3-2.4,0.3-2.6,0.8
			c-3.8,8-7.5,16-11.3,24C230.9,270.6,228.8,269.4,226.8,268.1z"/>
		<path class="st6" d="M233,271.9c3.7-8,7.4-16.1,11.3-24c0.3-0.6,1.7-0.6,2.6-0.8c0.3,2.3,0.6,4.7,0.9,7c-1.2,1.4-2.7,2.7-3.5,4.3
			c-2.6,5.1-4.9,10.4-7.4,15.6C235.7,273.2,234.4,272.6,233,271.9z"/>
		<path class="st22" d="M212,261c2.7-5.6,5.3-11.2,8-16.9c2,1,4,1.9,6.1,2.9c-3,5.3-6,10.7-9.1,16C215.3,262.3,213.7,261.6,212,261z
			"/>
		<path class="st7" d="M140.9,393c2.7-1.3,5.9-2.2,8-4.1c4.9-4.4,9.4-9.3,14-13.9c0.6,0.2,1.4,0.2,1.8,0.6
			c11.1,10.4,22.1,20.9,33.2,31.3c-1.8,2.6-3.3,5.4-5.5,7.7c-3.3,3.4-7,6.3-10.6,9.5c-5-3.3-10-6.7-14.9-10c-7.6-6-15.3-12-22.9-18
			C143,395.1,142,394,140.9,393z"/>
		<path class="st21" d="M119,342c0.3,2.3,0.6,4.7,1,7c-1.4,1.5-3.2,2.9-4.2,4.7c-3.1,5.7-5.9,11.6-8.9,17.4
			c-1.3-0.7-2.6-1.4-3.9-2.1c3.7-7,7.2-14.1,11.1-21C115.3,345.8,117.3,344,119,342z"/>
		<path class="st24" d="M121.9,362c1,6.3,2.1,12.6,3.1,18.9c-3.7-1.9-7.4-3.8-11-5.8C116.6,370.8,119.2,366.4,121.9,362z"/>
		<path class="st25" d="M106.9,371.1c2.9-5.8,5.8-11.7,8.9-17.4c1-1.8,2.8-3.1,4.2-4.7c0.3,2.3,0.7,4.6,1,7
			c-0.9,0.6-2.3,0.9-2.7,1.8c-2.6,5.1-4.9,10.3-7.3,15.5C109.5,372.6,108.2,371.9,106.9,371.1z"/>
		<path class="st6" d="M110.9,373.3c2.4-5.2,4.8-10.4,7.3-15.5c0.4-0.8,1.8-1.2,2.7-1.8c0.3,2,0.7,4,1,6c-2.7,4.4-5.3,8.7-8,13.1
			C112.9,374.5,111.9,373.9,110.9,373.3z"/>
		<path class="st17" d="M535,385c1.7-1.7,3.3-3.3,5-5c1.9,1.2,3.6,2.9,5.6,3.6c9.7,3.6,19.6,6.9,29.4,10.3c-4.3,4.3-8.7,8.6-13,12.9
			c-8.7,7.7-17.3,15.4-26,23.1c-8.6-2.6-17.2-5.2-25.8-8c-0.9-0.3-1.5-1.9-2.2-2.9c3.7-4.6,7.5-9.1,11.2-13.8
			C524.5,398.5,529.8,391.8,535,385z"/>
		<path class="st7" d="M562,406.9c4.3-4.3,8.7-8.6,13-12.9c5.4-4.9,10.7-9.8,16.1-14.6c1.8-1.6,3.9-3,5.9-4.5
			c0.1,1.1-0.2,2.8,0.4,3.4c6,5.3,12.1,10.5,18.3,15.6c0.5,0.4,1.6,0.1,2.4,0.1c-1.4,1.3-2.7,2.7-4.1,4c-9.7,7.2-19.3,14.4-29,21.5
			c-2.2,1.6-4.6,3.1-6.9,4.6c-4.5-4-9.2-7.9-13.5-12.2C563.3,410.7,562.8,408.6,562,406.9z"/>
		<path class="st10" d="M535,385c-5.3,6.7-10.5,13.5-15.8,20.2c-3.7,4.6-7.5,9.2-11.2,13.8c-0.7,0.3-1.3,0.7-2,1
			c-5.6-3.7-11.3-7.2-16.9-11c-3.5-2.4-6.8-5.3-10.1-8c1.5-2.7,3-5.5,4.6-8.2c6.1-10.3,12.3-20.6,18.4-30.9c1.9,1.9,3.4,4.4,5.6,5.7
			c7.8,4.7,15.9,8.9,23.7,13.5C532.8,382.1,533.8,383.7,535,385z"/>
		<path class="st2" d="M479,401c3.4,2.7,6.6,5.6,10.1,8c5.5,3.8,11.2,7.3,16.9,11c-6.4,8.2-12.7,16.5-19.2,24.6
			c-3.7,4.6-7.8,9-11.7,13.4c-3.7-2.4-7.5-4.6-11-7.1c-3.1-2.2-6-4.7-9-7c0.7-1.5,1.2-3.1,2-4.5C464.3,426.6,471.6,413.8,479,401
			L479,401z"/>
		<path class="st14" d="M455,443.9c3,2.4,5.9,4.8,9,7c3.6,2.5,7.4,4.7,11,7.1c-0.4,1-0.8,2-1.1,2.9c-4,4.4-7.9,8.7-11.9,13.1
			c-2.7-2-5.4-4.1-8.2-6.1c-2.9-2.1-5.9-4-8.9-6c1-2.6,2.1-5.2,3.1-7.9C450.4,450.7,452.7,447.3,455,443.9z"/>
		<path class="st26" d="M444.9,461.9c3,2,6,4,8.9,6c2.8,2,5.5,4.1,8.2,6.1c0,0.3,0,0.6,0,1c-4,4.7-8,9.3-12,14
			c-2.9-2.1-5.8-4-8.5-6.3c-2-1.7-3.7-3.8-5.5-5.7c0.3-1.3,0.7-2.6,1-4C439.7,469.3,442.3,465.6,444.9,461.9z"/>
		<path class="st23" d="M436,477c1.8,1.9,3.5,4,5.5,5.7c2.7,2.3,5.7,4.2,8.5,6.3c0,0.3,0,0.6,0,1c-2.6,3.1-5.1,6.2-7.8,9.2
			c-1.2,1.4-2.8,2.6-4.2,3.8c-4-2.7-8-5.4-12.1-8.1c0.7-2,1.4-4,2-6C430.7,485,433.3,481,436,477z"/>
		<path class="st4" d="M181.9,424.1c3.6-3.1,7.3-6.1,10.6-9.5c2.2-2.2,3.7-5.1,5.5-7.7c4,3.4,8,6.7,12,10.1c1.6,1.6,3.2,3.3,4.8,4.9
			c8.4,8,16.8,16,25.2,24c-2.7,5.8-7.5,9.4-13.1,12.1c-1.3-0.7-2.6-1.3-3.9-2c-12.9-9.8-25.8-19.6-38.7-29.4
			C183.4,425.9,182.7,424.9,181.9,424.1z"/>
		<path class="st7" d="M456,235c-0.3,2.7-0.7,5.3-1,8c-1.7,6-3.3,12-5,18c-2.8-2.2-7.1-1.1-7.9,2.4c-2.2,10.1-4.1,20.4-6.2,30.5
			c-1.3,5.7-2.7,11.3-4,17c-5.7,0.7-11.4,1.5-17.1,2c-7.6,0.6-15.2,0.3-22.7,1.4c-4.9,0.7-9.3,1.1-13.2-2.3c0-1.7,0-3.3,0-5
			c0-2.3,0-4.7,0-7c0.3-1.7,0.9-3.4,1-5.2c0.1-13.9,0.1-27.9,0.1-41.8c15.1-1,30.3-2,45.4-3c3.3-0.2,6.6-1.1,9.8-0.9
			c5.4,0.4,8.3-2,9.9-6.9c1.2-3.9,3-7.6,7.7-8.1C453.9,234,455,234.7,456,235z"/>
		<path class="st4" d="M389,167.7c3,1.6,6.1,3.2,9.1,4.8c-3.4,6.5-6.8,13.1-10.5,20.2c-2.2-1-4.9-2.3-7.6-3.6c0,0-0.1,0-0.1,0
			c0.6-1.9,1.1-3.8,1.9-5.6C384.2,178.2,386.6,173,389,167.7z"/>
		<path class="st18" d="M444.9,197c0.7,4,1.3,8,2,12c0,1.7,0,3.3,0.1,5c-1.7,2.4-3.3,4.7-5,7.1c-3.1-1.7-6.1-3.3-9.2-5
			c2.7-5.3,5.3-10.6,8.1-15.7c0.7-1.3,2.4-2.2,3.6-3.3L444.9,197z"/>
		<path class="st4" d="M408,178.1c2,1,4,2,6,3.1c-2.6,5.6-5,11.4-7.8,16.9c-0.6,1.1-2.7,1.3-4.2,2c-3.5-0.5-3.2-2.5-2-5
			C402.7,189.4,405.3,183.7,408,178.1z"/>
		<path class="st24" d="M444.5,197.1c-1.2,1.1-2.9,1.9-3.6,3.3c-2.9,5.2-5.4,10.5-8.1,15.7c-1.7-1-3.5-2-5.2-2.9
			c3.8-7.1,7.5-14.2,11.4-21.1c0.9-1.6,2.5-2.7,3.8-4C443.4,191.1,444,194.1,444.5,197.1z"/>
		<path class="st22" d="M402,200c1.4-0.6,3.6-0.9,4.2-2c2.8-5.5,5.3-11.2,7.8-16.9c1.3,0.7,2.7,1.3,4,2c-3.3,6.6-6.7,13.2-10,19.9
			C405.9,202,404,201,402,200z"/>
		<path class="st10" d="M380,253c0,13.9,0,27.9-0.1,41.8c0,1.7-0.6,3.4-1,5.2c0-6.7,0-13.3,0-20c0-7,0-14,0-21c0-5.3,0-10.7,0-16
			c0-6.3,0-12.7,0-19c0-11.7,0-23.3,0.1-35c0.3,0,0.6,0,1,0c0,0,0.1,0,0.1,0C380,210.3,380,231.7,380,253z"/>
		<path class="st19" d="M442,221.1c1.7-2.4,3.3-4.7,5-7.1c0.7,3.4,1.5,6.8,2.6,11.7C446.1,223.6,444,222.3,442,221.1z"/>
		<path class="st17" d="M450,261c1.7-6,3.3-12,5-18c15.2,3.4,30.5,6.7,45.7,10.1c0.8,0.2,1.5,0.6,2.3,0.9
			c-2.5,7.2-4.8,14.6-7.5,21.7c-1.9,5.2-4.4,10.2-6.6,15.3c-4-0.5-8.1-0.8-12.1-1.6c-10.3-2-20.5-4.2-30.8-6.4
			c0.2-1.4,0.3-2.9,0.6-4.3C447.7,272.8,448.9,266.9,450,261z"/>
		<path class="st24" d="M635,380.9c1.4-7.6,2.7-15.2,4.1-22.9c1.2,1.4,2.6,2.8,3.6,4.3c2.3,3.5,4.4,7.2,6.6,10.8
			C644.5,375.7,639.8,378.3,635,380.9z"/>
		<path class="st6" d="M649.3,373.1c-2.2-3.6-4.3-7.2-6.6-10.8c-1-1.6-2.4-2.9-3.6-4.3c0.3-3,0.7-6,1-8.9c2.8,4.2,5.7,8.4,8.3,12.8
			c1.8,3,3.2,6.2,4.8,9.3C651.8,371.8,650.6,372.5,649.3,373.1z"/>
		<path class="st21" d="M402,463c-0.3,2.7-0.7,5.3-1,8c-0.7,2.3-1.3,4.7-2,7c-4.4,0.7-8.8,1.3-13.2,2c-3.6,0.5-5.4-0.7-4.8-4.6
			c0.6-3.6-1.2-4.9-4.5-4.4c-2.3,0.3-4.6,0.5-6.8,1c-5.3,1.2-9.3-1.8-13.6-4c-1-4.3-2-8.7-3-13c0-1,0-2,0-3c2.9,1.2,5.8,3.4,8.8,3.4
			c6.4,0.1,12.8-0.9,19.2-1.4c0,1.3,0.2,2.7,0,4c-0.7,4.6,0.9,6.7,5.8,6.1C391.8,463.5,396.9,463.3,402,463z"/>
		<path class="st21" d="M341,506.9c-2.7-5.3-5.3-10.6-8-16c2.7-1.2,5.3-2.3,8-3.5c-1.5-4.5-2.8-8.5-4.1-12.5c6.3-2,12.7-4,19-6
			c1,4.6,2.4,9.2,2.7,13.9c0.1,1.6-2.2,4.1-4,5c-3.4,1.8-7.2,2.7-10.8,4c4.5,12.6,4.5,12.6-2,15.2C341.7,507,341.3,507,341,506.9z"
			/>
		<path class="st26" d="M356,469c-6.3,2-12.7,4-19,6c-1.6-2.3-3.3-4.7-4.9-7c-0.3-2-0.7-4-1-6c1.5-0.3,3.1-0.6,4.6-0.9
			c-1.2-3.7,2.2-2.4,3.4-2.8c4.6-1.3,9.3-2.2,14-3.3c1,4.3,2,8.7,3,13C356,468.3,356,468.7,356,469z"/>
		<path class="st6" d="M341,506.9c0.3,0,0.7,0,1,0c0,0.3,0,0.7,0,1C341.7,507.7,341.3,507.3,341,506.9z"/>
		<path class="st21" d="M317,497c-2-2-4-4-6-6c-2.7-3.7-5.3-7.4-8-11c2.9-1.8,5.9-3.5,8.7-5.4c2.5-1.7,4.9-3.7,7.3-5.6c1,1,2,2,3,3
			c3,5.3,6,10.7,9,16C326.3,491,321.6,494,317,497z"/>
		<path class="st15" d="M331,488c-3-5.3-6-10.7-9-16c3.3-1.3,6.7-2.7,10-4c1.6,2.3,3.3,4.7,4.9,7c1.3,4,2.6,8,4.1,12.5
			c-2.7,1.2-5.4,2.3-8,3.5C332.3,490,331.7,489,331,488z"/>
		<path class="st29" d="M379,280c0,6.7,0,13.3,0,20c0,2.3,0,4.7,0,7c-13.6,1.3-27.2,2.7-40.7,4c-3.8,0.4-8.2-0.9-10.1,4.1
			c-1.4,3.6-4.1,7.4-3.8,10.9c0.6,6.8,3,13.4,4.7,20c1.7,8,3.3,16,5,24c-10,2.3-20,4.7-29.9,7c-1.3-3-2.7-6-4-9
			c-0.7-2.4-1.2-4.8-2.1-7.1C294,350.2,290,339.6,286,329c9.2-2,18.3-4.1,27.5-6.1c6.4-1.4,8.5-3.2,7.4-9.2
			c-1.9-10.3-4.5-20.5-6.9-30.7c-0.3-2.3-0.7-4.7-1-7c1.1-0.6,2.3-1.1,4-1.9c1.2,2.1,2.2,4.4,3.8,6.3c1.3,1.5,3,3.2,4.8,3.5
			c2.9,0.6,6,0.3,8.9,0C349.4,282.6,364.2,281.3,379,280z"/>
		<path class="st17" d="M379,280c-14.8,1.3-29.6,2.6-44.4,3.9c-3,0.2-6.1,0.5-8.9,0c-1.8-0.3-3.6-2-4.8-3.5
			c-1.5-1.8-2.5-4.1-3.8-6.3c-1.7,0.8-2.9,1.4-4,1.9c-2.8-14.4-9.3-28.2-7.8-44.2c2.9,1.1,4.3,1.7,5.8,2.2c1,4.3,2,8.7,3,13
			c0.7,3.6,0.9,7.3,2.2,10.6c0.8,2.1,3,4.5,5,5.2c2.9,0.9,6.2,0.3,9.4,0.1c16.1-1.2,32.2-2.6,48.3-3.9C379,266,379,273,379,280z"/>
		<path class="st17" d="M314,283c2.3,10.2,5,20.4,6.9,30.7c1.1,6.1-0.9,7.9-7.4,9.2c-9.2,1.9-18.3,4-27.5,6.1c-2.3-5-4.7-10-7-15.1
			c-1.5-4.4-3.1-8.8-4.6-13.3c-0.6-1.8-1-3.8-1.4-5.6c11.5-2.4,23-4.7,34.3-7.4C309.8,287,311.8,284.6,314,283z"/>
		<path class="st5" d="M379,189c0,11.7,0,23.3-0.1,35c-5.4,0.3-10.9,0.5-16.3,1c-9.5,0.8-19,2.1-28.5,2.7c-8,0.5-16.1,0.2-24.1,0.3
			c0-1.2,0-2.4-0.1-3.6c5-2.7,10.1-5.4,15.1-8.2c4.3-2.1,8.6-4.3,12.9-6.4c4.7-2.5,9.4-5.1,14.1-7.6c3.3-1.7,6.6-3.4,9.9-5.2
			c3.7-2,7.4-3.9,11.1-5.9C375.1,190.4,377,189.7,379,189z"/>
		<path class="st8" d="M310,228c8-0.1,16.1,0.2,24.1-0.3c9.5-0.6,19-1.9,28.5-2.7c5.4-0.5,10.9-0.7,16.3-1c0,6.3,0,12.7,0,19
			c-5.8,0.3-11.5,0.5-17.3,1c-9.2,0.8-18.3,2.1-27.5,2.7c-6.7,0.5-13.4,0.2-20.1,0.3c-1-4.3-2-8.7-3-13C310.7,232,310.3,230,310,228
			z"/>
		<path class="st8" d="M253,244c-3-7.3-6-14.7-9-22c13-2.8,26.1-5.7,39.1-8.6c4.9-1.1,10.3-1,13.9-5.4c1.5,6.7,3.4,13.4,4.3,20.2
			c0.2,1.8-2.1,5.4-3.8,5.8C282.8,237.7,267.9,240.7,253,244z"/>
		<path class="st18" d="M325.1,216.2c-5,2.7-10.1,5.4-15.1,8.2c1.4-8.1,2.7-16.2,4.1-24.4c1.7-2.1,3.8-4,5-6.4
			c8.2-15.6,16.1-31.4,24.2-47.1c0.5-1,1.8-1.7,2.7-2.5c-1.8,11.4-3.7,22.7-5.5,34.1c-0.3,1.6-0.3,3.3-0.5,4.9
			c-2,4.2-4.1,8.3-6,12.5C331,202.4,328.1,209.3,325.1,216.2z"/>
		<path class="st2" d="M409,428c-0.3,2.7-0.7,5.3-1,8c-9.3,0.7-18.7,1.3-28,2c0-1.3,0-2.7,0-4c0-13.3,0-26.7,0-40c0-4.3,0-8.7,0-13
			c1.9,0.3,3.9,1.1,5.7,0.9c11.1-0.9,22.2-1.9,33.2-2.9C415.7,395.3,412.3,411.7,409,428z"/>
		<path class="st15" d="M412,434c0-1.7,0-3.3,0-5c0.7-1.8,1.5-3.6,2-5.4c1.4-5.2,2.7-10.4,4-15.6c8,2,16,4,24,6
			c-3.3,8.7-6.7,17.3-10,26c-5.6-1-11.3-1.9-16.8-3.2C414,436.5,413.1,435,412,434z"/>
		<path class="st14" d="M380,438c9.3-0.7,18.7-1.3,28-2c-2,9-4,18-6,27c-5.1,0.3-10.2,0.5-15.2,1.1c-4.9,0.6-6.5-1.5-5.8-6.1
			c0.2-1.3,0-2.6,0-4C380.7,448.7,380.3,443.3,380,438z"/>
		<path class="st26" d="M412,434c1.1,1,2,2.5,3.2,2.8c5.6,1.3,11.2,2.2,16.8,3.2c-1.7,4.8-3.3,9.7-5.2,14.4
			c-1.6,3.7-0.3,4.9,3.3,4.6c-1,3.3-2.1,6.7-3.1,10c-2.3,4.3-4.6,8.7-6.9,13c-3.3,0.1-3.5-1.6-2.5-4.1c1.6-3.9,3.1-7.9,4.8-12.2
			c-4-1-7.3-2-10.7-2.6c-4.4-0.7-6.5-2-5-7.2C408.9,448.7,410.3,441.3,412,434z"/>
		<path class="st14" d="M418,408c-1.3,5.2-2.6,10.4-4,15.6c-0.5,1.9-1.3,3.6-2,5.4c-1-0.3-2-0.7-3-1c3.3-16.3,6.6-32.7,10-49
			c2-9,4-18,6-27c1.7-0.3,3.3-0.6,5-1c-1.3,7.3-2.7,14.7-4,22c-1,4-2,8-2.9,12C421.3,392.7,419.7,400.3,418,408z"/>
		<path class="st22" d="M420.1,482c2.3-4.3,4.6-8.7,6.9-13c3.3,1.3,6.7,2.7,10,4c-0.3,1.3-0.7,2.6-1,4c-2.7,4-5.3,8-8,12
			c-2.7-1.3-5.4-2.7-8-4C420,484,420,483,420.1,482z"/>
		<path class="st26" d="M420,485c2.7,1.3,5.4,2.7,8,4c-0.7,2-1.4,4-2,6c-2,3-4,6-6,9c-2.5-0.6-4.9-1.3-8.1-2.1
			C414.8,495.8,417.4,490.4,420,485z"/>
		<path class="st25" d="M352.1,202.2c-4.7,2.5-9.4,5.1-14.1,7.6c1.7-4.1,3.2-8.2,5-12.2c3-6.9,6.1-13.7,9.1-20.6
			c4.6-2.4,9.3-4.8,13.9-7.2c-0.1,1,0,2.1-0.4,2.9c-3.2,6.3-6.6,12.6-9.6,19C354.3,195.1,353.4,198.7,352.1,202.2z"/>
		<path class="st24" d="M352,177c-3,6.9-6.1,13.7-9.1,20.6c-1.7,4-3.3,8.1-5,12.2c-4.3,2.1-8.6,4.3-12.9,6.4
			c3-6.9,5.9-13.9,8.9-20.7c1.9-4.2,4-8.3,6-12.5C344,181,348,179,352,177z"/>
		<path class="st26" d="M373.1,191.1c-3.7,2-7.4,3.9-11.1,5.9c0.7-2.3,1-4.8,2-7c3.8-8.5,7.9-16.9,11.8-25.4
			c2.8-2.8,5.5-2.1,8.1,0.3c-3,6.4-6.1,12.7-9,19.2C374,186.3,373.7,188.8,373.1,191.1z"/>
		<path class="st21" d="M375.9,164.7c-4,8.5-8,16.9-11.8,25.4c-1,2.2-1.4,4.6-2,7c-3.3,1.7-6.6,3.4-9.9,5.2
			c1.2-3.5,2.2-7.1,3.8-10.5c3-6.4,6.5-12.6,9.6-19c0.4-0.8,0.3-1.9,0.4-2.9C369.3,168.2,372.6,166.4,375.9,164.7z"/>
		<path class="st15" d="M373.1,191.1c0.6-2.3,1-4.8,1.9-7c2.9-6.5,6-12.8,9-19.2c1.7,0.9,3.4,1.8,5,2.8c-2.4,5.2-4.9,10.4-7.2,15.7
			c-0.8,1.8-1.2,3.7-1.9,5.6c-0.3,0-0.6,0-1,0C377,189.7,375.1,190.4,373.1,191.1z"/>
		<path class="st29" d="M446,283c10.3,2.1,20.5,4.4,30.8,6.4c4,0.8,8.1,1.1,12.1,1.6c-0.3,1.7-0.6,3.3-1,5c-0.3,0.4-0.7,0.7-1,1.1
			c0,0.3,0,0.6,0,1c-3.1,7.5-6.2,15-9.3,22.4c-1.2,2.9-2.5,5.7-3.7,8.6c-12.3-2.7-24.6-5.3-36.9-8c2-9.7,4-19.3,6-29
			C444.1,289,445,286,446,283z"/>
		<path class="st4" d="M487,297c0.3-0.4,0.7-0.7,1-1.1C487.7,296.3,487.3,296.7,487,297z"/>
		<path class="st22" d="M303,480c2.7,3.7,5.3,7.4,8,11c-1.2,1.1-2.2,2.5-3.6,3.2c-3,1.5-6.3,2.5-9.4,3.8c-4-3.3-8-6.7-12-10
			c-0.7-1-1.3-2-2-3c5.3-2.3,10.7-4.7,16-7C301,478.7,302,479.3,303,480z"/>
		<path class="st29" d="M240,445.9c-8.4-8-16.8-16-25.2-24c-1.7-1.6-3.2-3.3-4.8-4.9c7.5-2.9,15.1-5.7,22.6-8.8
			c2.3-1,4.3-2.8,6.4-4.2c1.3,1.2,2.8,2.3,4,3.6c3.4,3.8,6.6,7.6,10,11.4c0.8,1.2,1.4,2.6,2.3,3.7c10.2,12.8,20.5,25.5,30.8,38.3
			c-6.7,2.7-13.3,5.3-20,8c-6.7-6.2-13.4-12.4-20.1-18.6C244.1,448.8,242,447.4,240,445.9z"/>
		<path class="st7" d="M266,469c6.7-2.7,13.3-5.3,20-8c0.3,0,0.7,0,1,0c4.3,5.7,8.7,11.3,13,17c-5.3,2.3-10.7,4.7-16,7
			C278,479.7,272,474.3,266,469z"/>
		<path class="st17" d="M502,362c-6.1,10.3-12.3,20.6-18.4,30.9c-1.6,2.7-3.1,5.4-4.6,8.2c0,0-0.1,0-0.1,0c-6.6-2.3-13.2-4.7-19.9-7
			c1.5-3.3,3-6.6,4.4-9.9c4.2-10,8.4-20,12.6-30c1.3-1.7,2.6-3.4,3.9-5.1c7.7,3,15.4,6,23.1,9.1C502.7,359.3,502.3,360.6,502,362z"
			/>
		<path class="st3" d="M437.1,321c12.3,2.7,24.6,5.3,36.9,8c-2.3,7-4.7,14-7,21c-0.3,0.3-0.7,0.7-1,1c0,0.7,0,1.3,0,2
			c-1,1.3-2,2.7-3,4c-10.7-2.7-21.3-5.3-32-8C433,339.6,435.1,330.3,437.1,321z"/>
		<path class="st10" d="M463,357c1-1.3,2-2.7,3-4c3.4,0.4,6.7,0.7,10.1,1.1c-4.2,10-8.4,20-12.6,30c-1.4,3.3-2.9,6.6-4.4,9.9
			c-2,4.3-4,8.7-6.1,13c-2.7,0-5.3,0-8,0c2-5,4-10.1,6.1-15.4c-9.7-2.3-18.9-4.4-28-6.5c1-4,2-8,2.9-12c8.7,2.3,17.3,4.7,26.1,6.9
			c0.9,0.2,2.8-0.7,3.1-1.6C457.9,371.2,460.4,364.1,463,357z"/>
		<path class="st10" d="M466,351c0.3-0.3,0.7-0.7,1-1C466.7,350.3,466.3,350.7,466,351z"/>
		<path class="st10" d="M253,419c-3.3-3.8-6.6-7.7-10-11.4c-1.2-1.3-2.7-2.4-4-3.6c-3.8-4.9-7.5-9.8-11.3-14.8
			c-2.6-3.4-5.2-6.8-7.7-10.2c1-1.7,1.7-4.1,3.2-5c7.7-4.7,15.7-8.9,23.5-13.4c3-1.7,7-2.8,6.3-7.7c3.6,5.7,7.3,11.4,10.9,17.1
			c5,9.6,10.1,19.2,15.1,28.9c-1,1.4-1.8,3.2-3.2,4c-5.5,3.3-11.3,6.1-16.7,9.6C256.7,414.1,255,416.8,253,419z"/>
		<path class="st29" d="M279,398.9c-5-9.6-10.1-19.2-15.1-28.9c6-2.1,11.9-4.3,17.9-6.4c1.7-0.6,3.4-1.1,5.1-1.6c1.4,3,2.7,6,4.1,9
			c6.7,15,13.3,30,20,45c0.3,1.3,0.7,2.7,1,4c-5.3,2-10.7,4-16,6c-1-1.5-2.2-2.9-3.1-4.4C288.2,414.1,283.6,406.5,279,398.9z"/>
		<path class="st4" d="M291,371c-1.4-3-2.7-6-4.1-9c-6.6-15.3-13.3-30.7-19.9-46c2.8,0,5.6,0.2,8.3-0.1c1.3-0.1,2.5-1.3,3.7-2
			c2.3,5,4.7,10,7,15.1c4,10.6,8,21.2,11.9,31.9c0.8,2.3,1.4,4.7,2.1,7.1C298.2,372.5,294.2,370.5,291,371z"/>
		<path class="st29" d="M453,407c2-4.3,4-8.7,6.1-13c6.6,2.3,13.2,4.7,19.9,7c-7.3,12.8-14.6,25.6-21.9,38.5c-0.8,1.4-1.4,3-2,4.5
			c-2.3,3.4-4.6,6.7-6.9,10.1c-4.3-1.3-8.7-2.7-13-4c0.2-0.8,0.4-1.6,0.7-2.4C441.5,434.1,447.3,420.5,453,407z"/>
		<path class="st7" d="M435,450c4.3,1.3,8.7,2.7,13,4c-1,2.6-2.1,5.2-3.1,7.9c-2.6,3.7-5.3,7.4-7.9,11.1c-3.3-1.3-6.7-2.7-10-4
			c1-3.3,2.1-6.7,3.1-10C431.8,456,433.4,453,435,450z"/>
		<path class="st10" d="M425,352c-2,9-4,18-6,27c-11.1,1-22.2,2.1-33.2,2.9c-1.9,0.1-3.8-0.6-5.7-0.9c0-3.5-0.1-7,0-10.4
			c0.2-3.4-1.5-3.8-4.3-3.4c-5.2,0.7-10.4,1.4-15.6,1.8c-8.6,0.6-17.4-0.1-25,5c0-0.7,0-1.3,0-2c5.8-4.6,12.7-4.7,19.6-5.1
			c6.8-0.3,13.5-1.3,20.2-2.1c3.1-0.4,4.4-2,4.3-5.4c-0.3-7.8-0.1-15.6-0.1-23.5c0-8,0-16,0-24c3.9,3.5,8.3,3,13.2,2.3
			c7.5-1.1,15.1-0.8,22.7-1.4c5.7-0.4,11.4-1.3,17.1-2c-0.5,3.3-0.9,6.5-1.4,9.8C428.7,331.2,426.8,341.6,425,352z"/>
		<path class="st1" d="M379,312c0,8,0,16,0,24c-9.4,0.7-18.8,0.8-28,2.2c-7,1-15.7-1.5-20.1,7.3c-0.2,0.4-1.2,0.4-1.8,0.6
			c-1.7-6.7-4-13.3-4.7-20c-0.3-3.5,2.4-7.3,3.8-10.9c1.9-5,6.3-3.7,10.1-4.1c13.6-1.3,27.2-2.6,40.7-4C379,308.7,379,310.3,379,312
			z"/>
		<path class="st2" d="M425,352c1.9-10.4,3.8-20.8,5.6-31.2c0.6-3.2,1-6.5,1.4-9.8c1.3-5.7,2.7-11.3,4-17c2.4-0.7,4.7-1.3,7.1-2
			c-2,9.7-4,19.3-6,29c-2,9.3-4,18.7-6,28c-0.3,0.7-0.7,1.3-1,2C428.3,351.3,426.7,351.6,425,352z"/>
		<path class="st10" d="M443.1,292c-2.4,0.7-4.7,1.3-7.1,2c2-10.2,3.9-20.4,6.2-30.5c0.8-3.5,5.1-4.6,7.9-2.4
			c-1.1,5.9-2.3,11.8-3.4,17.6c-0.3,1.4-0.4,2.9-0.6,4.3C445,286,444.1,289,443.1,292z"/>
		<path class="st27" d="M314,247c6.7-0.1,13.4,0.2,20.1-0.3c9.2-0.6,18.3-1.9,27.5-2.7c5.8-0.5,11.5-0.7,17.3-1c0,5.3,0,10.7,0,16
			c-16.1,1.3-32.2,2.6-48.3,3.9c-3.1,0.2-6.5,0.8-9.4-0.1c-2.1-0.6-4.2-3-5-5.2C314.9,254.3,314.7,250.6,314,247z"/>
		<path class="st26" d="M380,438c0.3,5.3,0.7,10.7,1,16c-6.4,0.5-12.8,1.5-19.2,1.4c-2.9,0-5.9-2.2-8.8-3.4c-1.3-5-2.7-10-4-15
			c0-1,0-2,0-3c4.3,0.6,8.6,1.8,12.9,1.7c6-0.1,12.1-1.1,18.1-1.7C380,435.3,380,436.7,380,438z"/>
		<path class="st15" d="M349,437c1.3,5,2.7,10,4,15c0,1,0,2,0,3c-4.7,1.1-9.4,1.9-14,3.3c-1.2,0.4-4.6-0.9-3.4,2.8
			c-1.5,0.3-3.1,0.6-4.6,0.9c-1.3-3-2.7-6-4-9c1.6-0.1,3.1-0.2,5.3-0.3c-1.6-4.7-2.9-8.7-4.2-12.7c1.7,0.2,3.5,0.7,5.1,0.4
			C338.5,439.4,343.7,438.1,349,437z"/>
		<path class="st22" d="M327,453c1.3,3,2.7,6,4,9c0.3,2,0.7,4,1,6c-3.3,1.3-6.7,2.7-10,4c-1-1-2-2-3-3c-2-4.3-4-8.7-6-13
			c4-2,8-4,12-6C325.7,451,326.3,452,327,453z"/>
		<path class="st14" d="M313,456c2,4.3,4,8.7,6,13c-2.4,1.9-4.8,3.9-7.3,5.6c-2.8,1.9-5.8,3.6-8.7,5.4c-1-0.7-2-1.3-3-2
			c-4.3-5.7-8.7-11.3-13-17c7-4.3,14-8.7,21-13C309.7,450.7,311.3,453.3,313,456z"/>
		<path class="st7" d="M329,346c0.6-0.2,1.6-0.2,1.8-0.6c4.4-8.7,13.1-6.2,20.1-7.3c9.2-1.4,18.7-1.5,28-2.2
			c0,7.8-0.2,15.6,0.1,23.5c0.1,3.4-1.2,5-4.3,5.4c-6.7,0.8-13.4,1.7-20.2,2.1c-7,0.3-13.8,0.5-19.6,5.1c-0.3-0.7-0.7-1.3-1-2
			C332.3,362,330.7,354,329,346z"/>
		<path class="st3" d="M334,370c0.3,0.7,0.7,1.3,1,2c0,0.7,0,1.3,0,2c1.7,7.3,3.3,14.7,5,22c-8.7,2-17.3,4-26,6
			c-3.3-8.3-6.6-16.7-10-25C314,374.6,324,372.3,334,370z"/>
		<path class="st10" d="M304.1,377c3.3,8.3,6.6,16.7,10,25c1.3,4,2.7,8,4,12c-1.2,4.7-4.2,3.1-7,2c-6.7-15-13.3-30-20-45
			c3.2-0.5,7.2,1.5,9-3.1C301.4,371,302.7,374,304.1,377z"/>
		<path class="st15" d="M380,434c-6,0.6-12.1,1.6-18.1,1.7c-4.3,0.1-8.6-1.1-12.9-1.7c-1.7-6-3.3-12-5-18c-1-5.7-2-11.3-3-17
			c0.9-0.7,1.7-1.8,2.7-1.9c12.1-1.1,24.2-2.1,36.3-3.1C380,407.3,380,420.7,380,434z"/>
		<path class="st22" d="M380,394c-12.1,1-24.2,2-36.3,3.1c-0.9,0.1-1.8,1.2-2.7,1.9c-0.3-1-0.7-2-1-3c-1.7-7.3-3.3-14.7-5-22
			c7.7-5.1,16.5-4.4,25-5c5.2-0.4,10.4-1,15.6-1.8c2.8-0.4,4.5,0,4.3,3.4c-0.2,3.5,0,6.9,0,10.4C380,385.3,380,389.7,380,394z"/>
		<path class="st22" d="M423,385c9.2,2.1,18.3,4.3,28,6.5c-2.1,5.3-4.1,10.4-6.1,15.4c-1,2.3-2,4.7-3,7c-8-2-16-4-24-6
			C419.7,400.3,421.3,392.7,423,385z"/>
		<path class="st2" d="M442,414c1-2.3,2-4.7,3-7c2.7,0,5.3,0,8,0c-5.8,13.5-11.5,27.1-17.3,40.7c-0.3,0.8-0.5,1.6-0.7,2.4
			c-1.6,3-3.3,6-4.9,9c-3.6,0.3-4.9-0.9-3.3-4.6c2-4.7,3.5-9.6,5.2-14.4C435.4,431.3,438.7,422.7,442,414z"/>
		<path class="st4" d="M430,351c0.3-0.7,0.7-1.3,1-2c10.7,2.7,21.3,5.3,32,8c-2.6,7.1-5.1,14.2-7.8,21.3c-0.3,0.9-2.2,1.8-3.1,1.6
			c-8.7-2.2-17.4-4.6-26.1-6.9C427.3,365.7,428.7,358.3,430,351z"/>
		<path class="st2" d="M308,448c-7,4.3-14,8.7-21,13c-0.3,0-0.7,0-1,0c-10.3-12.7-20.5-25.5-30.8-38.3c-0.9-1.1-1.5-2.5-2.3-3.7
			c2-2.2,3.7-4.9,6.2-6.5c5.4-3.5,11.2-6.3,16.7-9.6c1.4-0.8,2.1-2.7,3.2-4c4.6,7.6,9.2,15.2,13.9,22.8c0.9,1.5,2.1,2.9,3.1,4.4
			c2.7,5,5.4,10,8.1,14.9C305.3,443.3,306.7,445.7,308,448z"/>
		<path class="st3" d="M304,441c-2.7-5-5.4-10-8.1-14.9c5.3-2,10.7-4,16-6c2.3,5.3,4.7,10.7,7,16C314,437.6,309,439.3,304,441z"/>
		<path class="st2" d="M319,436c-2.3-5.3-4.7-10.7-7-16c-0.3-1.3-0.7-2.7-1-4c2.8,1.1,5.8,2.8,7-2c1.3,2.7,2.7,5.3,4,8
			c2,6,4,12,6,18c1.3,4,2.7,8,4.2,12.7c-2.1,0.1-3.7,0.2-5.3,0.3c-0.7-1-1.3-2-2-3C323,445.3,321,440.7,319,436z"/>
		<path class="st22" d="M328,440c-2-6-4-12-6-18c7.3-2,14.7-4,22-6c1.7,6,3.3,12,5,18c0,1,0,2,0,3c-5.3,1.1-10.5,2.4-15.8,3.4
			C331.5,440.7,329.7,440.1,328,440z"/>
		<path class="st4" d="M319,436c2,4.7,4,9.4,6,14c-4,2-8,4-12,6c-1.7-2.7-3.3-5.3-5-8c-1.3-2.3-2.6-4.7-4-7
			C309,439.3,314,437.6,319,436z"/>
		<path class="st4" d="M344,416c-7.3,2-14.7,4-22,6c-1.3-2.7-2.7-5.3-4-8c-1.3-4-2.7-8-4-12c8.7-2,17.3-4,26-6c0.3,1,0.7,2,1,3
			C342,404.7,343,410.3,344,416z"/>
	</g>
</g>
</svg>
