<?xml version="1.0" encoding="utf-8"?>
<!-- Generator: Adobe Illustrator 22.1.0, SVG Export Plug-In . SVG Version: 6.00 Build 0)  -->
<svg version="1.1" id="Capa_1" xmlns="http://www.w3.org/2000/svg" xmlns:xlink="http://www.w3.org/1999/xlink" x="0px" y="0px"
	 viewBox="0 0 512 512" style="enable-background:new 0 0 512 512;" xml:space="preserve">
<style type="text/css">
	.st0{fill:#1272AF;}
</style>
<g>
	<g>
		<g>
			<path class="st0" d="M113.9,155.9c4.9,3.7,11.3,5,17.5,3.3l84-23.5h81.2l84,23.5c5.9,1.7,12.4,0.5,17.5-3.3
				c5-3.8,7.9-9.7,7.9-15.9V20c0-6.3-2.9-12.1-7.9-15.9s-11.4-5-17.5-3.3l-84,23.5h-81.2l-84-23.5c-6-1.7-12.5-0.4-17.5,3.3
				c-5,3.8-7.9,9.7-7.9,15.9v120C106,146.3,108.9,152.2,113.9,155.9z M319.3,59.4l46.7-13v67.3l-46.7-13V59.4z M232.7,64.2h46.7
				v31.6h-46.7V64.2z M146,46.4l46.7,13v41.2l-46.7,13V46.4z"/>
			<path class="st0" d="M497.3,76.7c-8.7-2.4-17.9,1.3-22.5,9L256,452.9L37.2,85.8c-4.6-7.7-13.8-11.4-22.5-9C6,79.1,0,87,0,96v180
				c0,5.6,2.4,11,6.5,14.8l236,216c7.6,7,19.4,7,27,0l236-216c4.1-3.8,6.5-9.1,6.5-14.8V96C512,87,506,79.1,497.3,76.7z M40,267.2
				v-98.6l129.2,216.8L40,267.2z M472,267.2L342.8,385.5L472,168.6V267.2z"/>
			<circle class="st0" cx="256" cy="316" r="25"/>
			<circle class="st0" cx="256" cy="216" r="25"/>
		</g>
	</g>
</g>
</svg>
